<svg id="Layer_1" data-name="Layer 1" xmlns="http://www.w3.org/2000/svg" viewBox="0 0 292.81 292.76"><path d="M290.19,241.51c79.93-1.26,145.71,61.41,148.7,140.47A146.13,146.13,0,0,1,295.31,534.24c-81.55,1.13-148.26-63.47-149.11-144.07C145.35,309,209.8,242.45,290.19,241.51Zm2,181.08c-29.95-29.95-59.51-59.52-89.16-89.19,0,12.78,0,25.53.07,38.28a5.11,5.11,0,0,0,1.65,3c7.9,8,15.87,15.92,23.82,23.87Q257,427,285.43,455.52c2.3,2.31,4.37,4.84,6.61,7.33,1.12-1,1.62-1.4,2.07-1.85q43.27-43.28,86.49-86.6a6.14,6.14,0,0,0,1.54-3.9c.12-11.63.07-23.27.06-34.9,0-.79-.11-1.58-.2-2.79Z" transform="translate(-146.19 -241.49)"/></svg>