<?xml version="1.0" encoding="iso-8859-1"?>
<!-- Generator: Adobe Illustrator 19.0.0, SVG Export Plug-In . SVG Version: 6.00 Build 0)  -->
<svg version="1.1" id="Capa_1" xmlns="http://www.w3.org/2000/svg" xmlns:xlink="http://www.w3.org/1999/xlink" x="0px" y="0px"
	 viewBox="0 0 480.008 480.008" style="enable-background:new 0 0 480.008 480.008;" xml:space="preserve">
<g>
	<g>
		<circle cx="184" cy="184.004" r="16"/>
	</g>
</g>
<g>
	<g>
		<path d="M424,384.004H312V349.82c47.584-25.704,80-76.04,80-133.816v-56h24v16c0,4.424,3.584,8,8,8h32c4.416,0,8-3.576,8-8v-80
			c0-4.424-3.584-8-8-8h-32c-4.416,0-8,3.576-8,8v16h-24v-40c0-39.704-32.304-72-72-72H160c-39.696,0-72,32.296-72,72v40H64v-16
			c0-4.424-3.584-8-8-8H24c-4.416,0-8,3.576-8,8v80c0,4.424,3.584,8,8,8h32c4.416,0,8-3.576,8-8v-16h24v56
			c0,57.776,32.416,108.112,80,133.816v34.184H56c-30.88,0-56,25.128-56,56v40h16v-40c0-22.056,17.944-40,40-40h120
			c4.416,0,8-3.576,8-8v-34.8c0.424,0.168,0.856,0.28,1.28,0.44c3.896,1.512,7.84,2.912,11.88,4.104
			c0.952,0.28,1.928,0.48,2.888,0.744c3.672,1,7.36,1.952,11.136,2.68c1.192,0.232,2.408,0.352,3.6,0.552
			c3.584,0.6,7.16,1.192,10.824,1.544c1.12,0.104,2.24,0.088,3.36,0.168c3.656,0.272,7.304,0.568,11.032,0.568
			c3.728,0,7.376-0.296,11.04-0.56c1.12-0.08,2.24-0.064,3.36-0.168c3.664-0.344,7.24-0.936,10.824-1.544
			c1.2-0.2,2.408-0.32,3.6-0.552c3.776-0.728,7.464-1.68,11.136-2.68c0.96-0.264,1.928-0.464,2.888-0.744
			c4.04-1.192,7.984-2.592,11.88-4.104c0.424-0.168,0.856-0.272,1.28-0.44v34.792c0,4.424,3.584,8,8,8h120c22.056,0,40,17.944,40,40
			v40h16v-40C480,409.132,454.88,384.004,424,384.004z M432,152.004v-32v-16h16v64h-16V152.004z M392,128.004h24v16h-24V128.004z
			 M48,120.004v32v16H32v-64h16V120.004z M88,144.004H64v-16h24V144.004z M104,72.004c0-30.872,25.12-56,56-56h160
			c30.88,0,56,25.128,56,56v20.688l-18.344-18.344c-3.128-3.128-8.184-3.128-11.312,0L320,100.692l-26.344-26.344
			c-3.128-3.128-8.184-3.128-11.312,0L256,100.692l-26.344-26.344c-3.128-3.128-8.184-3.128-11.312,0L192,100.692l-26.344-26.344
			c-3.128-3.128-8.184-3.128-11.312,0L128,100.692l-24-24V72.004z M299.84,337.948c-4.328,2.128-8.744,4.008-13.216,5.648
			c-0.48,0.176-0.952,0.36-1.44,0.528c-4.464,1.584-8.984,2.912-13.552,4.016c-0.4,0.096-0.792,0.216-1.192,0.304
			c-20.04,4.632-40.856,4.632-60.896,0c-0.4-0.088-0.784-0.208-1.184-0.304c-4.568-1.096-9.096-2.432-13.56-4.016
			c-0.48-0.168-0.96-0.352-1.44-0.528c-4.472-1.64-8.888-3.52-13.216-5.648C135.128,315.756,104,269.508,104,216.004v-64v-32V99.316
			l18.344,18.344c3.128,3.128,8.184,3.128,11.312,0L160,91.316l26.344,26.344c3.128,3.128,8.184,3.128,11.312,0L224,91.316
			l26.344,26.344c3.128,3.128,8.184,3.128,11.312,0L288,91.316l26.344,26.344c1.56,1.56,3.608,2.344,5.656,2.344
			c2.048,0,4.096-0.784,5.656-2.344L352,91.316l24,24v4.688v32v64C376,269.508,344.872,315.756,299.84,337.948z"/>
	</g>
</g>
<g>
	<g>
		<polygon points="349.656,141.66 338.344,130.348 324,144.692 317.656,138.348 306.344,149.66 312.688,156.004 300,168.692 
			293.656,162.348 282.344,173.66 288.688,180.004 276,192.692 269.656,186.348 258.344,197.66 264.688,204.004 250.344,218.348 
			261.656,229.66 276,215.316 282.344,221.66 293.656,210.348 287.312,204.004 300,191.316 306.344,197.66 317.656,186.348 
			311.312,180.004 324,167.316 330.344,173.66 341.656,162.348 335.312,156.004 		"/>
	</g>
</g>
<g>
</g>
<g>
</g>
<g>
</g>
<g>
</g>
<g>
</g>
<g>
</g>
<g>
</g>
<g>
</g>
<g>
</g>
<g>
</g>
<g>
</g>
<g>
</g>
<g>
</g>
<g>
</g>
<g>
</g>
</svg>
