<?xml version="1.0" encoding="iso-8859-1"?>
<!-- Generator: Adobe Illustrator 19.0.0, SVG Export Plug-In . SVG Version: 6.00 Build 0)  -->
<svg version="1.1" id="Capa_1" xmlns="http://www.w3.org/2000/svg" xmlns:xlink="http://www.w3.org/1999/xlink" x="0px" y="0px"
	 viewBox="0 0 488 488" style="enable-background:new 0 0 488 488;" xml:space="preserve">
<g>
	<g>
		<circle cx="188" cy="240" r="16"/>
	</g>
</g>
<g>
	<g>
		<circle cx="300" cy="240" r="16"/>
	</g>
</g>
<g>
	<g>
		<path d="M428,416h-64h-48v-18.184c43.136-23.304,73.784-66.84,79.144-117.816H404c22.056,0,40-17.944,40-40
			c0-22.056-17.944-40-40-40h-8c0-51.392-25.704-96.824-64.856-124.344C336.904,67.608,340,58.072,340,48c0-26.472-21.528-48-48-48
			h-96c-26.472,0-48,21.528-48,48c0,10.072,3.096,19.608,8.856,27.656C117.704,103.176,92,148.608,92,200h-8
			c-22.056,0-40,17.944-40,40c0,22.056,17.944,40,40,40h8.856c5.36,50.976,36.008,94.512,79.144,117.816V416h-48H60
			c-30.872,0-56,25.128-56,56v16h16v-16c0-22.056,17.944-40,40-40h62.224l118.392,55.248C241.688,487.752,242.84,488,244,488
			c1.16,0,2.312-0.248,3.384-0.752L365.776,432H428c22.056,0,40,17.944,40,40v16h16v-16C484,441.128,458.872,416,428,416z M396,216
			h8c13.232,0,24,10.768,24,24s-10.768,24-24,24h-8V216z M92,264h-8c-13.232,0-24-10.768-24-24s10.768-24,24-24h8V264z M196,16h96
			c17.648,0,32,14.352,32,32c0,6.976-2.256,13.584-6.432,19.088c-2.088-1.16-4.264-2.176-6.408-3.24
			c-1.264-0.624-2.528-1.248-3.808-1.832c-2.288-1.056-4.584-2.088-6.936-3.032c-2.88-1.16-5.792-2.224-8.736-3.2
			c-2.128-0.704-4.288-1.328-6.456-1.936c-2.384-0.68-4.784-1.296-7.2-1.856c-1.624-0.376-3.232-0.784-4.872-1.104
			c-3.984-0.784-8-1.376-12.04-1.84c-1.192-0.136-2.384-0.24-3.576-0.344C253.04,48.28,248.528,48,244,48s-9.04,0.28-13.536,0.688
			c-1.2,0.104-2.392,0.208-3.576,0.344c-4.04,0.464-8.056,1.056-12.04,1.84c-1.64,0.32-3.248,0.728-4.872,1.104
			c-2.416,0.56-4.816,1.176-7.2,1.856c-2.168,0.616-4.328,1.232-6.456,1.936c-2.936,0.976-5.856,2.04-8.736,3.2
			c-2.352,0.944-4.648,1.976-6.936,3.032c-1.28,0.592-2.544,1.208-3.808,1.832c-2.152,1.064-4.32,2.08-6.408,3.24
			C166.256,61.584,164,54.976,164,48C164,30.352,178.352,16,196,16z M108,200c0-49.504,26.672-92.784,66.312-116.568
			c7.04-4.216,14.4-7.76,21.992-10.624c1.184-0.448,2.36-0.888,3.56-1.304c2.136-0.736,4.28-1.44,6.44-2.072
			c2.176-0.632,4.376-1.176,6.592-1.696c2.216-0.528,4.448-1,6.688-1.416c2.808-0.512,5.632-0.968,8.496-1.304
			c1.28-0.152,2.568-0.288,3.856-0.4C235.92,64.256,239.928,64,244,64s8.08,0.256,12.064,0.608c1.288,0.12,2.576,0.248,3.856,0.4
			c2.864,0.336,5.688,0.792,8.496,1.304c2.24,0.416,4.472,0.888,6.688,1.416c2.216,0.52,4.424,1.072,6.592,1.696
			c2.168,0.632,4.312,1.328,6.44,2.072c1.2,0.416,2.376,0.856,3.56,1.304c7.592,2.872,14.952,6.408,21.992,10.624
			C353.328,107.216,380,150.496,380,200v7.192c-18.232-3.72-32-19.872-32-39.192c0-17.648-14.352-32-32-32H172
			c-17.648,0-32,14.352-32,32c0,19.312-13.768,35.472-32,39.192V200z M108,264v-40.64c27.088-3.904,48-27.208,48-55.36
			c0-8.824,7.176-16,16-16h144c8.824,0,16,7.176,16,16c0,28.152,20.912,51.456,48,55.36V264c0,53.512-31.144,99.768-76.184,121.952
			c-4.312,2.12-8.704,3.992-13.16,5.632c-0.488,0.184-0.984,0.368-1.472,0.544c-4.456,1.576-8.968,2.904-13.52,4.008
			c-0.408,0.096-0.808,0.216-1.216,0.312c-20.04,4.632-40.848,4.632-60.88,0c-0.408-0.096-0.808-0.216-1.216-0.312
			c-4.552-1.096-9.064-2.424-13.52-4.008c-0.496-0.176-0.984-0.36-1.472-0.544c-4.456-1.64-8.848-3.504-13.16-5.632
			C139.144,363.768,108,317.512,108,264z M244,471.168L160.064,432H180c4.424,0,8-3.576,8-8v-18.8c0.424,0.168,0.856,0.28,1.28,0.44
			c3.896,1.512,7.84,2.912,11.88,4.104c0.952,0.28,1.928,0.48,2.888,0.744c3.672,1,7.36,1.952,11.136,2.68
			c1.192,0.232,2.408,0.352,3.6,0.552c3.584,0.6,7.16,1.192,10.824,1.544c1.12,0.104,2.24,0.088,3.36,0.168
			C236.624,415.704,240.272,416,244,416c3.728,0,7.376-0.296,11.04-0.56c1.12-0.08,2.24-0.064,3.36-0.168
			c3.664-0.344,7.24-0.936,10.824-1.544c1.2-0.2,2.408-0.32,3.6-0.552c3.776-0.728,7.464-1.68,11.136-2.68
			c0.96-0.264,1.928-0.464,2.888-0.744c4.04-1.192,7.984-2.592,11.88-4.104c0.424-0.168,0.856-0.272,1.28-0.44V424
			c0,4.424,3.576,8,8,8h19.936L244,471.168z"/>
	</g>
</g>
<g>
</g>
<g>
</g>
<g>
</g>
<g>
</g>
<g>
</g>
<g>
</g>
<g>
</g>
<g>
</g>
<g>
</g>
<g>
</g>
<g>
</g>
<g>
</g>
<g>
</g>
<g>
</g>
<g>
</g>
</svg>
