<?xml version="1.0" encoding="iso-8859-1"?>
<!-- Generator: Adobe Illustrator 19.0.0, SVG Export Plug-In . SVG Version: 6.00 Build 0)  -->
<svg version="1.1" id="Capa_1" xmlns="http://www.w3.org/2000/svg" xmlns:xlink="http://www.w3.org/1999/xlink" x="0px" y="0px"
	 viewBox="0 0 480 480" style="enable-background:new 0 0 480 480;" xml:space="preserve">
<g>
	<g>
		<circle cx="184" cy="192" r="16"/>
	</g>
</g>
<g>
	<g>
		<circle cx="296" cy="192" r="16"/>
	</g>
</g>
<g>
	<g>
		<path d="M377.792,290.264C386.352,334.496,425.32,368,472,368c4.416,0,8-3.576,8-8V168c0-52.936-43.064-96-96-96h-15
			C342.152,28.864,294.44,0,240,0C158.888,0,92.608,63.912,88.408,144H80c-22.056,0-40,17.944-40,40c0,22.056,17.944,40,40,40h8
			v2.544c0,56.544,31.688,107.608,80,133.72V392h-48H56c-30.88,0-56,25.128-56,56v32h16v-32c0-22.056,17.944-40,40-40h61.784
			l118.096,70.856c1.272,0.76,2.696,1.144,4.12,1.144s2.848-0.384,4.12-1.144L362.216,408H424c22.056,0,40,17.944,40,40v32h16v-32
			c0-30.872-25.12-56-56-56h-64h-48v-31.736C341.064,344.552,364.056,319.824,377.792,290.264z M88,208h-8
			c-13.232,0-24-10.768-24-24s10.768-24,24-24h8V208z M384,88c44.112,0,80,35.888,80,80v183.6c-40.368-4.024-72-38.184-72-79.6
			v-45.456V224h8c22.056,0,40-17.944,40-40c0-22.056-17.944-40-40-40h-8c0-2.624-0.272-5.256-0.832-8.016
			c-0.48-4.584-1.216-9.112-2.112-13.6c-0.288-1.464-0.68-2.888-1.016-4.336c-0.688-2.984-1.424-5.96-2.296-8.896
			c-0.592-2.008-1.256-3.976-1.928-5.952c-0.744-2.176-1.528-4.336-2.376-6.48c-0.936-2.376-1.912-4.728-2.96-7.048
			c-0.248-0.552-0.44-1.12-0.704-1.672H384z M392,208v-48h8c13.232,0,24,10.768,24,24s-10.768,24-24,24H392z M376.008,192.496H376
			c-31.376,3.488-56.752,27.184-62.68,57.768c-42.992-24.112-103.64-24.112-146.632,0c-5.936-30.584-31.304-54.272-62.68-57.768V168
			c45.432,0,84.048-27.064,98.176-64.616c24.664,36.768,91.864,62.912,173.824,64.52V192.496z M240,16
			c50.44,0,94.456,27.664,117.936,68.552c2.096,3.664,3.992,7.392,5.728,11.168c0.232,0.512,0.512,1.008,0.736,1.528
			c1.592,3.584,2.952,7.24,4.216,10.92c0.28,0.824,0.632,1.624,0.904,2.456c1.064,3.288,1.88,6.648,2.688,10.008
			c0.288,1.232,0.688,2.416,0.944,3.656c0.744,3.568,1.24,7.184,1.688,10.816c0.688,5.512,1.152,11.096,1.16,16.792
			C284.136,149.928,208,114.144,208,72h-16c0,44.112-39.48,80-88,80C104,77.008,165.008,16,240,16z M331.12,408L240,462.672
			L148.88,408H176c4.416,0,8-3.576,8-8v-32.2c0.384,0.152,0.776,0.28,1.16,0.432c1.408,0.544,2.832,1.072,4.264,1.584
			c3.304,1.184,6.608,2.28,9.896,3.2l38.536,10.704c1.4,0.392,2.88,0.392,4.28,0l38.536-10.704c0.152-0.04,0.296-0.104,0.448-0.144
			c3.144-0.888,6.296-1.928,9.448-3.056c1.432-0.504,2.848-1.032,4.256-1.576c0.4-0.168,0.792-0.288,1.176-0.44V400
			c0,4.424,3.584,8,8,8H331.12z M300.096,348.44c-3.808,1.872-7.64,3.568-11.48,5.064c-0.08,0.032-0.168,0.072-0.248,0.104
			c-4,1.544-8,2.88-11.968,3.984L240,367.696l-36.4-10.112c-0.224-0.064-0.432-0.152-0.656-0.216
			c-3.752-1.072-7.528-2.312-11.304-3.768c-0.096-0.04-0.192-0.08-0.288-0.12c-3.824-1.488-7.648-3.176-11.44-5.048
			C134.248,325.848,104,278.808,104,226.544V216v-7.36c27.096,3.904,48,27.208,48,55.36c0,3.008,1.68,5.76,4.36,7.128
			c2.664,1.36,5.896,1.112,8.328-0.64c41.52-30.064,109.096-30.064,150.616,0c1.392,1,3.04,1.512,4.696,1.512
			c1.24,0,2.496-0.288,3.64-0.872c2.68-1.368,4.36-4.12,4.36-7.128c0-28.152,20.904-51.456,48-55.36V216v10.544
			C376,278.808,345.752,325.848,300.096,348.44z"/>
	</g>
</g>
<g>
	<g>
		<path d="M274.432,266.24c-18.976,18.328-49.888,18.328-68.88,0l-11.112,11.512c12.56,12.12,29.056,18.176,45.552,18.176
			c16.496,0,33-6.064,45.552-18.176L274.432,266.24z"/>
	</g>
</g>
<g>
</g>
<g>
</g>
<g>
</g>
<g>
</g>
<g>
</g>
<g>
</g>
<g>
</g>
<g>
</g>
<g>
</g>
<g>
</g>
<g>
</g>
<g>
</g>
<g>
</g>
<g>
</g>
<g>
</g>
</svg>
