<?xml version="1.0" encoding="iso-8859-1"?>
<!-- Generator: Adobe Illustrator 19.0.0, SVG Export Plug-In . SVG Version: 6.00 Build 0)  -->
<svg version="1.1" id="Capa_1" xmlns="http://www.w3.org/2000/svg" xmlns:xlink="http://www.w3.org/1999/xlink" x="0px" y="0px"
	 viewBox="0 0 480 480" style="enable-background:new 0 0 480 480;" xml:space="preserve">
<g>
	<g>
		<circle cx="184" cy="192" r="16"/>
	</g>
</g>
<g>
	<g>
		<circle cx="296" cy="192" r="16"/>
	</g>
</g>
<g>
	<g>
		<path d="M376.568,282.288C381.728,330.4,422.544,368,472,368c4.416,0,8-3.584,8-8V168c0-52.936-43.064-96-96-96h-15
			C342.152,28.864,294.44,0,240,0C158.888,0,92.608,63.912,88.408,144H80c-22.056,0-40,17.944-40,40c0,22.056,17.944,40,40,40h8.408
			C91.256,278.376,122.64,325.312,168,349.816V392h-48H56c-30.88,0-56,25.12-56,56v32h16v-32c0-22.056,17.944-40,40-40h61.784
			l118.096,70.856c2.536,1.52,5.696,1.52,8.232,0L362.216,408H424c22.056,0,40,17.944,40,40v32h16v-32c0-30.88-25.12-56-56-56h-64
			h-48v-42.184C340,334.688,362.592,310.968,376.568,282.288z M384,88c44.112,0,80,35.888,80,80v183.6
			c-40.368-4.024-72-38.192-72-79.6v-48h8c22.056,0,40-17.944,40-40c0-22.056-17.944-40-40-40h-8c0-2.6-0.28-5.288-0.832-8.008
			c-0.48-4.584-1.216-9.112-2.104-13.6c-0.296-1.472-0.688-2.904-1.024-4.368c-0.688-2.976-1.416-5.944-2.288-8.872
			c-0.592-2.008-1.264-3.976-1.936-5.952c-0.744-2.176-1.528-4.336-2.376-6.48c-0.936-2.376-1.912-4.728-2.96-7.048
			c-0.248-0.552-0.44-1.12-0.696-1.672H384z M392,208v-48h8c13.232,0,24,10.768,24,24s-10.768,24-24,24H392z M88,208h-8
			c-13.232,0-24-10.768-24-24s10.768-24,24-24h8V208z M240,16c50.44,0,94.456,27.664,117.936,68.552c2.104,3.672,4,7.416,5.736,11.2
			c0.232,0.504,0.496,0.984,0.72,1.488c1.6,3.6,2.96,7.272,4.24,10.968c0.28,0.816,0.624,1.592,0.888,2.416
			c1.072,3.312,1.896,6.688,2.704,10.072c0.288,1.208,0.672,2.376,0.928,3.592c0.76,3.624,1.264,7.304,1.72,11
			c0.672,5.456,1.128,10.976,1.128,16.608C284.136,149.928,208,114.144,208,72h-16c0,44.112-39.48,80-88,80
			C104,77.008,165.008,16,240,16z M331.128,408L240,462.672L148.88,408H176c4.416,0,8-3.584,8-8v-42.8
			c0.424,0.168,0.856,0.28,1.28,0.44c3.896,1.512,7.84,2.912,11.88,4.104c0.952,0.28,1.928,0.48,2.888,0.744
			c3.672,1,7.36,1.952,11.136,2.68c1.192,0.232,2.408,0.352,3.6,0.552c3.584,0.6,7.16,1.192,10.824,1.544
			c1.12,0.104,2.24,0.088,3.36,0.168C232.624,367.704,236.272,368,240,368c3.728,0,7.376-0.296,11.04-0.56
			c1.12-0.08,2.24-0.064,3.36-0.168c3.664-0.344,7.24-0.936,10.824-1.544c1.2-0.2,2.408-0.32,3.6-0.552
			c3.776-0.728,7.464-1.68,11.136-2.68c0.96-0.264,1.928-0.464,2.888-0.744c4.04-1.192,7.984-2.592,11.88-4.104
			c0.424-0.168,0.856-0.272,1.28-0.44V400c0,4.416,3.584,8,8,8H331.128z M299.68,338.024c-4.264,2.088-8.608,3.936-13.008,5.56
			c-0.504,0.184-1,0.376-1.512,0.552c-4.464,1.584-8.992,2.912-13.56,4.016c-0.384,0.088-0.752,0.208-1.136,0.296
			c-20.056,4.64-40.872,4.64-60.928,0c-0.384-0.088-0.752-0.2-1.136-0.296c-4.568-1.096-9.096-2.432-13.56-4.016
			c-0.504-0.176-1.008-0.368-1.512-0.552c-4.4-1.616-8.744-3.464-13.008-5.56C135.208,315.864,104,269.568,104,216v-48
			c45.424,0,84.048-27.064,98.176-64.616C226.84,140.16,294.04,166.296,376,167.904V216C376,269.568,344.792,315.864,299.68,338.024
			z"/>
	</g>
</g>
<g>
</g>
<g>
</g>
<g>
</g>
<g>
</g>
<g>
</g>
<g>
</g>
<g>
</g>
<g>
</g>
<g>
</g>
<g>
</g>
<g>
</g>
<g>
</g>
<g>
</g>
<g>
</g>
<g>
</g>
</svg>
