<?xml version="1.0" encoding="iso-8859-1"?>
<!-- Generator: Adobe Illustrator 19.0.0, SVG Export Plug-In . SVG Version: 6.00 Build 0)  -->
<svg version="1.1" id="Capa_1" xmlns="http://www.w3.org/2000/svg" xmlns:xlink="http://www.w3.org/1999/xlink" x="0px" y="0px"
	 viewBox="0 0 480 480" style="enable-background:new 0 0 480 480;" xml:space="preserve">
<g>
	<g>
		<path d="M192,112c-22.056,0-40,17.944-40,40c0,22.056,17.944,40,40,40c22.056,0,40-17.944,40-40C232,129.944,214.056,112,192,112z
			 M192,176c-13.232,0-24-10.768-24-24s10.768-24,24-24s24,10.768,24,24S205.232,176,192,176z"/>
	</g>
</g>
<g>
	<g>
		<path d="M288,112c-22.056,0-40,17.944-40,40c0,22.056,17.944,40,40,40c22.056,0,40-17.944,40-40C328,129.944,310.056,112,288,112z
			 M288,176c-13.232,0-24-10.768-24-24s10.768-24,24-24s24,10.768,24,24S301.232,176,288,176z"/>
	</g>
</g>
<g>
	<g>
		<path d="M440,344c-16.36,0-30.416,9.896-36.608,24H272v-24h32c22.056,0,40-17.944,40-40v-40v-16.808
			c18.232-3.72,32-19.872,32-39.192v-72C376,61.008,314.992,0,240,0S104,61.008,104,136v72c0,19.312,13.768,35.472,32,39.192V264v40
			c0,22.056,17.944,40,40,40h32v24H76.608C70.416,353.896,56.36,344,40,344c-22.056,0-40,17.944-40,40
			c0,13.016,6.344,24.488,16,31.792V472c0,4.424,3.584,8,8,8h32c4.416,0,8-3.576,8-8v-56h144v16h-88c-13.232,0-24,10.768-24,24
			s10.768,24,24,24h96h48h96c13.232,0,24-10.768,24-24s-10.768-24-24-24h-88v-16h144v56c0,4.424,3.584,8,8,8h32c4.416,0,8-3.576,8-8
			v-56.208c9.656-7.312,16-18.784,16-31.792C480,361.944,462.056,344,440,344z M48,464H32v-40.808c2.584,0.528,5.264,0.808,8,0.808
			s5.416-0.28,8-0.808V464z M63.464,388.984c-0.056,0.272-0.176,0.512-0.24,0.784c-0.344,1.368-0.76,2.72-1.344,4
			c-0.048,0.104-0.112,0.192-0.16,0.296c-1.4,2.952-3.416,5.64-6.016,7.92c-0.032,0.032-0.048,0.064-0.08,0.096
			c-1.064,0.928-2.2,1.752-3.416,2.48c-0.072,0.04-0.152,0.056-0.224,0.096c-1.816,1.064-3.704,1.832-5.608,2.384
			c-0.152,0.04-0.304,0.104-0.456,0.144c-3.896,1.048-7.912,1.048-11.808,0c-0.16-0.04-0.304-0.096-0.456-0.144
			c-1.912-0.552-3.792-1.328-5.608-2.384c-0.072-0.04-0.152-0.056-0.224-0.096C20.768,400.36,16,392.76,16,384
			c0-13.232,10.768-24,24-24c11.12,0,20.408,7.64,23.12,17.92c0.008,0.032-0.008,0.064,0,0.096c0.24,0.912,0.384,1.728,0.528,2.528
			C63.816,381.68,64,382.816,64,384C64,385.696,63.816,387.368,63.464,388.984z M208,464h-88c-4.408,0-8-3.584-8-8
			c0-4.416,3.592-8,8-8h88V464z M208,400H76.608c2.16-4.912,3.392-10.304,3.392-16h128V400z M328,264c0,8.824-7.176,16-16,16
			c-8.824,0-16-7.176-16-16v-16h32V264z M144,232c-13.232,0-24-10.768-24-24v-72c0-66.168,53.832-120,120-120s120,53.832,120,120v72
			c0,13.232-10.768,24-24,24h-48h-48h-48H144z M280,248v16c0,8.824-7.176,16-16,16c-8.824,0-16-7.176-16-16v-16H280z M232,248v16
			c0,8.824-7.176,16-16,16c-8.824,0-16-7.176-16-16v-16H232z M184,248v16c0,8.824-7.176,16-16,16c-8.824,0-16-7.176-16-16v-16H184z
			 M256,376v32v32v24h-32v-24v-32v-32v-32h32V376z M360,448c4.408,0,8,3.584,8,8c0,4.416-3.592,8-8,8h-88v-16H360z M264,328h-48h-40
			c-13.232,0-24-10.768-24-24v-12.448c4.728,2.752,10.144,4.448,16,4.448c9.6,0,18.128-4.336,24-11.056
			c5.872,6.72,14.4,11.056,24,11.056c9.6,0,18.128-4.336,24-11.056c5.872,6.72,14.4,11.056,24,11.056c9.6,0,18.128-4.336,24-11.056
			c5.872,6.72,14.4,11.056,24,11.056c5.856,0,11.272-1.696,16-4.448V304c0,13.232-10.768,24-24,24H264z M272,400v-16h128
			c0,5.696,1.232,11.088,3.392,16H272z M448,464h-16v-40.808c2.584,0.528,5.264,0.808,8,0.808c2.736,0,5.416-0.28,8-0.808V464z
			 M452.2,404.552c-0.072,0.04-0.152,0.056-0.224,0.096c-1.816,1.064-3.704,1.832-5.608,2.384c-0.152,0.04-0.304,0.104-0.456,0.144
			c-3.896,1.048-7.912,1.048-11.808,0c-0.16-0.04-0.304-0.096-0.456-0.144c-1.912-0.552-3.792-1.328-5.608-2.384
			c-0.072-0.04-0.152-0.056-0.224-0.096c-1.216-0.728-2.352-1.56-3.416-2.48c-0.032-0.032-0.048-0.072-0.08-0.096
			c-2.6-2.272-4.608-4.968-6.016-7.912c-0.048-0.104-0.12-0.2-0.168-0.304c-0.584-1.28-1-2.624-1.344-3.992
			c-0.064-0.272-0.184-0.512-0.248-0.784c-0.36-1.616-0.544-3.288-0.544-4.984c0-1.184,0.184-2.32,0.352-3.456
			c0.136-0.808,0.288-1.616,0.528-2.528c0.008-0.032-0.008-0.064,0-0.096c2.712-10.28,12-17.92,23.12-17.92
			c13.232,0,24,10.768,24,24C464,392.76,459.232,400.368,452.2,404.552z"/>
	</g>
</g>
<g>
</g>
<g>
</g>
<g>
</g>
<g>
</g>
<g>
</g>
<g>
</g>
<g>
</g>
<g>
</g>
<g>
</g>
<g>
</g>
<g>
</g>
<g>
</g>
<g>
</g>
<g>
</g>
<g>
</g>
</svg>
