<?xml version="1.0" encoding="iso-8859-1"?>
<!-- Generator: Adobe Illustrator 19.0.0, SVG Export Plug-In . SVG Version: 6.00 Build 0)  -->
<svg version="1.1" id="Capa_1" xmlns="http://www.w3.org/2000/svg" xmlns:xlink="http://www.w3.org/1999/xlink" x="0px" y="0px"
	 viewBox="0 0 480.004 480.004" style="enable-background:new 0 0 480.004 480.004;" xml:space="preserve">
<g>
	<g>
		<path d="M424.002,408h-56v-48c0-2.848-1.512-5.488-3.984-6.92c-2.464-1.424-5.504-1.448-7.984-0.024l-44.032,25.16v-12.4
			c45.36-24.504,76.744-71.44,79.592-125.816h8.408c22.056,0,40-17.944,40-40c0-22.056-17.944-40-40-40h-8.352
			c-3.504-66.464-50.12-123.072-114.592-139.232l2.712-10.832c0.6-2.392,0.064-4.92-1.456-6.856c-1.52-1.944-3.848-3.08-6.312-3.08
			h-64c-2.464,0-4.792,1.136-6.304,3.08c-1.512,1.936-2.056,4.472-1.456,6.856l2.712,10.832
			C138.474,36.928,91.858,93.536,88.354,160h-8.352c-22.056,0-40,17.944-40,40c0,22.056,17.944,40,40,40h8.408
			c2.848,54.376,34.232,101.312,79.592,125.816v12.4l-44.032-25.16c-2.48-1.424-5.52-1.4-7.984,0.024
			c-2.472,1.432-3.984,4.072-3.984,6.92v48h-56c-30.872,0-56,25.128-56,56v16h16v-16c0-22.056,17.944-40,40-40h64
			c4.424,0,8-3.576,8-8v-42.208l40,22.848V416c0,2.304,0.992,4.496,2.736,6.024l64,56c3.016,2.64,7.512,2.64,10.528,0l64-56
			c1.744-1.528,2.736-3.72,2.736-6.024v-19.36l40-22.848V416c0,4.424,3.576,8,8,8h64c22.056,0,40,17.944,40,40v16h16v-16
			C480.002,433.128,454.874,408,424.002,408z M392.002,176h8c13.232,0,24,10.768,24,24s-10.768,24-24,24h-8V176z M88.002,224h-8
			c-13.232,0-24-10.768-24-24s10.768-24,24-24h8V224z M261.754,16l-12,48H230.25l-12-48H261.754z M296.01,392v20.368h-0.008l-56,49
			l-56-49V392v-18.8c0.424,0.168,0.856,0.28,1.28,0.44c3.896,1.512,7.84,2.912,11.88,4.104c0.952,0.28,1.928,0.48,2.888,0.744
			c3.672,1,7.36,1.952,11.136,2.68c1.192,0.232,2.408,0.352,3.6,0.552c3.584,0.6,7.16,1.192,10.824,1.544
			c1.12,0.104,2.24,0.088,3.36,0.168c3.656,0.272,7.304,0.568,11.032,0.568c3.728,0,7.376-0.296,11.04-0.56
			c1.12-0.08,2.24-0.064,3.36-0.168c3.664-0.344,7.24-0.936,10.824-1.544c1.2-0.2,2.408-0.32,3.6-0.552
			c3.776-0.728,7.464-1.68,11.136-2.68c0.96-0.264,1.928-0.464,2.888-0.744c4.04-1.192,7.984-2.592,11.88-4.104
			c0.424-0.168,0.856-0.272,1.28-0.44V392z M299.818,353.952c-4.312,2.12-8.704,3.992-13.16,5.632
			c-0.488,0.184-0.984,0.368-1.472,0.544c-4.456,1.576-8.968,2.904-13.52,4.008c-0.408,0.096-0.808,0.216-1.216,0.312
			c-20.04,4.632-40.848,4.632-60.88,0c-0.408-0.096-0.808-0.216-1.216-0.312c-4.552-1.096-9.064-2.424-13.52-4.008
			c-0.496-0.176-0.984-0.36-1.472-0.544c-4.456-1.64-8.848-3.504-13.16-5.632c-45.056-22.184-76.2-68.44-76.2-121.952v-64
			c0-62.528,42.8-116.808,102.792-131.832l9.456,37.776c0.888,3.56,4.08,6.056,7.752,6.056h32c3.672,0,6.864-2.496,7.76-6.064
			l9.456-37.776C333.202,51.192,376.002,105.472,376.002,168v64C376.002,285.512,344.858,331.768,299.818,353.952z"/>
	</g>
</g>
<g>
	<g>
		<circle cx="184.002" cy="200" r="16"/>
	</g>
</g>
<g>
	<g>
		<circle cx="296.002" cy="200" r="16"/>
	</g>
</g>
<g>
	<g>
		<path d="M255.618,175.944c-0.944-2.888-3.448-5-6.464-5.44l-40.064-5.824l-17.912-36.304c-2.688-5.472-11.656-5.472-14.344,0
			l-17.912,36.304l-40.064,5.824c-3.016,0.44-5.512,2.544-6.464,5.44c-0.936,2.896-0.16,6.08,2.024,8.2L143.41,212.4l-6.84,39.904
			c-0.512,3,0.72,6.032,3.176,7.824c2.48,1.8,5.736,2.032,8.432,0.608l35.824-18.832l35.832,18.832
			c1.168,0.616,2.456,0.92,3.728,0.92c1.656,0,3.304-0.512,4.704-1.528c2.464-1.792,3.696-4.824,3.176-7.824l-6.84-39.904
			l28.992-28.256C255.77,182.016,256.554,178.84,255.618,175.944z M210.41,203.888c-1.88,1.832-2.744,4.488-2.296,7.08l4.816,28.072
			l-25.2-13.248c-1.168-0.616-2.448-0.92-3.728-0.92c-1.28,0-2.552,0.304-3.728,0.92l-25.2,13.248l4.816-28.072
			c0.448-2.592-0.416-5.24-2.296-7.08l-20.4-19.88l28.176-4.096c2.608-0.376,4.856-2.016,6.024-4.376L184.002,150l12.6,25.536
			c1.168,2.36,3.416,4,6.024,4.376l28.176,4.096L210.41,203.888z"/>
	</g>
</g>
<g>
</g>
<g>
</g>
<g>
</g>
<g>
</g>
<g>
</g>
<g>
</g>
<g>
</g>
<g>
</g>
<g>
</g>
<g>
</g>
<g>
</g>
<g>
</g>
<g>
</g>
<g>
</g>
<g>
</g>
</svg>
