<?xml version="1.0" encoding="iso-8859-1"?>
<!-- Generator: Adobe Illustrator 19.0.0, SVG Export Plug-In . SVG Version: 6.00 Build 0)  -->
<svg version="1.1" id="Capa_1" xmlns="http://www.w3.org/2000/svg" xmlns:xlink="http://www.w3.org/1999/xlink" x="0px" y="0px"
	 viewBox="0 0 480 480" style="enable-background:new 0 0 480 480;" xml:space="preserve">
<g>
	<g>
		<path d="M424,392h-9.128c-1.136-4.376-3.072-8.48-5.896-12c4.496-5.6,7.024-12.616,7.024-20c0-7.384-2.528-14.4-7.032-20
			c4.504-5.6,7.032-12.616,7.032-20c0-7.384-2.528-14.4-7.032-20c4.504-5.6,7.032-12.616,7.032-20c0-7.384-2.528-14.4-7.032-20
			c4.504-5.6,7.032-12.616,7.032-20c0-6.512-1.976-12.568-5.336-17.624C427.52,217.672,440,202.336,440,184
			c0-22.056-17.944-40-40-40h-8.408C387.392,63.912,321.112,0,240,0S92.608,63.912,88.408,144H80c-22.056,0-40,17.944-40,40
			c0,18.336,12.48,33.672,29.336,38.376C65.976,227.432,64,233.488,64,240c0,7.384,2.528,14.4,7.032,20
			C66.528,265.6,64,272.616,64,280c0,7.384,2.528,14.4,7.032,20C66.528,305.6,64,312.616,64,320c0,7.384,2.528,14.4,7.032,20
			C66.528,345.6,64,352.616,64,360c0,7.384,2.528,14.4,7.032,20c-2.824,3.52-4.768,7.624-5.896,12H56c-30.872,0-56,25.128-56,56v32
			h16v-32c0-22.056,17.944-40,40-40h9.136c1.64,6.32,5.144,11.832,9.92,16C68.336,429.872,64,438.392,64,448v24c0,4.424,3.576,8,8,8
			h48c4.424,0,8-3.576,8-8v-24c0-9.608-4.336-18.128-11.056-24c3.592-3.144,6.56-6.976,8.464-11.424l110.472,66.28
			c1.272,0.76,2.696,1.144,4.12,1.144s2.848-0.384,4.12-1.144l110.472-66.28c1.912,4.448,4.872,8.28,8.464,11.424
			c-6.72,5.872-11.056,14.392-11.056,24v24c0,4.424,3.576,8,8,8h48c4.424,0,8-3.576,8-8v-24c0-9.608-4.336-18.128-11.056-24
			c4.776-4.168,8.28-9.68,9.92-16H424c22.056,0,40,17.944,40,40v32h16v-32C480,417.128,454.872,392,424,392z M240,16
			c72.192,0,131.256,56.584,135.576,127.704C302.24,140.688,248,99.28,248,72h-16c0,27.28-54.24,68.688-127.576,71.704
			C108.744,72.584,167.808,16,240,16z M256,160h-32h-87.208l-11.28-2.256C173.328,150.728,221.44,127.792,240,98
			c18.56,29.784,66.672,52.72,114.488,59.744L343.208,160H256z M336,176v12c0,19.848-16.152,36-36,36c-19.848,0-36-16.152-36-36v-12
			H336z M216,176v12c0,19.848-16.152,36-36,36c-19.848,0-36-16.152-36-36v-12H216z M56,184c0-13.232,10.768-24,24-24h8v48h-8
			C66.768,208,56,197.232,56,184z M112,464H80v-16c0-8.824,7.176-16,16-16s16,7.176,16,16V464z M104.816,346.672
			c4.496,2.976,7.184,7.96,7.184,13.328c0,5.368-2.688,10.352-7.184,13.328c-2.232,1.488-3.576,3.992-3.576,6.672
			s1.344,5.184,3.576,6.672c4.496,2.976,7.184,7.96,7.184,13.328c0,8.824-7.176,16-16,16s-16-7.176-16-16
			c0-5.368,2.688-10.352,7.184-13.328c2.232-1.488,3.576-3.992,3.576-6.672s-1.344-5.184-3.576-6.672
			C82.688,370.352,80,365.368,80,360c0-5.368,2.688-10.352,7.184-13.328c2.232-1.488,3.576-3.992,3.576-6.672
			s-1.344-5.184-3.576-6.672C82.688,330.352,80,325.368,80,320c0-5.368,2.688-10.352,7.184-13.328
			c2.232-1.488,3.576-3.992,3.576-6.672s-1.344-5.184-3.576-6.672C82.688,290.352,80,285.368,80,280
			c0-5.368,2.688-10.352,7.184-13.328c2.232-1.488,3.576-3.992,3.576-6.672s-1.344-5.184-3.576-6.672
			C82.688,250.352,80,245.368,80,240c0-6.048,3.368-11.32,8.328-14.04c0.088,1.328,0.256,2.648,0.376,3.976
			c0.088,0.936,0.16,1.864,0.264,2.792c0.448,4,1.056,7.968,1.824,11.912c0.28,1.456,0.592,2.896,0.912,4.336
			c0.784,3.488,1.648,6.96,2.672,10.384c0.552,1.856,1.2,3.664,1.816,5.488c0.672,1.968,1.392,3.928,2.152,5.872
			c1.216,3.128,2.528,6.192,3.944,9.224c0.728,1.56,1.464,3.112,2.24,4.648c1.056,2.072,2.112,4.128,3.256,6.144
			c-0.888,1-1.888,1.872-2.984,2.6c-2.232,1.488-3.576,3.984-3.576,6.664c0,2.688,1.344,5.184,3.576,6.672
			c4.512,2.976,7.2,7.96,7.2,13.328c0,5.368-2.688,10.352-7.184,13.328c-2.232,1.488-3.576,3.992-3.576,6.672
			S102.584,345.184,104.816,346.672z M120.968,380c4.504-5.6,7.032-12.616,7.032-20c0-7.384-2.528-14.4-7.032-20
			c4.504-5.6,7.032-12.616,7.032-20c0-0.6-0.12-1.176-0.152-1.768c11.512,12.624,25.008,23.4,40.152,31.584V392h-41.128
			C125.736,387.624,123.792,383.52,120.968,380z M240,462.672L148.88,408H176c4.424,0,8-3.576,8-8v-42.8
			c0.424,0.168,0.856,0.28,1.28,0.44c3.896,1.512,7.84,2.912,11.88,4.104c0.952,0.28,1.928,0.48,2.888,0.744
			c3.672,1,7.36,1.952,11.136,2.68c1.192,0.232,2.408,0.352,3.6,0.552c3.584,0.6,7.16,1.192,10.824,1.544
			c1.12,0.104,2.24,0.088,3.36,0.168C232.624,367.704,236.272,368,240,368c3.728,0,7.376-0.296,11.04-0.56
			c1.12-0.08,2.24-0.064,3.36-0.168c3.664-0.344,7.24-0.936,10.824-1.544c1.2-0.2,2.408-0.32,3.6-0.552
			c3.776-0.728,7.464-1.68,11.136-2.68c0.96-0.264,1.928-0.464,2.888-0.744c4.04-1.192,7.984-2.592,11.88-4.104
			c0.424-0.168,0.856-0.272,1.28-0.44V400c0,4.424,3.576,8,8,8h27.12L240,462.672z M359.032,380c-2.824,3.52-4.768,7.624-5.896,12
			H312v-42.184c15.144-8.184,28.64-18.96,40.152-31.584C352.12,318.824,352,319.4,352,320c0,7.384,2.528,14.4,7.032,20
			c-4.504,5.6-7.032,12.616-7.032,20C352,367.384,354.528,374.4,359.032,380z M356.68,285.512
			c-13.472,22.52-33.216,40.792-56.864,52.44c-4.312,2.12-8.704,3.992-13.16,5.632c-0.488,0.184-0.984,0.368-1.472,0.544
			c-4.456,1.576-8.968,2.904-13.52,4.008c-0.408,0.096-0.808,0.216-1.216,0.312c-20.04,4.632-40.848,4.632-60.88,0
			c-0.408-0.096-0.808-0.216-1.216-0.312c-4.552-1.096-9.064-2.424-13.52-4.008c-0.496-0.176-0.984-0.36-1.472-0.544
			c-4.456-1.64-8.848-3.504-13.16-5.632c-23.648-11.648-43.392-29.92-56.864-52.44c-4.152-6.952-7.648-14.224-10.48-21.712
			c-0.472-1.248-0.944-2.496-1.376-3.76c-0.72-2.088-1.408-4.192-2.024-6.312c-0.648-2.248-1.224-4.528-1.76-6.816
			c-0.504-2.128-0.952-4.272-1.352-6.416c-0.52-2.84-0.976-5.704-1.32-8.6c-0.152-1.272-0.288-2.552-0.4-3.824
			c-0.368-3.984-0.624-8-0.624-12.072v-46.24l24,4.8V188c0,28.672,23.328,52,52,52s52-23.328,52-52v-12h16v12
			c0,28.672,23.328,52,52,52s52-23.328,52-52v-13.44l24-4.8V216c0,4.072-0.256,8.088-0.608,12.072
			c-0.112,1.28-0.248,2.552-0.4,3.824c-0.336,2.896-0.8,5.76-1.32,8.6c-0.4,2.152-0.848,4.288-1.352,6.416
			c-0.536,2.296-1.104,4.568-1.76,6.816c-0.616,2.12-1.304,4.216-2.024,6.312c-0.432,1.264-0.912,2.512-1.376,3.76
			C364.32,271.288,360.832,278.56,356.68,285.512z M400,464h-32v-16c0-8.824,7.176-16,16-16c8.824,0,16,7.176,16,16V464z
			 M392.816,266.672c4.496,2.976,7.184,7.96,7.184,13.328c0,5.368-2.688,10.352-7.184,13.328c-2.232,1.488-3.576,3.992-3.576,6.672
			s1.344,5.184,3.576,6.672c4.496,2.976,7.184,7.96,7.184,13.328c0,5.368-2.688,10.352-7.184,13.328
			c-2.232,1.488-3.576,3.992-3.576,6.672s1.344,5.184,3.576,6.672c4.496,2.976,7.184,7.96,7.184,13.328
			c0,5.368-2.688,10.352-7.184,13.328c-2.232,1.488-3.576,3.992-3.576,6.672s1.344,5.184,3.576,6.672
			c4.496,2.976,7.184,7.96,7.184,13.328c0,8.824-7.176,16-16,16c-8.824,0-16-7.176-16-16c0-5.368,2.688-10.352,7.184-13.328
			c2.232-1.488,3.576-3.992,3.576-6.672s-1.344-5.184-3.576-6.672C370.688,370.352,368,365.368,368,360
			c0-5.368,2.688-10.352,7.184-13.328c2.232-1.488,3.576-3.992,3.576-6.672s-1.344-5.184-3.576-6.672
			C370.688,330.352,368,325.368,368,320c0-5.368,2.688-10.352,7.184-13.328c2.232-1.488,3.576-3.984,3.576-6.672
			c0-2.68-1.344-5.176-3.576-6.664c-1.096-0.728-2.096-1.6-2.984-2.6c1.144-2.016,2.208-4.072,3.256-6.144
			c0.784-1.536,1.512-3.088,2.24-4.648c1.408-3.024,2.728-6.096,3.944-9.224c0.76-1.944,1.48-3.896,2.152-5.872
			c0.624-1.824,1.264-3.632,1.816-5.488c1.032-3.424,1.896-6.896,2.672-10.384c0.32-1.44,0.632-2.88,0.912-4.336
			c0.768-3.944,1.376-7.92,1.824-11.912c0.104-0.928,0.184-1.864,0.264-2.792c0.12-1.328,0.288-2.648,0.376-3.976
			c4.976,2.72,8.344,7.992,8.344,14.04c0,5.368-2.688,10.352-7.184,13.328c-2.232,1.488-3.576,3.992-3.576,6.672
			S390.584,265.184,392.816,266.672z M400,208h-8v-48h8c13.232,0,24,10.768,24,24S413.232,208,400,208z"/>
	</g>
</g>
<g>
</g>
<g>
</g>
<g>
</g>
<g>
</g>
<g>
</g>
<g>
</g>
<g>
</g>
<g>
</g>
<g>
</g>
<g>
</g>
<g>
</g>
<g>
</g>
<g>
</g>
<g>
</g>
<g>
</g>
</svg>
