<?xml version="1.0" encoding="iso-8859-1"?>
<!-- Generator: Adobe Illustrator 19.0.0, SVG Export Plug-In . SVG Version: 6.00 Build 0)  -->
<svg version="1.1" id="Capa_1" xmlns="http://www.w3.org/2000/svg" xmlns:xlink="http://www.w3.org/1999/xlink" x="0px" y="0px"
	 viewBox="0 0 480 480" style="enable-background:new 0 0 480 480;" xml:space="preserve">
<g>
	<g>
		<circle cx="184" cy="192" r="16"/>
	</g>
</g>
<g>
	<g>
		<circle cx="296" cy="192" r="16"/>
	</g>
</g>
<g>
	<g>
		<path d="M424,384h-24h-32h-32h-24v-17.472c9.288-3.312,16-12.112,16-22.528v-4.168C363.752,314.4,386.544,275.16,391.096,232H400
			c22.056,0,40-17.944,40-40c0-15.568-9.032-28.944-22.048-35.552C431.328,146.208,440,130.112,440,112c0-30.872-25.128-56-56-56
			h-26.408C328.528,20.384,285.928,0,240,0c-45.928,0-88.528,20.384-117.592,56H96c-30.872,0-56,25.128-56,56
			c0,18.112,8.672,34.208,22.048,44.448C49.032,163.056,40,176.432,40,192c0,22.056,17.944,40,40,40h8.904
			c4.552,43.16,27.352,82.392,63.096,107.832V344c0,10.416,6.712,19.216,16,22.528V384h-24h-32H80H56c-30.872,0-56,25.128-56,56v40
			h16v-40c0-22.056,17.944-40,40-40h16v72c0,4.424,3.576,8,8,8h32c4.424,0,8-3.576,8-8v-72h18.584l29.984,74.968
			c0.88,2.2,2.696,3.896,4.944,4.632c2.256,0.736,4.712,0.432,6.728-0.824L240,441.44l59.76,37.344
			c1.288,0.8,2.752,1.216,4.24,1.216c0.832,0,1.672-0.136,2.488-0.4c2.248-0.736,4.064-2.432,4.944-4.632L341.416,400H360v72
			c0,4.424,3.576,8,8,8h32c4.424,0,8-3.576,8-8v-72h16c22.056,0,40,17.944,40,40v40h16v-40C480,409.128,454.872,384,424,384z
			 M104,464H88v-64h16V464z M312,335.72V344c0,4.416-3.584,8-8,8c-0.968,0-1.864-0.24-2.728-0.552
			c-0.28-0.104-0.552-0.232-0.816-0.368c-0.536-0.272-1.016-0.616-1.472-0.992c-0.272-0.232-0.576-0.424-0.816-0.696
			c-0.528-0.576-0.96-1.232-1.304-1.936C296.288,346.312,296,345.144,296,344v-24c0-15.28-6.04-29.552-17.008-40.192
			c-1.344-1.304-2.744-2.528-4.192-3.688c-0.368-0.296-0.76-0.536-1.136-0.824c-1.104-0.84-2.224-1.664-3.376-2.416
			c-0.328-0.216-0.68-0.392-1.016-0.592c-1.248-0.768-2.512-1.52-3.816-2.184c-0.192-0.096-0.392-0.176-0.592-0.272
			c-1.48-0.736-2.992-1.416-4.536-2.016c-0.016-0.008-0.032-0.008-0.048-0.016c-5.104-1.984-10.504-3.192-16.072-3.6
			c-0.288-0.024-0.584-0.024-0.872-0.04c-1.096-0.064-2.192-0.16-3.304-0.16c-0.576,0-1.168,0.008-1.752,0.024
			c-29.928,0.904-54.28,26.912-54.28,57.992V344c0,1.144-0.288,2.312-0.864,3.456c-0.344,0.712-0.776,1.368-1.304,1.936
			c-0.24,0.272-0.544,0.464-0.816,0.696c-0.456,0.376-0.936,0.72-1.472,0.992c-0.264,0.136-0.536,0.264-0.816,0.368
			C177.864,351.76,176.968,352,176,352c-4.416,0-8-3.584-8-8v-8.28v-12.976c0-39.384,29.512-72.144,67.184-74.584
			c20.168-1.344,39.368,5.544,54.04,19.304C303.912,281.224,312,299.88,312,320V335.72z M240,304
			c10.752,0,20.968-3.704,29.656-10.576C276.248,300.768,280,310.032,280,320v24c0,0.584,0.024,1.152,0.064,1.728
			c-0.72,0.224-1.432,0.48-2.152,0.688c-1.728,0.512-3.464,0.976-5.208,1.408c-2.008,0.504-4.024,0.952-6.048,1.36
			c-1.528,0.312-3.056,0.624-4.584,0.88c-2.592,0.432-5.192,0.76-7.8,1.04c-1,0.112-2.008,0.256-3.008,0.344
			c-7.496,0.632-15.032,0.632-22.536,0c-1.008-0.088-2.008-0.232-3.008-0.344c-2.608-0.28-5.208-0.608-7.8-1.04
			c-1.536-0.256-3.064-0.568-4.584-0.88c-2.024-0.408-4.04-0.856-6.048-1.36c-1.744-0.44-3.48-0.904-5.208-1.408
			c-0.72-0.208-1.432-0.464-2.152-0.688c0.048-0.576,0.072-1.144,0.072-1.728v-21.984c0-10.864,4.112-20.808,10.704-28.328
			C219.312,300.376,229.392,304,240,304z M224.32,283.464c4.472-2.04,9.336-3.288,14.448-3.44
			c5.944-0.192,11.712,1.048,17.048,3.352C250.896,286.296,245.56,288,240,288C234.496,288,229.2,286.328,224.32,283.464z M424,192
			c0,13.232-10.768,24-24,24h-8v-16v-32h8C413.232,168,424,178.768,424,192z M360,72h24c22.056,0,40,17.944,40,40
			c0,22.056-17.944,40-40,40c-4.424,0-8,3.576-8,8v32h-16V72z M88,200v16h-8c-13.232,0-24-10.768-24-24s10.768-24,24-24h8V200z
			 M96,152c-22.056,0-40-17.944-40-40c0-22.056,17.944-40,40-40h24v120h-16v-32C104,155.576,100.424,152,96,152z M166.304,273.176
			c-0.664,1.048-1.256,2.136-1.88,3.216c-0.752,1.304-1.512,2.6-2.2,3.944c-0.584,1.136-1.096,2.304-1.632,3.456
			c-0.624,1.352-1.256,2.704-1.816,4.088c-0.488,1.208-0.912,2.448-1.352,3.68c-0.496,1.4-1,2.792-1.432,4.224
			c-0.384,1.272-0.704,2.568-1.032,3.864c-0.368,1.448-0.736,2.888-1.04,4.368c-0.272,1.32-0.472,2.664-0.688,4.008
			c-0.24,1.488-0.472,2.976-0.64,4.488c-0.152,1.36-0.232,2.736-0.32,4.12c-0.064,1.024-0.208,2.032-0.24,3.064
			C121.72,293.992,104,256.248,104,216v-8h24c4.424,0,8-3.576,8-8V64.576C161.968,33.632,199.56,16,240,16s78.032,17.632,104,48.576
			V200c0,4.424,3.576,8,8,8h24v8c0,40.224-17.696,77.952-48,103.672c-0.008-1.584-0.168-3.152-0.264-4.728
			c-0.08-1.376-0.088-2.752-0.232-4.12c-0.168-1.568-0.48-3.104-0.728-4.656c-0.224-1.408-0.384-2.832-0.672-4.224
			c-0.312-1.48-0.768-2.92-1.152-4.376c-0.376-1.424-0.688-2.864-1.136-4.272c-0.456-1.416-1.04-2.792-1.568-4.184
			c-0.52-1.392-0.984-2.816-1.576-4.176c-0.584-1.352-1.304-2.64-1.96-3.96c-0.664-1.352-1.272-2.728-2.008-4.04
			c-0.736-1.32-1.608-2.56-2.416-3.848c-0.784-1.24-1.504-2.52-2.344-3.728c-0.952-1.36-2.04-2.624-3.072-3.936
			c-0.824-1.04-1.584-2.136-2.456-3.144c-1.968-2.264-4.048-4.44-6.256-6.504c-17.928-16.816-41.376-25.168-66.016-23.6
			c-2.856,0.184-5.672,0.52-8.448,0.976c-0.64,0.104-1.248,0.288-1.888,0.408c-2.12,0.4-4.232,0.824-6.296,1.376
			c-0.76,0.208-1.488,0.488-2.248,0.72c-1.896,0.568-3.792,1.136-5.624,1.832c-0.824,0.312-1.6,0.696-2.408,1.032
			c-1.72,0.712-3.448,1.416-5.112,2.232c-0.856,0.416-1.656,0.912-2.496,1.36c-1.568,0.832-3.136,1.664-4.64,2.592
			c-0.856,0.528-1.664,1.128-2.504,1.688c-1.416,0.944-2.848,1.872-4.208,2.896c-0.856,0.64-1.656,1.352-2.48,2.024
			c-1.28,1.032-2.568,2.056-3.784,3.16c-0.824,0.744-1.584,1.552-2.384,2.328c-1.144,1.12-2.304,2.232-3.392,3.408
			c-0.784,0.848-1.504,1.752-2.248,2.632c-1.016,1.192-2.04,2.368-2.992,3.616c-0.728,0.952-1.392,1.952-2.088,2.928
			C168.024,270.632,167.128,271.88,166.304,273.176z M179.872,460.152L155.816,400h17.848l50.68,32.352L179.872,460.152z
			 M239.992,422.568l-56-34.992V366.64c0.208-0.072,0.384-0.208,0.584-0.288c1.24-0.48,2.392-1.08,3.512-1.736
			c0.36-0.208,0.744-0.36,1.088-0.592c1.48-0.976,2.832-2.12,4.064-3.392c0.024-0.032,0.064-0.048,0.088-0.08
			c1.608,0.528,3.24,0.912,4.864,1.376c1.248,0.36,2.488,0.728,3.736,1.056c2.904,0.76,5.824,1.4,8.76,1.984
			c1.352,0.272,2.696,0.576,4.056,0.808c2.664,0.456,5.344,0.776,8.032,1.088c1.624,0.192,3.24,0.44,4.864,0.576
			c2.512,0.208,5.024,0.256,7.544,0.336c1.608,0.056,3.208,0.224,4.816,0.224c1.608,0,3.208-0.168,4.816-0.216
			c2.52-0.08,5.032-0.136,7.544-0.336c1.624-0.136,3.24-0.384,4.864-0.576c2.68-0.312,5.36-0.632,8.032-1.088
			c1.352-0.232,2.704-0.536,4.056-0.808c2.936-0.584,5.856-1.224,8.76-1.984c1.248-0.328,2.496-0.696,3.736-1.056
			c1.616-0.472,3.256-0.856,4.864-1.376c0.024,0.032,0.064,0.048,0.088,0.08c1.232,1.272,2.584,2.416,4.064,3.392
			c0.344,0.232,0.736,0.384,1.088,0.592c1.12,0.656,2.272,1.256,3.496,1.728c0.208,0.08,0.376,0.216,0.584,0.288v20.936
			L239.992,422.568z M300.128,460.152l-44.472-27.8L306.336,400h17.848L300.128,460.152z M392,464h-16v-64h16V464z"/>
	</g>
</g>
<g>
</g>
<g>
</g>
<g>
</g>
<g>
</g>
<g>
</g>
<g>
</g>
<g>
</g>
<g>
</g>
<g>
</g>
<g>
</g>
<g>
</g>
<g>
</g>
<g>
</g>
<g>
</g>
<g>
</g>
</svg>
