<?xml version="1.0" encoding="iso-8859-1"?>
<!-- Generator: Adobe Illustrator 19.0.0, SVG Export Plug-In . SVG Version: 6.00 Build 0)  -->
<svg version="1.1" id="Capa_1" xmlns="http://www.w3.org/2000/svg" xmlns:xlink="http://www.w3.org/1999/xlink" x="0px" y="0px"
	 viewBox="0 0 480 480" style="enable-background:new 0 0 480 480;" xml:space="preserve">
<g>
	<g>
		<circle cx="184.001" cy="192" r="16"/>
	</g>
</g>
<g>
	<g>
		<circle cx="296.001" cy="192" r="16"/>
	</g>
</g>
<g>
	<g>
		<path d="M479.713,469.872l-87.712-318.968C391.409,67.592,323.457,0,240.001,0s-151.408,67.592-152,150.904L0.289,469.872
			c-0.664,2.416-0.168,4.992,1.352,6.976C3.153,478.832,5.505,480,8.001,480h464c2.496,0,4.848-1.168,6.36-3.152
			C479.873,474.864,480.377,472.288,479.713,469.872z M18.497,464l85.216-309.872c0.192-0.696,0.288-1.408,0.288-2.128
			c0-74.992,61.008-136,136-136s136,61.008,136,136c0,0.72,0.096,1.432,0.288,2.128L461.505,464H18.497z"/>
	</g>
</g>
<g>
	<g>
		<path d="M352.001,144h-224c-4.424,0-8,3.576-8,8c0,52.936,43.064,96,96,96h48c52.936,0,96-43.064,96-96
			C360.001,147.576,356.425,144,352.001,144z M264.001,232h-48c-41.416,0-75.576-31.632-79.6-72h207.2
			C339.577,200.368,305.417,232,264.001,232z"/>
	</g>
</g>
<g>
</g>
<g>
</g>
<g>
</g>
<g>
</g>
<g>
</g>
<g>
</g>
<g>
</g>
<g>
</g>
<g>
</g>
<g>
</g>
<g>
</g>
<g>
</g>
<g>
</g>
<g>
</g>
<g>
</g>
</svg>
