<?xml version="1.0" encoding="iso-8859-1"?>
<!-- Generator: Adobe Illustrator 19.0.0, SVG Export Plug-In . SVG Version: 6.00 Build 0)  -->
<svg version="1.1" id="Capa_1" xmlns="http://www.w3.org/2000/svg" xmlns:xlink="http://www.w3.org/1999/xlink" x="0px" y="0px"
	 viewBox="0 0 480 480" style="enable-background:new 0 0 480 480;" xml:space="preserve">
<g>
	<g>
		<path d="M424,400H312v-8v-42.184c43.136-23.304,73.784-66.84,79.144-117.816H400c22.056,0,40-17.944,40-40
			c0-22.056-17.944-40-40-40h-8C392,68.184,323.816,0,240,0S88,68.184,88,152h-8c-22.056,0-40,17.944-40,40
			c0,22.056,17.944,40,40,40h8.856c5.36,50.976,36.008,94.512,79.144,117.816V392v8H56c-30.88,0-56,25.12-56,56v24h16v-24
			c0-22.056,17.944-40,40-40h120c4.416,0,8-3.584,8-8v-8h112v8c0,4.416,3.584,8,8,8h120c22.056,0,40,17.944,40,40v24h16v-24
			C480,425.12,454.88,400,424,400z M392,168h8c13.232,0,24,10.768,24,24s-10.768,24-24,24h-8V168z M88,216h-8
			c-13.232,0-24-10.768-24-24s10.768-24,24-24h8V216z M104,152c0-74.992,61.008-136,136-136s136,61.008,136,136v6.528
			c-9.288-3.312-16-12.112-16-22.528c0-26.472-21.528-48-48-48c-0.584,0-1.168,0.064-1.736,0.192L240,103.808l-70.264-15.616
			C169.168,88.064,168.584,88,168,88c-26.472,0-48,21.528-48,48c0,10.416-6.712,19.216-16,22.528V152z M296,144
			c-23.736,0-43.448,17.336-47.28,40h-17.44c-3.824-22.664-23.536-40-47.28-40c-22.272,0-40.984,15.264-46.384,35.864
			l-20.288-10.144C128.512,162.616,136,150.2,136,136c0-17.368,13.904-31.544,31.168-31.992l71.096,15.8
			c1.144,0.256,2.328,0.256,3.472,0l71.096-15.8C330.096,104.456,344,118.632,344,136c0,14.2,7.488,26.616,18.68,33.72
			l-20.296,10.144C336.984,159.264,318.272,144,296,144z M328,192c0,17.648-14.352,32-32,32s-32-14.352-32-32s14.352-32,32-32
			S328,174.352,328,192z M216,192c0,17.648-14.352,32-32,32s-32-14.352-32-32s14.352-32,32-32S216,174.352,216,192z M104,180.944
			l32.272,16.136C138.824,221.168,159.248,240,184,240c23.736,0,43.448-17.336,47.28-40h17.448c3.824,22.664,23.536,40,47.28,40
			c24.752,0,45.176-18.832,47.728-42.92L376,180.944V216c-22.056,0-40,17.944-40,40c0,13.232-10.768,24-24,24h-16.808
			c-3.712-18.232-19.88-32-39.192-32h-32c-19.32,0-35.48,13.768-39.192,32H168c-13.232,0-24-10.768-24-24c0-22.056-17.944-40-40-40
			V180.944z M296.008,384H184v-26.8c0.424,0.168,0.856,0.28,1.28,0.44c3.896,1.512,7.84,2.912,11.88,4.104
			c0.952,0.28,1.928,0.48,2.888,0.744c3.672,1,7.36,1.952,11.136,2.68c1.192,0.232,2.408,0.352,3.6,0.552
			c3.584,0.6,7.16,1.192,10.824,1.544c1.12,0.104,2.24,0.088,3.36,0.168C232.624,367.704,236.272,368,240,368
			c3.728,0,7.376-0.296,11.04-0.56c1.12-0.08,2.24-0.064,3.36-0.168c3.664-0.344,7.24-0.936,10.824-1.544
			c1.2-0.2,2.408-0.32,3.6-0.552c3.776-0.728,7.464-1.68,11.136-2.68c0.96-0.264,1.928-0.464,2.888-0.744
			c4.04-1.192,7.984-2.592,11.88-4.104c0.424-0.168,0.856-0.272,1.28-0.44V384z M299.68,338.016
			c-4.264,2.088-8.608,3.936-13.008,5.56c-0.504,0.184-1,0.376-1.512,0.552c-4.464,1.584-8.992,2.912-13.56,4.016
			c-0.384,0.088-0.752,0.208-1.136,0.296c-20.056,4.64-40.872,4.64-60.928,0c-0.384-0.088-0.752-0.2-1.136-0.296
			c-4.568-1.096-9.096-2.432-13.56-4.016c-0.504-0.176-1.008-0.368-1.512-0.552c-4.4-1.616-8.744-3.464-13.008-5.56
			c-40.52-19.896-69.736-59.264-75.28-105.912C117.784,232.664,128,243.12,128,256c0,22.056,17.944,40,40,40h24c4.416,0,8-3.584,8-8
			c0-13.232,10.768-24,24-24h32c13.232,0,24,10.768,24,24c0,4.416,3.584,8,8,8h24c22.056,0,40-17.944,40-40
			c0-12.88,10.216-23.336,22.96-23.896C369.424,278.744,340.2,318.12,299.68,338.016z"/>
	</g>
</g>
<g>
</g>
<g>
</g>
<g>
</g>
<g>
</g>
<g>
</g>
<g>
</g>
<g>
</g>
<g>
</g>
<g>
</g>
<g>
</g>
<g>
</g>
<g>
</g>
<g>
</g>
<g>
</g>
<g>
</g>
</svg>
