<?xml version="1.0" encoding="iso-8859-1"?>
<!-- Generator: Adobe Illustrator 19.0.0, SVG Export Plug-In . SVG Version: 6.00 Build 0)  -->
<svg version="1.1" id="Capa_1" xmlns="http://www.w3.org/2000/svg" xmlns:xlink="http://www.w3.org/1999/xlink" x="0px" y="0px"
	 viewBox="0 0 480 480" style="enable-background:new 0 0 480 480;" xml:space="preserve">
<g>
	<g>
		<path d="M424,392H312v-42.184c45.36-24.504,76.744-71.44,79.592-125.816H400c22.056,0,40-17.944,40-40c0-22.056-17.944-40-40-40
			h-8.408C387.392,63.912,321.112,0,240,0S92.608,63.912,88.408,144H80c-22.056,0-40,17.944-40,40c0,22.056,17.944,40,40,40h8.408
			C91.256,278.376,122.64,325.312,168,349.816V392H56c-30.88,0-56,25.128-56,56v32h16v-32c0-22.056,17.944-40,40-40h118.112
			l62.312,31.16c1.12,0.56,2.352,0.84,3.576,0.84s2.456-0.28,3.576-0.84L305.888,408H424c22.056,0,40,17.944,40,40v32h16v-32
			C480,417.128,454.88,392,424,392z M392,160h8c13.232,0,24,10.768,24,24s-10.768,24-24,24h-8V160z M88,208h-8
			c-13.232,0-24-10.768-24-24s10.768-24,24-24h8V208z M375.592,143.864c-65.568-1.336-107.896-17.872-111.248-30.288
			c5.544-3.84,10.736-7.864,15.56-12.064c17.696,13.64,61.616,18.096,92.128,18.44C373.912,127.688,375.104,135.672,375.592,143.864
			z M318.2,40.92c9.064,6.392,17.296,13.872,24.536,22.232c-15.032-1.464-24.984-4.576-29.104-7.04
			C315.616,51.144,317.144,46.08,318.2,40.92z M355.12,79.928c4.736,7.528,8.728,15.536,11.928,23.96
			c-40.168-0.92-66.592-7.888-75.728-13.424c5.928-6.392,11.056-13.088,15.24-20.072C320.272,78,343.776,79.616,355.12,79.928z
			 M240,16c4.208,0,8.352,0.256,12.464,0.632c-11.256,14.528-49.376,28.256-99.376,30.872C176.672,27.856,206.976,16,240,16z
			 M136.504,63.992c58.56-0.088,120.104-15.672,132.936-44.688c3.376,0.752,6.728,1.584,10.008,2.576
			c-6.568,38.896-77.504,71.048-163.128,73.888C121.584,84.232,128.368,73.536,136.504,63.992z M110.04,111.928
			c96.984-1.432,173.736-37.168,184.592-84.384c3.016,1.328,5.984,2.744,8.88,4.28c-6.84,60.936-92.816,109.6-199.104,112.056
			C105.064,132.84,106.888,122.112,110.04,111.928z M104,159.88c56.8-1.216,108.248-15.328,146.696-37.656
			C263.2,145.952,318.872,158.784,376,159.88V216c-22.056,0-40,17.944-40,40c0,13.232-10.768,24-24,24h-16.808
			c-3.712-18.232-19.88-32-39.192-32h-32c-19.32,0-35.48,13.768-39.192,32H168c-13.232,0-24-10.768-24-24c0-22.056-17.944-40-40-40
			V159.88z M296.008,395.056l-56.008,28l-56-28V357.2c0.424,0.168,0.856,0.28,1.28,0.44c3.896,1.512,7.84,2.912,11.88,4.104
			c0.952,0.28,1.928,0.48,2.888,0.744c3.672,1,7.36,1.952,11.136,2.68c1.192,0.232,2.408,0.352,3.6,0.552
			c3.584,0.6,7.16,1.192,10.824,1.544c1.12,0.104,2.24,0.088,3.36,0.168C232.624,367.704,236.272,368,240,368
			c3.728,0,7.376-0.296,11.04-0.56c1.12-0.08,2.24-0.064,3.36-0.168c3.664-0.344,7.24-0.936,10.824-1.544
			c1.2-0.2,2.408-0.32,3.6-0.552c3.776-0.728,7.464-1.68,11.136-2.68c0.96-0.264,1.928-0.464,2.888-0.744
			c4.04-1.192,7.984-2.592,11.88-4.104c0.424-0.168,0.856-0.272,1.28-0.44V395.056z M299.848,337.936
			c-4.328,2.128-8.744,4.008-13.216,5.648c-0.48,0.176-0.952,0.36-1.44,0.528c-4.464,1.584-8.984,2.912-13.552,4.016
			c-0.4,0.096-0.792,0.216-1.192,0.304c-20.04,4.632-40.856,4.632-60.896,0c-0.4-0.088-0.784-0.208-1.184-0.304
			c-4.568-1.096-9.096-2.432-13.56-4.016c-0.48-0.168-0.96-0.352-1.44-0.528c-4.472-1.64-8.888-3.52-13.216-5.648
			c-40.432-19.92-69.576-59.248-75.112-105.832C117.784,232.664,128,243.12,128,256c0,22.056,17.944,40,40,40h24
			c4.416,0,8-3.576,8-8c0-13.232,10.768-24,24-24h32c13.232,0,24,10.768,24,24c0,4.424,3.584,8,8,8h24c22.056,0,40-17.944,40-40
			c0-12.88,10.216-23.336,22.96-23.896C369.432,278.68,340.28,318.016,299.848,337.936z"/>
	</g>
</g>
<g>
	<g>
		<circle cx="184" cy="184" r="16"/>
	</g>
</g>
<g>
	<g>
		<circle cx="296" cy="184" r="16"/>
	</g>
</g>
<g>
</g>
<g>
</g>
<g>
</g>
<g>
</g>
<g>
</g>
<g>
</g>
<g>
</g>
<g>
</g>
<g>
</g>
<g>
</g>
<g>
</g>
<g>
</g>
<g>
</g>
<g>
</g>
<g>
</g>
</svg>
