<?xml version="1.0" encoding="iso-8859-1"?>
<!-- Generator: Adobe Illustrator 19.0.0, SVG Export Plug-In . SVG Version: 6.00 Build 0)  -->
<svg version="1.1" id="Capa_1" xmlns="http://www.w3.org/2000/svg" xmlns:xlink="http://www.w3.org/1999/xlink" x="0px" y="0px"
	 viewBox="0 0 480 480" style="enable-background:new 0 0 480 480;" xml:space="preserve">
<g>
	<g>
		<circle cx="184" cy="192" r="16"/>
	</g>
</g>
<g>
	<g>
		<circle cx="296" cy="192" r="16"/>
	</g>
</g>
<g>
	<g>
		<path d="M424,384h-72h-40v-34.184c43.136-23.304,73.784-66.84,79.144-117.816H400c22.056,0,40-17.944,40-40
			c0-22.056-17.944-40-40-40h-8c0-26.128-6.632-50.736-18.296-72.232C374.48,79.816,375.216,80,376,80c22.056,0,40-17.944,40-40
			c0-22.056-17.944-40-40-40c-20.232,0-36.832,15.16-39.464,34.68C310.264,13.024,276.624,0,240,0C156.184,0,88,68.184,88,152h-8
			c-22.056,0-40,17.944-40,40c0,22.056,17.944,40,40,40h8.856c5.36,50.976,36.008,94.512,79.144,117.816V384h-40H56
			c-30.872,0-56,25.12-56,56v40h16v-16h24v16h16v-16h32v16h16v-16h32v16h16v-16h32v16h16v-16h32v16h16v-16h32v16h16v-16h32v16h16
			v-16h32v16h16v-16h32v16h16v-16h24v16h16v-40C480,409.12,454.872,384,424,384z M392,168h8c13.232,0,24,10.768,24,24
			s-10.768,24-24,24h-8V168z M88,216h-8c-13.232,0-24-10.768-24-24s10.768-24,24-24h8V216z M40,448H16v-8
			c0-2.736,0.28-5.416,0.808-8H40V448z M40,416H24.208c4.104-5.432,9.48-9.84,15.792-12.608V416z M88,448H56v-16h32V448z M88,416H56
			v-16h32V416z M136,448h-32v-16h32V448z M136,416h-32v-16h21.192L136,408.648V416z M376,16c13.232,0,24,10.768,24,24
			s-10.768,24-24,24s-24-10.768-24-24S362.768,16,376,16z M104,152c0-74.992,61.008-136,136-136s136,61.008,136,136v1.056
			l-32-21.336V96c0-4.416-3.576-8-8-8H144c-4.424,0-8,3.584-8,8v35.72l-32,21.336V152z M104,172.28l44.44-29.624
			c2.224-1.488,3.56-3.984,3.56-6.656v-32h176v32c0,2.672,1.336,5.168,3.56,6.656L376,172.28V216c-22.056,0-40,17.944-40,40
			c0,13.232-10.768,24-24,24h-16.808c-3.72-18.232-19.872-32-39.192-32h-32c-19.32,0-35.48,13.768-39.192,32H168
			c-13.232,0-24-10.768-24-24c0-22.056-17.944-40-40-40V172.28z M105.04,232.104C117.784,232.664,128,243.12,128,256
			c0,22.056,17.944,40,40,40h24c4.424,0,8-3.584,8-8c0-13.232,10.768-24,24-24h32c13.232,0,24,10.768,24,24c0,4.416,3.576,8,8,8h24
			c22.056,0,40-17.944,40-40c0-12.88,10.216-23.336,22.96-23.896c-5.536,46.64-34.76,86.016-75.28,105.912
			c-4.256,2.088-8.584,3.928-12.984,5.544c-0.52,0.192-1.032,0.384-1.552,0.568c-4.448,1.576-8.96,2.904-13.504,4
			c-0.392,0.096-0.784,0.216-1.184,0.304c-20.048,4.632-40.864,4.632-60.904,0c-0.4-0.088-0.784-0.208-1.184-0.304
			c-4.552-1.096-9.056-2.424-13.504-4c-0.52-0.184-1.032-0.376-1.552-0.568c-4.392-1.616-8.728-3.464-12.984-5.544
			C139.8,318.12,110.584,278.752,105.04,232.104z M295.992,357.2v29.848l-56,28l-56-28V357.2c0.48,0.192,0.976,0.312,1.448,0.504
			c3.848,1.488,7.728,2.872,11.704,4.04c0.984,0.288,1.984,0.496,2.968,0.768c3.648,0.992,7.32,1.944,11.072,2.664
			c1.168,0.224,2.36,0.344,3.536,0.544c3.608,0.608,7.216,1.208,10.904,1.552c0.968,0.088,1.936,0.072,2.896,0.144
			c3.8,0.288,7.608,0.584,11.48,0.584s7.68-0.296,11.48-0.584c0.968-0.072,1.936-0.056,2.896-0.144
			c3.688-0.344,7.296-0.944,10.904-1.552c1.176-0.2,2.36-0.312,3.536-0.544c3.752-0.728,7.416-1.672,11.072-2.664
			c0.984-0.272,1.984-0.472,2.968-0.768c3.976-1.168,7.856-2.552,11.688-4.04C295.024,357.52,295.52,357.392,295.992,357.2z
			 M184,448h-32v-16h13.192L184,447.048V448z M207.408,445.28L152,400.96V400h22.112l52.384,26.192L207.408,445.28z M227.312,448
			L240,435.312L252.688,448H227.312z M328,448h-32v-0.952L314.808,432H328V448z M328,400.96l-55.408,44.32l-19.088-19.088
			L305.888,400H328V400.96z M376,448h-32v-16h32V448z M376,416h-32v-7.352L354.808,400H376V416z M424,448h-32v-16h32V448z M424,416
			h-32v-16h32V416z M440,403.392c6.312,2.768,11.688,7.176,15.792,12.608H440V403.392z M464,448h-24v-16h23.192
			c0.528,2.584,0.808,5.264,0.808,8V448z"/>
	</g>
</g>
<g>
</g>
<g>
</g>
<g>
</g>
<g>
</g>
<g>
</g>
<g>
</g>
<g>
</g>
<g>
</g>
<g>
</g>
<g>
</g>
<g>
</g>
<g>
</g>
<g>
</g>
<g>
</g>
<g>
</g>
</svg>
