<?xml version="1.0" encoding="iso-8859-1"?>
<!-- Generator: Adobe Illustrator 19.0.0, SVG Export Plug-In . SVG Version: 6.00 Build 0)  -->
<svg version="1.1" id="Capa_1" xmlns="http://www.w3.org/2000/svg" xmlns:xlink="http://www.w3.org/1999/xlink" x="0px" y="0px"
	 viewBox="0 0 480 480" style="enable-background:new 0 0 480 480;" xml:space="preserve">
<g>
	<g>
		<path d="M424,383.76H312v-34.184c43.136-23.304,73.784-66.84,79.144-117.816H400c22.056,0,40-17.944,40-40
			c0-22.056-17.944-40-40-40h-8c0-74.992-61.008-136-136-136H128c-6.664,0-12.512-4.064-14.904-10.36
			c-1.32-3.48-4.84-5.56-8.536-5.096c-14.672,1.952-28.232,9.856-37.208,21.68C58.28,33.936,54.456,48.8,56.568,63.848
			c2.952,20.952,18.104,37.912,37.96,44.696C90.28,122.728,88,137.216,88,151.76h-8c-22.056,0-40,17.944-40,40
			c0,22.056,17.944,40,40,40h8.856c5.36,50.976,36.008,94.512,79.144,117.816v34.184H56c-30.88,0-56,25.12-56,56v40h16v-40
			c0-22.056,17.944-40,40-40h117.704l62.056,38.784c1.296,0.808,2.768,1.216,4.24,1.216s2.944-0.408,4.24-1.216l62.056-38.784H424
			c22.056,0,40,17.944,40,40v40h16v-40C480,408.88,454.88,383.76,424,383.76z M392,167.76h8c13.232,0,24,10.768,24,24
			s-10.768,24-24,24h-8V167.76z M88,215.76h-8c-13.232,0-24-10.768-24-24s10.768-24,24-24h8V215.76z M72.416,61.616
			c-1.52-10.792,1.208-21.432,7.68-29.96c5.392-7.096,12.784-12.096,21.2-14.408C107.128,26.136,117.168,31.76,128,31.76h128
			c65.904,0,119.56,53.392,119.992,119.192c-0.008,0-0.016,0-0.024,0c-0.112-0.024-0.216-0.072-0.336-0.096
			c-2.336-0.496-4.592-1.216-6.752-2.104c-0.744-0.304-1.424-0.72-2.152-1.064c-1.48-0.712-2.944-1.456-4.312-2.344
			c-0.776-0.504-1.496-1.08-2.24-1.632c-1.2-0.896-2.376-1.84-3.472-2.864c-0.704-0.656-1.368-1.352-2.016-2.064
			c-1-1.08-1.928-2.216-2.808-3.4c-0.576-0.776-1.136-1.56-1.656-2.384c-0.8-1.272-1.496-2.608-2.16-3.968
			c-0.408-0.84-0.84-1.672-1.192-2.544c-0.608-1.536-1.064-3.144-1.48-4.768c-0.208-0.792-0.48-1.552-0.64-2.36
			c-0.464-2.464-0.752-5-0.752-7.6v-8c0-4.416-3.584-8-8-8H113.688c-2.504,0-5.064-0.232-7.608-0.688
			c-0.032-0.008-0.056,0.008-0.088,0C88.664,91.976,74.808,78.624,72.416,61.616z M296.008,387.328l-56,35l-56-35V356.96
			c0.424,0.168,0.856,0.28,1.28,0.44c3.888,1.52,7.832,2.92,11.872,4.112c0.952,0.28,1.928,0.48,2.888,0.744
			c3.672,1,7.36,1.952,11.136,2.68c1.192,0.232,2.408,0.352,3.6,0.552c3.584,0.6,7.16,1.192,10.824,1.544
			c1.12,0.104,2.24,0.088,3.36,0.168c3.656,0.264,7.304,0.56,11.032,0.56c3.728,0,7.376-0.296,11.04-0.56
			c1.12-0.08,2.24-0.064,3.36-0.168c3.664-0.344,7.24-0.936,10.824-1.544c1.2-0.2,2.408-0.32,3.6-0.552
			c3.776-0.728,7.464-1.68,11.136-2.68c0.96-0.264,1.928-0.464,2.888-0.744c4.04-1.192,7.984-2.592,11.88-4.104
			c0.424-0.168,0.856-0.272,1.28-0.44V387.328z M299.68,337.784c-4.264,2.088-8.608,3.936-13.008,5.56
			c-0.504,0.184-1,0.376-1.512,0.552c-4.464,1.584-8.992,2.912-13.56,4.016c-0.384,0.088-0.752,0.208-1.136,0.296
			c-20.056,4.64-40.872,4.64-60.928,0c-0.384-0.088-0.752-0.2-1.136-0.296c-4.568-1.096-9.096-2.432-13.56-4.016
			c-0.504-0.176-1.008-0.368-1.512-0.552c-4.4-1.616-8.744-3.464-13.008-5.56C135.208,315.624,104,269.328,104,215.76v-56v-8
			c0-13.488,2.08-26.944,6.176-40.112c1.176,0.08,2.344,0.112,3.512,0.112H328c0,1.848,0.104,3.68,0.28,5.48
			c0.056,0.6,0.168,1.184,0.248,1.776c0.152,1.192,0.312,2.392,0.544,3.56c0.136,0.696,0.32,1.368,0.48,2.056
			c0.248,1.048,0.496,2.088,0.8,3.104c0.208,0.712,0.456,1.4,0.696,2.104c0.328,0.968,0.672,1.92,1.048,2.864
			c0.28,0.704,0.592,1.384,0.904,2.072c0.408,0.904,0.832,1.792,1.288,2.664c0.352,0.68,0.712,1.344,1.096,2
			c0.488,0.848,0.992,1.688,1.52,2.504c0.408,0.632,0.816,1.264,1.248,1.88c0.568,0.808,1.16,1.592,1.768,2.368
			c0.456,0.584,0.904,1.168,1.384,1.728c0.656,0.768,1.344,1.504,2.032,2.24c0.488,0.52,0.968,1.048,1.472,1.544
			c0.76,0.752,1.568,1.448,2.368,2.16c0.488,0.432,0.96,0.88,1.464,1.288c1,0.816,2.048,1.576,3.112,2.328
			c0.352,0.248,0.672,0.52,1.032,0.76c1.424,0.96,2.888,1.848,4.4,2.672c0.456,0.248,0.944,0.456,1.408,0.696
			c1.08,0.552,2.16,1.096,3.28,1.584c0.616,0.264,1.256,0.488,1.888,0.728c1,0.392,2,0.776,3.024,1.112
			c0.704,0.224,1.416,0.408,2.128,0.608c0.992,0.28,1.976,0.544,2.992,0.768c0.752,0.168,1.512,0.296,2.28,0.432
			c0.608,0.104,1.2,0.256,1.816,0.344v48.576C376,269.328,344.792,315.624,299.68,337.784z"/>
	</g>
</g>
<g>
	<g>
		<circle cx="184" cy="191.76" r="16"/>
	</g>
</g>
<g>
	<g>
		<circle cx="296" cy="191.76" r="16"/>
	</g>
</g>
<g>
</g>
<g>
</g>
<g>
</g>
<g>
</g>
<g>
</g>
<g>
</g>
<g>
</g>
<g>
</g>
<g>
</g>
<g>
</g>
<g>
</g>
<g>
</g>
<g>
</g>
<g>
</g>
<g>
</g>
</svg>
