<?xml version="1.0" encoding="iso-8859-1"?>
<!-- Generator: Adobe Illustrator 19.0.0, SVG Export Plug-In . SVG Version: 6.00 Build 0)  -->
<svg version="1.1" id="Capa_1" xmlns="http://www.w3.org/2000/svg" xmlns:xlink="http://www.w3.org/1999/xlink" x="0px" y="0px"
	 viewBox="0 0 482.296 482.296" style="enable-background:new 0 0 482.296 482.296;" xml:space="preserve">
<g>
	<g>
		<circle cx="185.148" cy="192" r="16"/>
	</g>
</g>
<g>
	<g>
		<circle cx="297.148" cy="192" r="16"/>
	</g>
</g>
<g>
	<g>
		<path d="M425.148,392h-8V176c0-97.048-78.952-176-176-176s-176,78.952-176,176v216h-8c-30.88,0-56,25.12-56,56v32h16v-32
			c0-22.056,17.944-40,40-40h16h42.048l22.288,74.296l15.328-4.592l-18.064-60.216l102.28,61.368c2.536,1.52,5.696,1.52,8.232,0
			l102.288-61.368l-18.064,60.216l15.328,4.592L367.1,408h42.048h16c22.056,0,40,17.944,40,40v32h16v-32
			C481.148,417.12,456.028,392,425.148,392z M241.148,462.672L150.028,408h27.12c4.416,0,8-3.584,8-8v-45.28
			c16.512,8.232,34.928,13.072,54.44,13.272l1.56,0.008l1.584-0.008c19.504-0.2,37.912-5.04,54.416-13.264V400c0,4.416,3.584,8,8,8
			h27.12L241.148,462.672z M129.148,238.04v-42.208c0-25.152,13.96-48.216,36.432-60.192c2.664-1.424,5.384-2.656,8.136-3.688
			c0.016-0.008,0.04-0.008,0.056-0.016c2.592-0.976,5.216-1.752,7.856-2.384c0.768-0.184,1.544-0.28,2.312-0.432
			c1.896-0.376,3.792-0.72,5.696-0.928c1.048-0.112,2.096-0.136,3.144-0.192c1.568-0.088,3.136-0.152,4.704-0.12
			c1.8,0.04,3.592,0.208,5.384,0.4c1.12,0.12,2.248,0.192,3.36,0.376c2.032,0.336,4.04,0.84,6.032,1.384
			c0.856,0.232,1.728,0.384,2.568,0.656c2.608,0.824,5.168,1.848,7.68,3.024c0.224,0.104,0.464,0.168,0.688,0.28
			c2.768,1.336,5.456,2.904,8.072,4.672c1.664,1.136,3.296,2.32,4.872,3.576c2.92,2.352,7.096,2.352,10.016,0
			c1.576-1.264,3.2-2.448,4.856-3.576c1.592-1.08,3.256-1.96,4.904-2.88c0.904-0.504,1.768-1.096,2.688-1.552
			c1.8-0.896,3.664-1.584,5.52-2.296c0.808-0.312,1.592-0.712,2.408-0.984c1.832-0.608,3.704-1.024,5.568-1.456
			c0.888-0.208,1.76-0.512,2.664-0.68c1.632-0.304,3.288-0.416,4.936-0.584c1.168-0.12,2.328-0.336,3.504-0.392
			c1.2-0.056,2.416,0.056,3.616,0.072c1.64,0.024,3.28-0.024,4.92,0.128c0.536,0.048,1.072,0.192,1.608,0.256
			c7.936,0.944,15.848,3.32,23.368,7.336c22.472,11.976,36.432,35.04,36.432,60.192v42.216c0,62.208-49.608,113.328-110.56,113.952
			h-1.44l-1.416-0.008C178.756,351.368,129.148,300.248,129.148,238.04z M401.148,392h-40h-48v-46.6
			c33.752-23.472,56-62.928,56-107.36v-42.384c0-31.128-17.264-59.592-45.04-74.272c-9.232-4.88-18.928-7.76-28.664-8.936
			c-0.808-0.096-1.608-0.304-2.416-0.376c-2.112-0.192-4.216-0.136-6.32-0.152c-1.448-0.016-2.896-0.144-4.336-0.08
			c-1.672,0.08-3.328,0.376-4.992,0.568c-1.848,0.208-3.712,0.32-5.544,0.664c-1.432,0.272-2.832,0.736-4.248,1.088
			c-2.024,0.496-4.056,0.928-6.048,1.592c-1.352,0.456-2.656,1.096-3.984,1.624c-1.992,0.792-4.008,1.512-5.952,2.48
			c-1.4,0.696-2.736,1.592-4.104,2.368c-1.704,0.968-3.44,1.832-5.096,2.944c-0.168,0.112-0.328,0.232-0.496,0.344
			c-0.008,0.008-0.024,0.016-0.04,0.024c-0.24,0.168-0.472,0.328-0.704,0.488c-0.232-0.168-0.472-0.328-0.704-0.488
			c-0.016-0.008-0.032-0.016-0.048-0.032c-0.168-0.112-0.336-0.232-0.504-0.344c-1.64-1.104-3.376-1.96-5.072-2.928
			c-1.376-0.784-2.712-1.68-4.112-2.376c-2.016-1-4.112-1.76-6.184-2.576c-1.256-0.496-2.48-1.104-3.752-1.536
			c-2.048-0.688-4.152-1.128-6.24-1.64c-1.36-0.328-2.688-0.784-4.064-1.04c-1.856-0.344-3.728-0.464-5.6-0.672
			c-1.648-0.184-3.288-0.48-4.944-0.56c-1.424-0.064-2.856,0.064-4.288,0.08c-2.128,0.016-4.248-0.04-6.376,0.152
			c-0.752,0.072-1.504,0.264-2.256,0.352c-9.792,1.168-19.544,4.064-28.816,8.968c-27.792,14.68-45.056,43.144-45.056,74.272v42.384
			c0,44.424,22.248,83.888,56,107.352V392h-48h-40V176c0-88.224,71.776-160,160-160s160,71.776,160,160V392z"/>
	</g>
</g>
<g>
</g>
<g>
</g>
<g>
</g>
<g>
</g>
<g>
</g>
<g>
</g>
<g>
</g>
<g>
</g>
<g>
</g>
<g>
</g>
<g>
</g>
<g>
</g>
<g>
</g>
<g>
</g>
<g>
</g>
</svg>
