<?xml version="1.0" encoding="iso-8859-1"?>
<!-- Generator: Adobe Illustrator 19.0.0, SVG Export Plug-In . SVG Version: 6.00 Build 0)  -->
<svg version="1.1" id="Capa_1" xmlns="http://www.w3.org/2000/svg" xmlns:xlink="http://www.w3.org/1999/xlink" x="0px" y="0px"
	 viewBox="0 0 480 480" style="enable-background:new 0 0 480 480;" xml:space="preserve">
<g>
	<g>
		<path d="M424,384h-72h-40v-34.184c43.136-23.304,73.784-66.84,79.144-117.816H400c22.056,0,40-17.944,40-40
			c0-22.056-17.944-40-40-40h-8c0-33.824-11.52-66.888-32.344-93.52C356.912,34.608,336.6,16,312,16H136c-4.408,0-8-3.592-8-8
			c0-4.416-3.584-8-8-8h-5.992C82.928,0,56.92,24.352,56.024,54.288C55.56,69.584,61.168,84.04,71.808,95
			c6.408,6.6,14.144,11.376,22.608,14.168C90.232,123.232,88,137.592,88,152h-8c-22.056,0-40,17.944-40,40c0,22.056,17.944,40,40,40
			h8.856c5.36,50.976,36.008,94.512,79.144,117.816V384h-40H56c-30.88,0-56,25.12-56,56v40h16v-16h24v16h16v-16h32v16h16v-16h32v16
			h16v-16h32v16h16v-16h32v16h16v-16h32v16h16v-16h32v16h16v-16h32v16h16v-16h32v16h16v-16h24v16h16v-40
			C480,409.12,454.88,384,424,384z M392,168h8c13.232,0,24,10.768,24,24s-10.768,24-24,24h-8V168z M88,216h-8
			c-13.232,0-24-10.768-24-24s10.768-24,24-24h8V216z M40,448H16v-8c0-2.736,0.28-5.416,0.808-8H40V448z M40,416H24.208
			c4.104-5.432,9.48-9.84,15.792-12.608V416z M88,448H56v-16h32V448z M88,416H56v-16h32V416z M136,448h-32v-16h32V448z M136,416h-32
			v-16h21.2l10.8,8.64V416z M349.24,94.232c0.184-0.232,0.344-0.472,0.528-0.704c1.128-1.44,2.168-2.952,3.128-4.512
			c0.256-0.416,0.52-0.824,0.76-1.248c1.024-1.784,1.944-3.624,2.736-5.536c0.04-0.096,0.096-0.184,0.136-0.28
			c12.4,20.632,19.16,44.368,19.424,68.568C366.68,147.184,360,138.4,360,128c0-12-4.464-23.2-12.384-31.928
			C348.168,95.464,348.728,94.872,349.24,94.232z M356.928,157.256L343.208,160H256h-32h-87.208l-13.712-2.744
			C130.968,149.944,136,139.584,136,128c0-5.632,1.608-11.072,4.528-16H312c2.24,0,4.432-0.208,6.592-0.504
			c0.528-0.072,1.04-0.152,1.56-0.24c2.12-0.368,4.2-0.824,6.216-1.456c0.128-0.04,0.248-0.096,0.376-0.136
			c1.912-0.616,3.752-1.384,5.552-2.224c0.456-0.216,0.912-0.432,1.36-0.656c0.432-0.224,0.88-0.408,1.304-0.64
			c5.712,5.912,9.04,13.568,9.04,21.856C344,139.584,349.032,149.944,356.928,157.256z M336,176v12c0,19.848-16.152,36-36,36
			c-19.848,0-36-16.152-36-36v-12H336z M216,176v12c0,19.848-16.152,36-36,36c-19.848,0-36-16.152-36-36v-12H216z M83.296,83.856
			c-7.6-7.832-11.608-18.16-11.28-29.096c0.632-21.168,19.12-38.432,41.352-38.76c3.304,9.32,12.2,16,22.632,16h176
			c16.816,0,30.496,13.08,31.752,29.584c0,0.064-0.024,0.128-0.016,0.192c0.04,0.56,0.112,1.104,0.264,2.224
			c0,17.648-14.352,32-32,32H112C101.088,96,90.896,91.688,83.296,83.856z M122.88,112c-1.856,5.12-2.88,10.488-2.88,16
			c0,10.392-6.68,19.176-15.944,22.504c0.144-12.952,2.168-25.888,6.096-38.544c0.632,0.032,1.24,0.04,1.848,0.04H122.88z
			 M104,169.76l24,4.8V188c0,28.672,23.328,52,52,52s52-23.328,52-52v-12h16v12c0,28.672,23.328,52,52,52s52-23.328,52-52v-13.44
			l24-4.8V216c-22.056,0-40,17.944-40,40c0,13.232-10.768,24-24,24h-16.808c-3.712-18.232-19.88-32-39.192-32h-32
			c-19.32,0-35.48,13.768-39.192,32H168c-13.232,0-24-10.768-24-24c0-22.056-17.944-40-40-40V169.76z M105.04,232.104
			C117.784,232.664,128,243.12,128,256c0,22.056,17.944,40,40,40h24c4.416,0,8-3.584,8-8c0-13.232,10.768-24,24-24h32
			c13.232,0,24,10.768,24,24c0,4.416,3.584,8,8,8h24c22.056,0,40-17.944,40-40c0-12.88,10.216-23.336,22.96-23.896
			c-5.536,46.64-34.76,86.016-75.28,105.912c-4.264,2.088-8.608,3.936-13.008,5.56c-0.504,0.184-1,0.376-1.512,0.552
			c-4.464,1.584-8.992,2.912-13.56,4.016c-0.384,0.088-0.752,0.208-1.136,0.296c-20.056,4.64-40.872,4.64-60.928,0
			c-0.384-0.088-0.752-0.2-1.136-0.296c-4.568-1.096-9.096-2.432-13.56-4.016c-0.504-0.176-1.008-0.368-1.512-0.552
			c-4.4-1.616-8.744-3.464-13.008-5.56C139.8,318.12,110.584,278.752,105.04,232.104z M296.008,357.208v29.848l-56,28l-56-28V357.2
			c0.424,0.168,0.856,0.28,1.28,0.44c3.888,1.52,7.832,2.92,11.872,4.112c0.952,0.28,1.928,0.48,2.888,0.744
			c3.672,1,7.36,1.952,11.136,2.68c1.192,0.232,2.408,0.352,3.6,0.552c3.584,0.6,7.16,1.192,10.824,1.544
			c1.12,0.104,2.24,0.088,3.36,0.168c3.656,0.264,7.304,0.56,11.032,0.56c3.728,0,7.376-0.296,11.04-0.56
			c1.12-0.08,2.24-0.064,3.36-0.168c3.664-0.344,7.24-0.936,10.824-1.544c1.2-0.2,2.408-0.32,3.6-0.552
			c3.776-0.728,7.464-1.68,11.136-2.68c0.96-0.264,1.928-0.464,2.888-0.744c4.04-1.192,7.984-2.592,11.88-4.104
			C295.152,357.48,295.584,357.376,296.008,357.208z M184,448h-32v-16h13.2l18.8,15.04V448z M207.408,445.28L152,400.96V400h22.112
			l52.384,26.192L207.408,445.28z M227.312,448L240,435.312L252.688,448H227.312z M328,448h-32v-0.96L314.8,432H328V448z
			 M328,400.96l-55.408,44.32l-19.088-19.088L305.888,400H328V400.96z M376,448h-32v-16h32V448z M376,416h-32v-7.36l10.8-8.64H376
			V416z M424,448h-32v-16h32V448z M424,416h-32v-16h32V416z M440,403.392c6.312,2.768,11.688,7.176,15.792,12.608H440V403.392z
			 M464,448h-24v-16h23.192c0.528,2.584,0.808,5.264,0.808,8V448z"/>
	</g>
</g>
<g>
</g>
<g>
</g>
<g>
</g>
<g>
</g>
<g>
</g>
<g>
</g>
<g>
</g>
<g>
</g>
<g>
</g>
<g>
</g>
<g>
</g>
<g>
</g>
<g>
</g>
<g>
</g>
<g>
</g>
</svg>
