<?xml version="1.0" encoding="iso-8859-1"?>
<!-- Generator: Adobe Illustrator 19.0.0, SVG Export Plug-In . SVG Version: 6.00 Build 0)  -->
<svg version="1.1" id="Capa_1" xmlns="http://www.w3.org/2000/svg" xmlns:xlink="http://www.w3.org/1999/xlink" x="0px" y="0px"
	 viewBox="0 0 480 480" style="enable-background:new 0 0 480 480;" xml:space="preserve">
<g>
	<g>
		<path d="M424,408h-37.648c0.208-0.272,0.432-0.52,0.64-0.792c35.248-46.256,46.624-104.944,31.2-161.032L392,150.904
			C391.408,67.592,323.456,0,240,0S88.592,67.592,88,150.904l-26.192,95.272c-15.424,56.088-4.048,114.776,31.2,161.032
			c0.208,0.272,0.432,0.52,0.64,0.792H56c-30.872,0-56,25.128-56,56v16h16v-16c0-22.056,17.944-40,40-40h51.448
			c6.256,6.472,12.952,12.376,19.976,17.8c0.48,0.368,0.952,0.752,1.44,1.12c1.824,1.376,3.672,2.712,5.544,4.016
			c0.912,0.64,1.832,1.272,2.752,1.896c1.608,1.08,3.232,2.144,4.872,3.168c1.304,0.824,2.624,1.616,3.952,2.4
			c1.376,0.816,2.752,1.632,4.152,2.416c1.792,1,3.616,1.952,5.44,2.888c1.016,0.52,2.016,1.064,3.04,1.568
			c9.048,4.448,18.456,8.12,28.144,11.008c0.584,0.176,1.176,0.328,1.76,0.496c2.624,0.752,5.264,1.456,7.92,2.088
			c0.84,0.2,1.688,0.384,2.536,0.576c2.424,0.544,4.864,1.04,7.32,1.488c0.984,0.176,1.96,0.352,2.952,0.52
			c2.36,0.392,4.736,0.728,7.12,1.024c1.04,0.128,2.08,0.272,3.128,0.392c2.432,0.264,4.88,0.464,7.336,0.632
			c0.976,0.064,1.944,0.168,2.928,0.216c3.392,0.176,6.808,0.288,10.24,0.288s6.848-0.112,10.248-0.288
			c0.984-0.056,1.952-0.152,2.928-0.216c2.456-0.168,4.904-0.368,7.336-0.632c1.048-0.112,2.088-0.256,3.128-0.392
			c2.384-0.296,4.76-0.632,7.12-1.024c0.984-0.16,1.968-0.336,2.952-0.52c2.456-0.448,4.896-0.944,7.32-1.488
			c0.848-0.192,1.696-0.376,2.536-0.576c2.664-0.64,5.304-1.336,7.92-2.088c0.584-0.168,1.176-0.32,1.76-0.496
			c9.688-2.888,19.096-6.56,28.144-11.008c1.024-0.504,2.032-1.048,3.04-1.568c1.824-0.936,3.648-1.888,5.44-2.888
			c1.4-0.776,2.776-1.6,4.152-2.416c1.32-0.784,2.64-1.576,3.952-2.4c1.64-1.032,3.264-2.088,4.872-3.168
			c0.92-0.624,1.84-1.256,2.752-1.896c1.872-1.304,3.72-2.632,5.544-4.016c0.48-0.368,0.96-0.744,1.44-1.12
			c7.024-5.424,13.72-11.328,19.976-17.8H424c22.056,0,40,17.944,40,40v16h16v-16C480,433.128,454.872,408,424,408z M363.168,410.6
			c-3.936,4.208-8.04,8.168-12.304,11.912c-0.168,0.144-0.328,0.288-0.496,0.432c-4.184,3.64-8.52,7.048-12.984,10.224
			c-0.32,0.224-0.64,0.44-0.96,0.664c-4.424,3.104-8.968,5.992-13.64,8.632c-0.304,0.168-0.624,0.32-0.928,0.496
			c-4.352,2.424-8.824,4.624-13.368,6.64c-0.592,0.264-1.168,0.552-1.76,0.808c-4.448,1.912-9,3.568-13.608,5.088
			c-1.056,0.352-2.112,0.712-3.176,1.04c-4.512,1.384-9.096,2.568-13.736,3.576c-1.096,0.24-2.2,0.456-3.304,0.672
			c-4.792,0.936-9.632,1.704-14.544,2.224c-0.784,0.08-1.584,0.128-2.376,0.208C250.704,463.68,245.384,464,240,464
			c-5.384,0-10.704-0.32-15.992-0.808c-0.792-0.072-1.584-0.12-2.376-0.208c-4.904-0.52-9.752-1.288-14.544-2.224
			c-1.104-0.216-2.208-0.432-3.304-0.672c-4.64-1-9.224-2.192-13.736-3.576c-1.064-0.328-2.12-0.688-3.176-1.04
			c-4.608-1.52-9.16-3.176-13.608-5.088c-0.592-0.256-1.168-0.544-1.76-0.808c-4.544-2.016-9.016-4.216-13.368-6.64
			c-0.304-0.168-0.624-0.32-0.928-0.496c-4.672-2.64-9.216-5.536-13.64-8.632c-0.32-0.224-0.64-0.44-0.96-0.664
			c-4.464-3.176-8.8-6.584-12.984-10.224c-0.168-0.144-0.336-0.288-0.496-0.44c-4.264-3.736-8.376-7.704-12.304-11.904
			c-3.872-4.152-7.608-8.488-11.104-13.08c-32.192-42.232-42.576-95.848-28.496-147.064l26.488-96.304
			C103.904,153.432,104,152.72,104,152c0-74.992,61.008-136,136-136s136,61.008,136,136c0,0.72,0.096,1.432,0.288,2.128
			l26.488,96.304c14.088,51.216,3.696,104.832-28.504,147.088C370.776,402.112,367.048,406.44,363.168,410.6z"/>
	</g>
</g>
<g>
	<g>
		<circle cx="184" cy="192" r="16"/>
	</g>
</g>
<g>
	<g>
		<circle cx="296" cy="192" r="16"/>
	</g>
</g>
<g>
	<g>
		<path d="M352,144H128c-4.424,0-8,3.576-8,8v96c0,66.168,53.832,120,120,120s120-53.832,120-120v-96
			C360,147.576,356.424,144,352,144z M344,248c0,57.344-46.656,104-104,104s-104-46.656-104-104v-88h208V248z"/>
	</g>
</g>
<g>
</g>
<g>
</g>
<g>
</g>
<g>
</g>
<g>
</g>
<g>
</g>
<g>
</g>
<g>
</g>
<g>
</g>
<g>
</g>
<g>
</g>
<g>
</g>
<g>
</g>
<g>
</g>
<g>
</g>
</svg>
