<?xml version="1.0" encoding="iso-8859-1"?>
<!-- Generator: Adobe Illustrator 19.0.0, SVG Export Plug-In . SVG Version: 6.00 Build 0)  -->
<svg version="1.1" id="Capa_1" xmlns="http://www.w3.org/2000/svg" xmlns:xlink="http://www.w3.org/1999/xlink" x="0px" y="0px"
	 viewBox="0 0 482.296 482.296" style="enable-background:new 0 0 482.296 482.296;" xml:space="preserve">
<g>
	<g>
		<path d="M425.148,392h-8V176c0-97.048-78.952-176-176-176s-176,78.952-176,176v216h-8c-30.872,0-56,25.128-56,56v32h16v-32
			c0-22.056,17.944-40,40-40h16h42.048l22.288,74.296l15.328-4.592l-18.064-60.216l102.28,61.368c1.272,0.76,2.696,1.144,4.12,1.144
			s2.848-0.384,4.12-1.144l102.28-61.368l-18.064,60.208l15.328,4.592L367.1,408h42.048h16c22.056,0,40,17.944,40,40v32h16v-32
			C481.148,417.128,456.02,392,425.148,392z M241.148,462.672L150.028,408h27.12c4.424,0,8-3.576,8-8v-45.264
			c16.496,8.224,34.896,13.056,54.376,13.256l1.624,0.008l1.576-0.008c19.504-0.2,37.912-5.032,54.424-13.264V400
			c0,4.424,3.576,8,8,8h27.12L241.148,462.672z M249.868,200h-17.44c-3.824-22.664-23.536-40-47.28-40
			c-20.712,0-38.344,13.208-45.064,31.624l-10.936-10.936v-21.184c22.432-2.808,41.288-17.264,50.304-37.112
			c15.904,19.568,49.256,35.472,92.648,44.736C260.532,174.248,252.22,186.104,249.868,200z M297.148,176c17.648,0,32,14.352,32,32
			s-14.352,32-32,32s-32-14.352-32-32S279.5,176,297.148,176z M217.148,208c0,17.648-14.352,32-32,32s-32-14.352-32-32
			s14.352-32,32-32S217.148,190.352,217.148,208z M137.324,211.488c1.8,24.84,22.536,44.512,47.824,44.512
			c23.736,0,43.448-17.336,47.28-40h17.448c3.824,22.664,23.536,40,47.28,40c25.288,0,46.024-19.672,47.824-44.512l8.168-8.176
			v34.736c0,62.208-49.608,113.328-110.624,113.944L241.148,352l-1.424-0.008c-60.968-0.616-110.576-51.736-110.576-113.944v-34.736
			L137.324,211.488z M331.98,175.064c6.944,0.424,13.976,0.752,21.176,0.872v4.752h-0.008l-10.936,10.936
			C339.94,185.4,336.444,179.784,331.98,175.064z M401.148,392h-40h-48v-46.592c33.752-23.472,56-62.928,56-107.36V168
			c0-4.424-3.576-8-8-8c-105.28,0-176-33.096-176-64c0-4.424-3.576-8-8-8s-8,3.576-8,8c0,26.472-21.528,48-48,48
			c-4.424,0-8,3.576-8,8v86.048c0,44.44,22.256,83.896,56,107.368V392h-48h-40V176c0-88.224,71.776-160,160-160s160,71.776,160,160
			V392z"/>
	</g>
</g>
<g>
</g>
<g>
</g>
<g>
</g>
<g>
</g>
<g>
</g>
<g>
</g>
<g>
</g>
<g>
</g>
<g>
</g>
<g>
</g>
<g>
</g>
<g>
</g>
<g>
</g>
<g>
</g>
<g>
</g>
</svg>
