<?xml version="1.0" encoding="iso-8859-1"?>
<!-- Generator: Adobe Illustrator 19.0.0, SVG Export Plug-In . SVG Version: 6.00 Build 0)  -->
<svg version="1.1" id="Capa_1" xmlns="http://www.w3.org/2000/svg" xmlns:xlink="http://www.w3.org/1999/xlink" x="0px" y="0px"
	 viewBox="0 0 480 480" style="enable-background:new 0 0 480 480;" xml:space="preserve">
<g>
	<g>
		<path d="M424,384H312v-34.152c18.52-9.984,34.88-23.816,48-40.8V352c0,4.416,3.576,8,8,8c39.704,0,72-32.304,72-72v-88
			C440,89.72,350.28,0,240,0S40,89.72,40,200v88c0,39.696,32.296,72,72,72c4.424,0,8-3.584,8-8v-42.952
			c13.12,16.976,29.48,30.816,48,40.8V384H56c-30.872,0-56,25.12-56,56v40h16v-40c0-22.056,17.944-40,40-40h117.064
			c0.944,0.776,1.936,1.448,2.904,2.184c1.152,0.888,2.288,1.784,3.472,2.616c1.408,0.992,2.856,1.904,4.304,2.816
			c1.208,0.768,2.4,1.552,3.632,2.256c1.48,0.856,3,1.616,4.512,2.392c1.248,0.64,2.488,1.312,3.752,1.896
			c1.552,0.72,3.128,1.336,4.704,1.976c1.28,0.52,2.552,1.072,3.848,1.544c1.616,0.584,3.256,1.056,4.896,1.552
			c1.288,0.392,2.568,0.832,3.872,1.176c1.704,0.448,3.432,0.784,5.152,1.144c1.264,0.264,2.512,0.592,3.784,0.808
			c1.856,0.32,3.728,0.52,5.6,0.736c1.152,0.136,2.296,0.336,3.448,0.44c2.632,0.224,5.272,0.32,7.912,0.344
			c0.392,0.008,0.776,0.048,1.16,0.048c0.384,0,0.776-0.048,1.16-0.048c2.64-0.032,5.28-0.12,7.912-0.344
			c1.152-0.096,2.296-0.296,3.44-0.432c1.872-0.224,3.744-0.416,5.6-0.736c1.272-0.216,2.52-0.544,3.776-0.808
			c1.72-0.36,3.448-0.696,5.16-1.144c1.304-0.344,2.576-0.784,3.872-1.176c1.64-0.496,3.28-0.976,4.896-1.552
			c1.296-0.464,2.568-1.024,3.848-1.544c1.576-0.64,3.152-1.256,4.704-1.976c1.264-0.584,2.504-1.256,3.752-1.896
			c1.52-0.776,3.032-1.544,4.52-2.4c1.232-0.712,2.424-1.496,3.624-2.256c1.448-0.912,2.896-1.824,4.304-2.816
			c1.176-0.832,2.32-1.728,3.472-2.616c0.96-0.736,1.96-1.408,2.904-2.184H424c22.056,0,40,17.944,40,40v40h16v-40
			C480,409.12,454.872,384,424,384z M112,160c-4.424,0-8,3.584-8,8v113.776v61.656C76.896,339.536,56,316.168,56,288v-88
			C56,98.544,138.536,16,240,16s184,82.544,184,184v88c0,28.168-20.896,51.536-48,55.432v-61.656V168c0-4.416-3.576-8-8-8
			c-92.632,0-168-39.48-168-88c0-4.416-3.576-8-8-8s-8,3.584-8,8C184,120.52,151.704,160,112,160z M295.992,388.168
			c-0.648,0.528-1.296,1.056-1.96,1.56c-1.008,0.768-2.024,1.536-3.056,2.256c-1.16,0.808-2.336,1.56-3.528,2.304
			c-1.04,0.656-2.088,1.312-3.152,1.92c-1.232,0.704-2.496,1.352-3.752,1.992c-1.064,0.544-2.12,1.096-3.2,1.592
			c-1.312,0.6-2.648,1.136-3.992,1.672c-1.064,0.424-2.12,0.872-3.192,1.256c-1.408,0.504-2.832,0.92-4.256,1.352
			c-1.04,0.312-2.064,0.656-3.112,0.928c-1.544,0.4-3.096,0.712-4.656,1.032c-0.952,0.192-1.896,0.432-2.848,0.6
			c-1.776,0.304-3.56,0.504-5.344,0.704c-0.76,0.08-1.512,0.216-2.264,0.28c-5.112,0.44-10.248,0.44-15.36,0
			c-0.76-0.064-1.512-0.2-2.264-0.28c-1.784-0.2-3.576-0.4-5.344-0.704c-0.96-0.168-1.904-0.4-2.848-0.6
			c-1.56-0.32-3.112-0.632-4.656-1.032c-1.048-0.272-2.072-0.616-3.112-0.928c-1.424-0.432-2.856-0.848-4.256-1.352
			c-1.072-0.384-2.128-0.832-3.192-1.256c-1.336-0.536-2.672-1.072-3.992-1.672c-1.08-0.496-2.136-1.048-3.2-1.592
			c-1.264-0.64-2.52-1.288-3.752-1.992c-1.064-0.608-2.104-1.264-3.152-1.92c-1.184-0.744-2.368-1.504-3.528-2.304
			c-1.032-0.72-2.048-1.48-3.056-2.256c-0.664-0.504-1.312-1.032-1.96-1.56v-30.896c8.832,3.496,18.024,6.184,27.496,7.984
			c0.064,0.016,0.136,0.024,0.2,0.032c4.328,0.816,8.712,1.432,13.136,1.872c0.496,0.048,0.984,0.112,1.48,0.152
			C230.848,367.72,235.4,368,240,368c4.6,0,9.152-0.28,13.672-0.68c0.496-0.048,0.984-0.104,1.48-0.152
			c4.424-0.44,8.808-1.056,13.136-1.872c0.072-0.016,0.136-0.024,0.2-0.032c9.472-1.8,18.664-4.488,27.504-7.992V388.168z
			 M301.456,337.344c-0.344,0.12-0.696,0.192-1.024,0.36c-38.144,18.984-82.736,18.984-120.872,0
			c-0.32-0.16-0.664-0.232-0.992-0.344c-24.504-12.432-45.096-32.248-58.568-57.552V175.576c34.448-3.68,63.224-30.928,74.68-67.952
			c24.368,38.936,87.976,66.504,165.32,68.288v103.896C346.528,305.104,325.952,324.92,301.456,337.344z"/>
	</g>
</g>
<g>
	<g>
		<circle cx="184" cy="216" r="16"/>
	</g>
</g>
<g>
	<g>
		<circle cx="296" cy="216" r="16"/>
	</g>
</g>
<g>
</g>
<g>
</g>
<g>
</g>
<g>
</g>
<g>
</g>
<g>
</g>
<g>
</g>
<g>
</g>
<g>
</g>
<g>
</g>
<g>
</g>
<g>
</g>
<g>
</g>
<g>
</g>
<g>
</g>
</svg>
