<?xml version="1.0" encoding="iso-8859-1"?>
<!-- Generator: Adobe Illustrator 19.0.0, SVG Export Plug-In . SVG Version: 6.00 Build 0)  -->
<svg version="1.1" id="Capa_1" xmlns="http://www.w3.org/2000/svg" xmlns:xlink="http://www.w3.org/1999/xlink" x="0px" y="0px"
	 viewBox="0 0 480 480" style="enable-background:new 0 0 480 480;" xml:space="preserve">
<g>
	<g>
		<circle cx="184" cy="192" r="16"/>
	</g>
</g>
<g>
	<g>
		<circle cx="296" cy="192" r="16"/>
	</g>
</g>
<g>
	<g>
		<path d="M480,360c0-36.152-20.68-69.024-52.016-85.264C450.064,260.144,464,235.144,464,208c0-42.064-32.632-76.64-73.904-79.776
			C378.576,54.648,315.24,0,240,0S101.424,54.648,89.904,128.224C48.632,131.36,16,165.936,16,208
			c0,27.144,13.936,52.144,36.016,66.736C20.68,290.976,0,323.848,0,360c0,18.544,5.368,35.808,14.512,50.504
			C5.24,420.744,0,434.056,0,448v32h16v-32c0-8.864,2.952-17.392,8.28-24.32c0.296,0.328,0.632,0.608,0.928,0.936
			c1.76,1.928,3.592,3.784,5.504,5.568c0.512,0.48,1.032,0.944,1.552,1.416c2.008,1.792,4.096,3.496,6.256,5.112
			c0.448,0.336,0.888,0.672,1.336,1c2.344,1.696,4.768,3.28,7.264,4.768c0.304,0.176,0.592,0.368,0.896,0.544
			c2.704,1.568,5.48,3,8.336,4.304c0.136,0.064,0.272,0.136,0.408,0.2c3,1.352,6.064,2.56,9.216,3.6
			c0.024,0.008,0.04,0.016,0.064,0.024c3.128,1.032,6.32,1.92,9.584,2.624c0.056,0.016,0.112,0.032,0.168,0.04
			c3.056,0.656,6.16,1.16,9.312,1.52c0.248,0.032,0.496,0.088,0.744,0.112C89.192,455.8,92.576,456,96,456
			c3.128,0,6.224-0.176,9.296-0.472c0.92-0.088,1.816-0.248,2.72-0.368c2.16-0.272,4.312-0.568,6.44-0.984
			c0.968-0.192,1.912-0.432,2.872-0.648c2.048-0.464,4.08-0.968,6.096-1.568c0.904-0.272,1.784-0.568,2.672-0.864
			c2.032-0.672,4.04-1.4,6.016-2.2c0.808-0.328,1.6-0.672,2.4-1.016c2.008-0.88,3.976-1.832,5.92-2.848
			c0.728-0.384,1.448-0.76,2.16-1.16c1.928-1.072,3.808-2.224,5.664-3.44c0.68-0.448,1.368-0.88,2.04-1.336
			c1.792-1.24,3.536-2.56,5.256-3.928c0.656-0.52,1.328-1.024,1.968-1.56c0.416-0.352,0.864-0.648,1.272-1.008l77.104,46.256
			c2.528,1.512,5.704,1.512,8.232,0l77.104-46.256c0.408,0.352,0.856,0.656,1.272,1.008c0.64,0.536,1.312,1.04,1.968,1.56
			c1.72,1.368,3.456,2.688,5.256,3.928c0.672,0.464,1.36,0.896,2.04,1.336c1.856,1.208,3.736,2.36,5.664,3.44
			c0.712,0.4,1.432,0.776,2.16,1.16c1.944,1.016,3.92,1.968,5.92,2.856c0.792,0.352,1.584,0.688,2.392,1.016
			c1.984,0.808,3.984,1.536,6.016,2.208c0.888,0.296,1.776,0.592,2.672,0.864c2.008,0.6,4.04,1.104,6.096,1.568
			c0.96,0.216,1.904,0.464,2.872,0.648c2.128,0.416,4.272,0.712,6.44,0.984c0.912,0.112,1.808,0.28,2.72,0.368
			c3.056,0.28,6.152,0.456,9.28,0.456c3.424,0,6.808-0.2,10.144-0.552c0.248-0.024,0.496-0.088,0.744-0.112
			c3.152-0.36,6.256-0.856,9.312-1.52c0.056-0.016,0.112-0.032,0.176-0.048c3.256-0.704,6.448-1.592,9.576-2.624
			c0.024-0.008,0.04-0.016,0.064-0.024c3.152-1.04,6.224-2.248,9.216-3.6c0.136-0.064,0.272-0.136,0.408-0.2
			c2.856-1.304,5.64-2.736,8.336-4.304c0.304-0.176,0.6-0.368,0.904-0.544c2.496-1.488,4.92-3.072,7.264-4.768
			c0.456-0.328,0.896-0.672,1.352-1.008c2.152-1.624,4.24-3.32,6.248-5.112c0.52-0.464,1.04-0.936,1.552-1.416
			c1.912-1.784,3.744-3.64,5.504-5.568c0.296-0.328,0.632-0.608,0.928-0.936C461.048,430.608,464,439.136,464,448v32h16v-32
			c0-13.944-5.24-27.256-14.512-37.496C474.632,395.808,480,378.544,480,360z M240,462.672L170.216,420.8
			c13.552-16.512,21.728-37.608,21.784-60.576c0.496,0.168,1.008,0.272,1.504,0.432c1.544,0.496,3.128,0.904,4.696,1.36
			c2.864,0.816,5.736,1.584,8.64,2.224c1.8,0.4,3.608,0.76,5.432,1.104c2.816,0.52,5.632,0.936,8.472,1.296
			c1.84,0.232,3.664,0.496,5.52,0.664c3.736,0.336,7.48,0.504,11.224,0.568C238.344,367.888,239.16,368,240,368
			c0.84,0,1.656-0.112,2.504-0.128c3.752-0.064,7.496-0.232,11.224-0.568c1.856-0.168,3.688-0.432,5.52-0.664
			c2.84-0.36,5.656-0.776,8.472-1.296c1.824-0.336,3.632-0.696,5.432-1.104c2.904-0.648,5.776-1.408,8.64-2.224
			c1.568-0.448,3.152-0.856,4.696-1.36c0.496-0.16,1.008-0.272,1.504-0.432c0.056,22.968,8.232,44.056,21.784,60.576L240,462.672z
			 M186.616,341.056C138.088,320.256,104,272.048,104,216v-40.168c54.144-2.304,114.624-27.536,136-61.816
			c21.376,34.272,81.856,59.504,136,61.816V216c0,56.048-34.088,104.256-82.616,125.056
			C259.488,355.56,220.512,355.56,186.616,341.056z M448.288,407.416c-1.616,2.192-3.336,4.28-5.152,6.272
			c-0.288,0.312-0.568,0.632-0.856,0.944c-6.36,6.776-13.8,12.376-21.952,16.56c-0.056,0.032-0.12,0.056-0.176,0.088
			c-2.568,1.312-5.216,2.456-7.92,3.488c-0.384,0.144-0.776,0.288-1.168,0.424c-2.384,0.864-4.816,1.6-7.28,2.24
			c-0.568,0.144-1.136,0.304-1.712,0.44c-2.352,0.552-4.736,0.96-7.136,1.296c-0.64,0.088-1.264,0.216-1.904,0.288
			c-2.992,0.344-6,0.544-9.032,0.544c-2.72,0-5.4-0.144-8.048-0.408c-0.648-0.064-1.28-0.2-1.928-0.28
			c-2.008-0.248-4.008-0.52-5.968-0.912c-0.576-0.12-1.136-0.296-1.712-0.424c-2.016-0.456-4.016-0.936-5.968-1.536
			c-0.424-0.128-0.824-0.304-1.248-0.44c-2.08-0.68-4.136-1.408-6.136-2.248c-0.304-0.128-0.592-0.288-0.896-0.416
			c-2.08-0.904-4.128-1.872-6.104-2.944c-0.288-0.16-0.568-0.344-0.856-0.512c-1.952-1.088-3.872-2.232-5.72-3.48
			c-0.392-0.264-0.76-0.568-1.152-0.848c-1.704-1.192-3.392-2.416-4.992-3.736c-0.52-0.432-1-0.912-1.512-1.352
			C314.8,405.776,304,384.144,304,360c0-2,0.144-4.184,0.352-6.496C356.04,329.208,392,276.792,392,216v-48c0-4.424-3.576-8-8-8
			c-77.6,0-136-43.68-136-72c0-4.424-3.576-8-8-8s-8,3.576-8,8c0,28.32-58.4,72-136,72c-4.424,0-8,3.576-8,8v48
			c0,60.792,35.96,113.208,87.648,137.504C175.856,355.816,176,358,176,360c0,24.144-10.8,45.776-27.76,60.456
			c-0.512,0.44-0.992,0.928-1.512,1.352c-1.608,1.328-3.304,2.552-5.016,3.752c-0.384,0.264-0.744,0.568-1.128,0.832
			c-1.848,1.248-3.768,2.392-5.728,3.48c-0.288,0.16-0.56,0.352-0.856,0.504c-1.976,1.072-4.016,2.032-6.088,2.936
			c-0.304,0.136-0.6,0.296-0.912,0.424c-2,0.84-4.056,1.568-6.128,2.248c-0.416,0.136-0.824,0.312-1.248,0.44
			c-1.952,0.608-3.96,1.088-5.976,1.544c-0.568,0.128-1.128,0.304-1.704,0.424c-1.96,0.4-3.96,0.664-5.976,0.912
			c-0.648,0.08-1.272,0.216-1.92,0.28C101.4,439.856,98.72,440,96,440c-3.032,0-6.04-0.2-9.024-0.544
			c-0.64-0.072-1.264-0.2-1.904-0.288c-2.4-0.336-4.792-0.744-7.136-1.296c-0.576-0.136-1.136-0.296-1.712-0.44
			c-2.464-0.64-4.896-1.368-7.28-2.24c-0.392-0.144-0.784-0.28-1.168-0.432c-2.696-1.024-5.344-2.176-7.912-3.488
			c-0.056-0.032-0.12-0.056-0.184-0.088c-8.16-4.184-15.592-9.776-21.952-16.56c-0.288-0.312-0.568-0.624-0.856-0.944
			c-1.816-1.992-3.536-4.088-5.152-6.272C21.888,394.128,16,377.76,16,360c0-35.296,23.672-66.856,57.568-76.752
			c3.32-0.968,5.64-3.96,5.752-7.416c0.12-3.456-2-6.592-5.248-7.784C48.904,258.864,32,234.728,32,208
			c0-35.288,28.712-64,63.856-64c0.2,0.016,0.864,0.048,1.072,0.048c4.08,0,7.504-3.072,7.952-7.128
			C112.488,67.984,170.576,16,240,16s127.512,51.984,135.12,120.92c0.448,4.056,3.872,7.128,7.952,7.128
			c0.36,0,0.72-0.016,0.928-0.048c35.288,0,64,28.712,64,64c0,26.728-16.904,50.864-42.072,60.056
			c-3.248,1.184-5.368,4.328-5.248,7.784c0.112,3.456,2.432,6.448,5.752,7.416C440.328,293.144,464,324.704,464,360
			C464,377.76,458.112,394.128,448.288,407.416z"/>
	</g>
</g>
<g>
</g>
<g>
</g>
<g>
</g>
<g>
</g>
<g>
</g>
<g>
</g>
<g>
</g>
<g>
</g>
<g>
</g>
<g>
</g>
<g>
</g>
<g>
</g>
<g>
</g>
<g>
</g>
<g>
</g>
</svg>
