<?xml version="1.0" encoding="iso-8859-1"?>
<!-- Generator: Adobe Illustrator 19.0.0, SVG Export Plug-In . SVG Version: 6.00 Build 0)  -->
<svg version="1.1" id="Capa_1" xmlns="http://www.w3.org/2000/svg" xmlns:xlink="http://www.w3.org/1999/xlink" x="0px" y="0px"
	 viewBox="0 0 480 480" style="enable-background:new 0 0 480 480;" xml:space="preserve">
<g>
	<g>
		<circle cx="184" cy="184" r="16"/>
	</g>
</g>
<g>
	<g>
		<path d="M424,384h-72h-40v-34.2c9.104-4.92,17.704-10.848,25.744-17.64c5.416,12.744,10.36,25.552,14.672,38.384
			c1.096,3.28,4.168,5.456,7.584,5.456c0.168,0,0.336-0.008,0.504-0.016c3.616-0.224,6.632-2.856,7.336-6.416
			c3.304-16.488,7.36-33.312,11.288-49.592c7.616-31.56,15.32-63.696,18.296-95.976H400c22.056,0,40-17.944,40-40
			c0-22.056-17.944-40-40-40h-7.776c-0.176-0.696-0.304-1.384-0.496-2.08l-1.472-5.496c-8.52-31.92-16.576-62.072-44.328-91.664
			c-2.12-2.264-4.456-4.448-6.896-6.608c-23.88-22.112-55.464-35.456-89.136-37.664C246.544,0.2,243.232,0,240,0
			c-39.904,0-85.712,29.504-101.408,64.272C110.248,67.008,88,90.952,88,120v24h-8c-22.056,0-40,17.944-40,40
			c0,22.056,17.944,40,40,40h8.408C91.256,278.376,122.64,325.312,168,349.816V384h-40H56c-30.88,0-56,25.128-56,56v40h16v-16h24v16
			h16v-16h32v16h16v-16h32v16h16v-16h32v16h16v-16h32v16h16v-16h32v16h16v-16h32v16h16v-16h32v16h16v-16h32v16h16v-16h24v16h16v-40
			C480,409.128,454.88,384,424,384z M400,160.008V160c13.232,0,24,10.768,24,24s-10.768,24-24,24h-1.488c0.008-0.2,0-0.4,0.008-0.6
			c0.144-3.872,0.192-7.752,0.168-11.624c0-0.328-0.016-0.656-0.024-0.984c-0.128-11.6-1.088-23.2-3.064-34.784H400z M88,208h-8
			c-13.232,0-24-10.768-24-24s10.768-24,24-24h8V208z M40,448H16v-8c0-2.736,0.28-5.416,0.808-8H40V448z M40,416H24.208
			c4.104-5.432,9.48-9.84,15.792-12.608V416z M88,448H56v-16h32V448z M88,416H56v-16h32V416z M136,448h-32v-16h32V448z M136,416h-32
			v-16h21.192L136,408.648V416z M240,16c2.632,0,5.232,0.24,7.848,0.392c25.216,2.16,58.488,14.216,80.272,33.44
			c2.08,1.92,4.2,3.8,6.136,5.872c25,26.672,32.2,53.632,40.544,84.856l1.48,5.512c0.656,2.448,1.2,4.896,1.744,7.352
			c0.016,0.104-0.024,0.208,0,0.304c4.264,19.184,5.6,39.376,4.072,61.72c-0.008,0.104,0.048,0.2,0.04,0.304
			c-2.272,32.792-10.256,66.072-18.552,100.472c-1.84,7.624-3.712,15.376-5.52,23.168c-3.104-7.848-6.472-15.672-9.96-23.464
			c-0.04-0.112-0.04-0.232-0.096-0.336c-1.536-3.448-3.192-6.864-4.8-10.296c-0.752-1.6-1.464-3.2-2.232-4.792
			c-21.12-43.976-48.416-86.656-80.056-125.808c-0.144-0.184-0.296-0.36-0.44-0.544c-4.184-5.168-8.44-10.272-12.768-15.304
			c-0.904-1.048-1.824-2.08-2.736-3.128c-3.608-4.144-7.248-8.248-10.952-12.296c-1.432-1.568-2.888-3.112-4.336-4.664
			c-3.24-3.472-6.496-6.912-9.8-10.304c-1.824-1.872-3.656-3.72-5.504-5.568c-3.024-3.032-6.064-6.032-9.136-8.992
			c-2.072-2-4.152-3.968-6.248-5.936c-2.944-2.76-5.904-5.48-8.888-8.176c-2.216-2-4.432-3.984-6.672-5.944
			c-2.968-2.6-5.96-5.152-8.96-7.688c-2.272-1.912-4.536-3.824-6.832-5.696c-3.08-2.52-6.184-4.976-9.304-7.424
			c-1.512-1.192-3-2.44-4.52-3.608C167.4,42.568,209.336,16,240,16z M104,120c0-19.32,13.768-35.48,32-39.192V104
			c0,2.6-0.288,5.136-0.768,7.6c-0.16,0.808-0.432,1.568-0.64,2.36c-0.416,1.624-0.872,3.232-1.48,4.768
			c-0.352,0.88-0.784,1.704-1.192,2.552c-0.656,1.36-1.352,2.696-2.152,3.96c-0.52,0.824-1.088,1.616-1.664,2.4
			c-0.872,1.176-1.792,2.304-2.784,3.376c-0.664,0.72-1.328,1.424-2.04,2.088c-1.08,1.016-2.24,1.936-3.432,2.832
			c-0.752,0.56-1.488,1.152-2.28,1.664c-1.352,0.872-2.792,1.6-4.248,2.304c-0.744,0.36-1.448,0.784-2.216,1.096
			c-2.136,0.872-4.36,1.576-6.656,2.072c-0.144,0.032-0.28,0.096-0.424,0.128c-0.008,0-0.016,0-0.024,0V120z M104,216v-56.568
			c0.624-0.088,1.224-0.24,1.832-0.352c0.752-0.136,1.504-0.264,2.24-0.424c1.032-0.224,2.04-0.504,3.048-0.784
			c0.696-0.192,1.392-0.376,2.08-0.6c1.056-0.344,2.08-0.736,3.112-1.144c0.6-0.232,1.208-0.44,1.792-0.696
			c1.192-0.512,2.344-1.096,3.496-1.688c0.392-0.2,0.8-0.376,1.192-0.592c1.528-0.832,3.008-1.736,4.448-2.704
			c0.248-0.168,0.472-0.352,0.712-0.52c1.168-0.816,2.32-1.664,3.424-2.56c0.456-0.376,0.888-0.784,1.336-1.176
			c0.848-0.744,1.696-1.488,2.504-2.28c0.48-0.472,0.928-0.968,1.384-1.456c0.72-0.76,1.44-1.528,2.12-2.328
			c0.456-0.536,0.888-1.096,1.32-1.656c0.632-0.8,1.248-1.608,1.832-2.448c0.416-0.6,0.816-1.208,1.208-1.816
			c0.544-0.84,1.064-1.696,1.56-2.568c0.368-0.648,0.72-1.288,1.064-1.952c0.464-0.888,0.896-1.792,1.312-2.712
			c0.304-0.672,0.608-1.352,0.888-2.04c0.384-0.952,0.728-1.92,1.064-2.896c0.232-0.688,0.48-1.376,0.688-2.072
			c0.304-1.032,0.56-2.08,0.808-3.136c0.16-0.68,0.344-1.344,0.48-2.032c0.232-1.176,0.392-2.376,0.544-3.576
			c0.08-0.592,0.184-1.168,0.248-1.76c0.16-1.784,0.264-3.616,0.264-5.464V88.432c0.968,0.768,1.952,1.504,2.912,2.28
			c1.832,1.48,3.648,2.992,5.472,4.504c3.664,3.032,7.296,6.112,10.896,9.248c1.776,1.552,3.56,3.096,5.328,4.664
			c4.168,3.712,8.288,7.496,12.368,11.344c1.024,0.96,2.064,1.896,3.08,2.864c5.168,4.936,10.264,9.976,15.288,15.104
			c0.872,0.888,1.712,1.8,2.576,2.696c4.216,4.36,8.384,8.776,12.48,13.264c1.096,1.2,2.184,2.416,3.28,3.624
			c4.152,4.616,8.248,9.288,12.272,14.024c0.648,0.76,1.296,1.504,1.936,2.264c34.272,40.72,63.672,85.728,86.224,132.24
			c0.8,1.664,1.6,3.328,2.384,4.992c0.856,1.816,1.648,3.64,2.488,5.456c-9.096,8.216-19.144,15.04-29.848,20.456
			c-0.232,0.088-0.472,0.128-0.696,0.24c-9.376,4.672-19.144,8.16-29.104,10.536c-0.344,0.08-0.688,0.16-1.04,0.24
			c-4.688,1.08-9.408,1.896-14.16,2.464c-0.312,0.04-0.616,0.096-0.928,0.128c-15.216,1.72-30.648,0.848-45.648-2.624
			c-0.4-0.088-0.784-0.208-1.184-0.304c-4.568-1.096-9.096-2.432-13.56-4.016c-0.48-0.168-0.96-0.352-1.44-0.528
			c-4.472-1.64-8.888-3.52-13.216-5.648C135.128,315.752,104,269.504,104,216z M296,357.28v29.776l-56,28l-56-28V357.2
			c0.424,0.168,0.856,0.28,1.28,0.44c3.896,1.52,7.84,2.92,11.88,4.112c0.952,0.28,1.928,0.48,2.888,0.744
			c3.672,1,7.36,1.952,11.136,2.68c1.192,0.232,2.408,0.352,3.6,0.552c3.584,0.6,7.16,1.192,10.824,1.544
			c1.12,0.104,2.24,0.088,3.36,0.168c3.656,0.264,7.304,0.56,11.032,0.56C259.464,368,278.384,364.272,296,357.28z M184,448h-32v-16
			h13.192L184,447.048V448z M207.408,445.28L152,400.96V400h22.112l26.192,13.096l26.192,13.096L207.408,445.28z M227.312,448
			L240,435.312L252.688,448H227.312z M328,448h-32v-0.952L314.808,432H328V448z M328,400.96l-55.408,44.328L253.504,426.2
			l26.192-13.096L305.888,400H328V400.96z M376,448h-32v-16h32V448z M376,416h-32v-7.352L354.808,400H376V416z M424,448h-32v-16h32
			V448z M424,416h-32v-16h32V416z M440,403.392c6.312,2.768,11.688,7.176,15.792,12.608H440V403.392z M464,448h-24v-16h23.192
			c0.528,2.584,0.808,5.264,0.808,8V448z"/>
	</g>
</g>
<g>
</g>
<g>
</g>
<g>
</g>
<g>
</g>
<g>
</g>
<g>
</g>
<g>
</g>
<g>
</g>
<g>
</g>
<g>
</g>
<g>
</g>
<g>
</g>
<g>
</g>
<g>
</g>
<g>
</g>
</svg>
