<?xml version="1.0" encoding="iso-8859-1"?>
<!-- Generator: Adobe Illustrator 19.0.0, SVG Export Plug-In . SVG Version: 6.00 Build 0)  -->
<svg version="1.1" id="Capa_1" xmlns="http://www.w3.org/2000/svg" xmlns:xlink="http://www.w3.org/1999/xlink" x="0px" y="0px"
	 viewBox="0 0 493.723 493.723" style="enable-background:new 0 0 493.723 493.723;" xml:space="preserve">
<g>
	<g>
		<circle cx="190.862" cy="192.491" r="16"/>
	</g>
</g>
<g>
	<g>
		<circle cx="302.862" cy="192.491" r="16"/>
	</g>
</g>
<g>
	<g>
		<path d="M486.862,426.915v-2.424h-0.488c-0.088-0.328-0.096-0.624-0.192-0.952c-0.576-2.016-1.24-4.032-1.904-6.04
			c-1.568-4.744-3.048-9.216-3.064-13.392c0-1.392,0.128-2.792,0.256-4.176c0.328-3.656,0.688-7.8-0.528-12.24
			c-2-7.304-7.224-11.96-11.84-16.072c-3.304-2.936-6.424-5.72-7.008-8.472c-0.224-1.048-0.176-2.568-0.128-4.176
			c0.064-1.92,0.096-3.856-0.104-5.76c-0.536-5.064-2.56-9.424-4.344-13.264c-1.664-3.568-3.096-6.656-2.88-9.176
			c0.088-1.056,0.512-2.456,0.968-3.936c0.84-2.752,1.888-6.176,1.632-10.128c-0.408-6.144-3.76-10.864-6.448-14.672
			c-1.648-2.336-3.52-4.976-3.336-6.232c0.072-0.504,0.552-1.552,0.968-2.48c0.544-1.2,1.072-2.416,1.488-3.664
			c4.68-14.36-6.44-28.312-19.944-34.472c-1.064-0.48-2.712-1.224-3.56-1.808c0.088-0.456,0.224-1.04,0.328-1.48l0.296-1.288
			c1.624-7.544,0.616-15.44-2.632-22.344c13.24-6.52,22.464-20.032,22.464-35.776c0-22.056-17.944-40-40-40h-5.76l2.744-22.632
			c0.528-4.376,1.128-9.336,0.168-14.56c-0.536-2.944-1.512-5.584-2.376-7.912c-0.592-1.616-1.216-3.224-1.576-4.896
			c-0.536-2.496-0.576-5.584-0.624-8.84c-0.104-8.088-0.232-18.144-8.888-24.496c-0.904-0.672-1.88-1.248-2.864-1.816
			c-0.488-0.28-1.008-0.544-1.096-0.424c-0.168-0.456-0.232-1.92-0.272-2.896c-0.088-1.912-0.192-4.296-0.904-6.76
			c-2.96-10.24-12.664-13.416-19.752-15.728c-3.952-1.288-8.032-2.616-10.008-4.664c-0.856-0.888-1.744-2.352-2.68-3.896
			c-2.192-3.616-5.2-8.576-11.088-10.824c-3.752-1.44-7.344-1.224-10.24-1.064c-1.136,0.064-2.856,0.16-3.08,0.168
			c-0.32-0.304-0.952-1.528-1.368-2.336c-0.744-1.44-1.52-2.864-2.448-4.16c-7.712-10.744-21.408-9.864-31.384-9.248l-3.152,0.184
			c-5.024,0.28-10.544-1.08-16.392-2.496c-7.976-1.92-16.984-4.104-26.96-2.8c-9.976-1.296-18.984,0.872-26.96,2.8
			c-5.84,1.416-11.328,2.784-16.384,2.496l-3.16-0.184c-9.992-0.624-23.672-1.496-31.384,9.256c-0.928,1.288-1.696,2.72-2.448,4.16
			c-0.416,0.808-1.048,2.032-1.064,2.16c-0.52,0.168-2.248,0.064-3.384,0.008c-2.88-0.168-6.48-0.368-10.232,1.064
			c-5.888,2.24-8.896,7.2-11.088,10.824c-0.936,1.544-1.824,3.008-2.68,3.896c-1.976,2.048-6.056,3.376-10.008,4.664
			c-7.088,2.312-16.792,5.488-19.752,15.728c-0.712,2.464-0.824,4.84-0.912,6.76c-0.04,0.976-0.112,2.448,0.048,2.448
			c-0.416,0.36-0.928,0.592-1.416,0.872c-0.984,0.56-1.96,1.144-2.864,1.816c-8.656,6.352-8.784,16.408-8.888,24.496
			c-0.04,3.256-0.088,6.344-0.616,8.832c-0.36,1.68-0.984,3.288-1.576,4.904c-0.856,2.328-1.832,4.968-2.376,7.904
			c-0.968,5.232-0.368,10.192,0.168,14.568l2.736,22.624h-5.76c-22.056,0-40,17.944-40,40c0,15.744,9.224,29.256,22.472,35.784
			c-3.248,6.904-4.256,14.8-2.632,22.36l0.296,1.264c0.104,0.448,0.24,1.032,0.328,1.488c-0.864,0.584-2.616,1.376-4.232,2.112
			c-12.84,5.848-23.968,19.816-19.28,34.168c0.408,1.248,0.944,2.472,1.488,3.672c0.416,0.92,0.888,1.96,0.968,2.464
			c0.184,1.264-1.688,3.904-3.336,6.232c-2.688,3.808-6.04,8.536-6.448,14.68c-0.264,3.936,0.784,7.368,1.624,10.128
			c0.456,1.488,0.88,2.88,0.968,3.936c0.216,2.52-1.216,5.608-2.88,9.184c-1.784,3.832-3.808,8.192-4.344,13.256
			c-0.2,1.904-0.168,3.832-0.104,5.752c0.048,1.616,0.096,3.144-0.128,4.184c-0.584,2.752-3.704,5.528-7.008,8.472
			c-4.616,4.112-9.832,8.768-11.84,16.064c-1.224,4.448-0.848,8.592-0.528,12.248c0.128,1.392,0.256,2.792,0.256,4.168
			c-0.016,4.176-1.496,8.656-3.064,13.4c-0.664,2.008-1.328,4.024-1.896,6.04c-0.096,0.32-0.104,0.616-0.192,0.944H6.862v2.432
			c-1.384,6.392-1.4,12.184,0,17.2v36.368h16v-20.864c1.344,0.272,2.712,0.48,4.104,0.48c0.672,0,1.344-0.032,2.016-0.104
			c6.216-0.608,11.184-3.992,13.616-9.272c1.864-4.048,1.752-7.968,1.664-11.128c-0.032-1.064-0.088-2.128,0.016-3.168
			c0.456-4.6,4.808-8.576,9.848-13.184c4.752-4.344,10.136-9.264,13.264-15.96c0.28-0.6,0.416-1.224,0.656-1.832
			c0.08,0.624,0.128,1.224-0.008,1.784c-0.408,1.648-2.08,3.84-3.696,5.968c-3.264,4.288-7.736,10.16-6.504,18.008
			c0.36,2.304,1.16,4.184,1.8,5.712c0.32,0.76,0.656,1.536,0.736,1.952c0.344,1.768-2.664,4.824-5.576,7.768
			c-2.72,2.76-5.808,5.872-8,9.704c-4.664,8.168-4.216,18.84,1.112,26.576c4.632,6.72,12.648,10.792,20.76,10.792
			c1.232,0,2.464-0.096,3.68-0.28c4.096-0.64,7.448-2.24,9.968-4.76c2.456-2.448,3.68-5.24,4.328-7.992
			c0.104,0.12,0.168,0.24,0.28,0.36c3.536,3.696,8.128,5.168,12.696,5.168c3.616,0,7.2-0.928,10.232-2.432
			c2.896-1.432,5.68-3.544,8.168-6.056c2.248,8.264,9.76,14.736,18.568,15.04c0.224,0.008,0.44,0.016,0.664,0.016
			c10.36,0,19.456-8.52,20.016-18.92c0.248-4.488-1-8.424-2.104-11.888c-0.776-2.44-1.648-5.192-1.2-6.288
			c0.144-0.36,0.64-1.088,1.08-1.72c0.984-1.432,1.912-2.88,2.592-4.464c2.808-6.544,1.008-12.704-0.432-17.656
			c-0.664-2.28-1.296-4.44-1.32-6.104c-0.032-2.2,1.032-4.976,2.168-7.912c1.76-4.56,3.76-9.744,3.072-15.832
			c-0.064-0.544-0.2-1.008-0.296-1.512h19.712l62.032,39.592c1.312,0.832,2.808,1.256,4.304,1.256c1.496,0,2.992-0.424,4.304-1.256
			l62.016-39.592h19.712c-0.096,0.512-0.232,0.968-0.296,1.504c-0.688,6.096,1.312,11.272,3.064,15.84
			c1.136,2.928,2.2,5.704,2.168,7.904c-0.024,1.664-0.656,3.824-1.32,6.104c-1.448,4.952-3.24,11.112-0.432,17.656
			c0.68,1.576,1.616,3.032,2.592,4.464c0.44,0.632,0.936,1.36,1.08,1.728c0.44,1.088-0.432,3.84-1.208,6.28
			c-1.104,3.472-2.352,7.408-2.104,11.888c0.568,10.408,9.664,18.92,20.008,18.92c0.216,0,0.44-0.008,0.664-0.016
			c8.824-0.296,16.336-6.776,18.576-15.032c2.496,2.512,5.272,4.616,8.168,6.048c3.024,1.504,6.616,2.44,10.232,2.44
			c4.568,0,9.168-1.496,12.704-5.176c0.112-0.112,0.168-0.24,0.272-0.352c0.648,2.744,1.864,5.536,4.32,7.976
			c2.512,2.512,5.872,4.12,9.976,4.768c1.216,0.184,2.448,0.28,3.672,0.28c8.112,0,16.128-4.072,20.768-10.792
			c5.328-7.744,5.776-18.424,1.112-26.584c-2.184-3.824-5.272-6.936-7.992-9.696c-2.912-2.944-5.92-6-5.576-7.76
			c0.08-0.424,0.416-1.208,0.736-1.968c0.64-1.512,1.432-3.4,1.8-5.704c1.232-7.848-3.24-13.72-6.504-18.008
			c-1.616-2.12-3.296-4.312-3.696-5.96c-0.136-0.56-0.088-1.16-0.008-1.784c0.24,0.608,0.368,1.224,0.648,1.824
			c3.136,6.696,8.52,11.616,13.272,15.96c5.04,4.608,9.392,8.584,9.848,13.184c0.104,1.04,0.048,2.104,0.016,3.168
			c-0.088,3.16-0.2,7.08,1.656,11.12c2.432,5.288,7.4,8.672,13.624,9.28c0.672,0.072,1.344,0.104,2.016,0.104
			c1.392,0,2.752-0.208,4.104-0.48v20.872h16v-36.368C488.254,439.107,488.246,433.307,486.862,426.915z M398.862,168.491h8
			c13.232,0,24,10.768,24,24s-10.768,24-24,24h-8V168.491z M384.302,115.147c0.208-0.144,1.024-0.304,3.208,0.272
			c0.32,0.968,0.6,1.896,0.76,2.768c0.52,2.832,0.12,6.184-0.312,9.744l-2.352,19.432l-31.016-20.672l0.336-0.6
			c0.712,0.448,1.44,0.848,2.184,1.192c9.064,4.168,18.648-1.016,23.712-7.6c0.504-0.656,1-1.344,1.48-2.04
			C382.958,116.715,383.862,115.435,384.302,115.147z M370.11,79.019c0.464-1.288,1.16-3.232,1.344-3.544
			c0.16-0.056,0.76-0.04,1.968,0.328c0.208,0.304,0.328,0.616,0.568,0.904c1.864,2.288,4.096,3.568,5.728,4.504
			c0.464,0.256,0.936,0.512,1.36,0.824c2.072,1.528,2.28,5.488,2.36,11.816c0.024,1.728,0.064,3.496,0.16,5.264
			c-2.608,0.2-5.288,0.888-7.864,2.528c-3.136,1.984-5.008,4.656-6.512,6.8l-1.072,1.48c-1.752,2.272-3.976,2.96-4.336,2.84
			c-0.448-0.208-0.864-0.52-1.304-0.808c-2.256-1.48-6.032-3.96-11.088-2.976c-0.216,0.04-0.36,0.16-0.568,0.216V98.011
			c7.88-2.216,14.536-7.864,17.848-15.368C369.222,81.491,369.678,80.259,370.11,79.019z M330.814,73.067
			c0.352-0.632,0.744-1.248,1.136-1.856c0.976-1.544,2.08-3.288,2.936-5.432c2.12-5.288,1.576-10.824-1.448-14.824
			c-0.64-0.864-1.328-1.552-2.024-2.144c0.072-0.128,0.16-0.256,0.256-0.392l1.072-1.432c1.616-2.104,3.68-4.944,4.624-8.664
			c0.648,0.88,1.36,2.024,1.912,2.936c1.288,2.12,2.752,4.528,4.84,6.704c4.744,4.92,11.024,6.976,16.568,8.784
			c3.416,1.12,5.968,2.056,7.584,3.104c-1.752,0.36-3.52,0.96-5.248,2.072c-4.912,3.144-6.68,8.104-7.984,11.728
			c-0.304,0.856-0.6,1.712-0.968,2.528c-1.216,2.736-3.592,4.904-6.376,6.048c-1.76-1.352-3.968-1.976-6.16-1.616l-12.208,2.032
			C328.782,79.387,329.23,75.939,330.814,73.067z M299.822,65.051c-0.152-0.28-0.328-0.616-0.496-0.936
			c0.664-0.76,1.296-1.544,1.824-2.4c4.12-6.648,1.4-13.256-0.392-17.632c-0.672-1.64-1.504-3.672-1.496-4.64
			c0.016-1.112,1.584-3.256,2.96-5.152c2.344-3.208,5.128-7.2,5.832-12.424c1.592,0.448,2.904,1.12,3.688,2.208
			c0.488,0.696,0.856,1.464,1.248,2.216c1.288,2.48,3.048,5.872,6.648,8.24c0.576,0.384,1.168,0.576,1.752,0.856
			c-0.4,0.608-0.896,1.288-1.336,1.856c-0.488,0.632-0.968,1.264-1.432,1.912c-4.304,6.072-4.832,12.944-1.376,17.936
			c0.832,1.2,1.776,2.112,2.712,2.904c-0.4,0.936-0.984,1.776-1.52,2.64c-0.552,0.864-1.104,1.752-1.608,2.664
			c-3.36,6.08-4.312,13.176-3.184,19.936l-14.4,2.4c-0.136-0.936-0.104-1.888,0.248-2.728c0.208-0.504,0.472-0.992,0.728-1.488
			c1.064-2.04,2.512-4.832,2.584-8.472C302.886,70.787,301.118,67.467,299.822,65.051z M268.686,18.435
			c-0.192,0.168-0.4,0.336-0.712,0.472l-0.304-0.712C268.006,18.275,268.342,18.347,268.686,18.435z M262.758,40.939
			c0.448-0.92,1.088-1.744,1.696-2.576c1.472-2.048,3.312-4.592,4.256-8c0.936-3.368,0.696-6.48,0.504-8.976
			c-0.056-0.752-0.12-1.496-0.128-2.248c0-0.24,0.024-0.408,0.048-0.584c0.312,0.072,0.616,0.144,0.936,0.216
			c6.688,1.592,13.608,3.224,20.952,2.904l0.472-0.032c-0.592,1.016-1.408,2.16-2.192,3.24c-2.64,3.616-5.928,8.128-6.032,14.304
			c-0.072,4.264,1.464,7.992,2.688,10.984c0.44,1.072,1.072,2.6,1.28,3.48c-0.064,0.072-0.128,0.136-0.184,0.2
			c-0.904,0.984-2.264,2.48-3.192,4.656c-2.504,5.92,0.224,11.032,1.848,14.088c0.416,0.776,1.056,1.936,1.144,1.736
			c-0.08,0.304-0.504,1.128-0.824,1.72c-0.464,0.896-0.92,1.8-1.304,2.712c-1.512,3.632-1.808,7.64-1.192,11.504l-11.992,2
			c-0.872-1.352-1.432-2.928-1.432-4.488c0-2.48,1.12-5.424,2.304-8.536c0.488-1.28,0.968-2.56,1.4-3.84
			c0.712-2.088,1.376-4.624,0.928-7.552c-0.52-3.464-2.424-5.992-3.456-7.36l-1.672-2.192c-2.416-3.136-4.704-6.104-6.104-9.168
			C262.094,46.043,261.806,42.907,262.758,40.939z M245.598,16.387c0.84,0.144,1.688,0.144,2.52,0
			c1.784-0.28,3.56-0.384,5.328-0.368c-0.16,1.072-0.376,2.128-0.36,3.28c0.008,1.096,0.088,2.192,0.176,3.296
			c0.104,1.312,0.216,2.808,0.032,3.464c-0.176,0.656-1.056,1.864-1.824,2.936c-1.144,1.584-2.256,3.192-3.104,4.944
			c-0.688,1.416-1.144,2.928-1.504,4.472c-0.36-1.544-0.816-3.064-1.504-4.472c-0.848-1.752-1.96-3.368-3.104-4.952
			c-0.768-1.072-1.648-2.28-1.824-2.912c-0.184-0.664-0.072-2.16,0.032-3.472c0.088-1.104,0.168-2.208,0.176-3.304
			c0.008-1.152-0.2-2.208-0.368-3.28C242.038,16.003,243.814,16.107,245.598,16.387z M235.198,70.131l1.576-2.064
			c2.856-3.704,5.816-7.536,7.984-12.272c1-2.184,1.648-4.384,2.104-6.584c0.456,2.2,1.104,4.408,2.104,6.584
			c2.168,4.72,5.12,8.552,7.976,12.256l1.576,2.056c0.048,0.064,0.096,0.128,0.144,0.184c-0.368,1.096-0.784,2.176-1.192,3.272
			c-1.568,4.128-3.336,8.8-3.344,14.184c0,2.472,0.512,4.872,1.248,7.208l-8.512,1.424l-8.504-1.416
			c0.736-2.328,1.256-4.728,1.248-7.2c0-5.4-1.776-10.072-3.344-14.192c-0.408-1.088-0.824-2.168-1.192-3.272
			C235.11,70.243,235.158,70.179,235.198,70.131z M226.054,18.195l-0.304,0.712c-0.312-0.136-0.512-0.304-0.712-0.472
			C225.382,18.355,225.718,18.275,226.054,18.195z M202.702,21.651c7.336,0.344,14.264-1.288,20.96-2.896
			c0.312-0.08,0.624-0.144,0.936-0.216c0.024,0.184,0.048,0.352,0.048,0.592c-0.008,0.752-0.072,1.504-0.128,2.248
			c-0.192,2.496-0.432,5.592,0.504,8.984c0.944,3.392,2.784,5.936,4.256,7.976c0.608,0.84,1.248,1.664,1.688,2.584
			c0.952,1.96,0.664,5.112-0.744,8.192c-1.408,3.072-3.696,6.04-6.12,9.176l-1.68,2.192c-1.016,1.352-2.92,3.88-3.44,7.328
			c-0.456,2.944,0.208,5.488,0.92,7.56c0.432,1.288,0.92,2.568,1.4,3.848c1.184,3.12,2.304,6.064,2.304,8.536
			c0,1.56-0.56,3.128-1.432,4.488l-11.992-2c0.616-3.864,0.328-7.88-1.184-11.512c-0.384-0.912-0.832-1.808-1.304-2.696
			c-0.304-0.592-0.728-1.376-0.808-1.112c0.104-0.44,0.712-1.584,1.12-2.344c1.632-3.056,4.36-8.168,1.848-14.112
			c-0.92-2.168-2.288-3.656-3.184-4.64c-0.064-0.072-0.128-0.144-0.184-0.2c0.208-0.872,0.832-2.408,1.272-3.48
			c1.232-2.992,2.768-6.72,2.696-10.984c-0.104-6.176-3.392-10.688-6.032-14.304c-0.784-1.08-1.6-2.224-2.192-3.24L202.702,21.651z
			 M174.07,34.555c3.616-2.392,5.376-5.792,6.664-8.264c0.392-0.752,0.76-1.512,1.24-2.192c0.776-1.088,2.088-1.76,3.68-2.208
			c0.704,5.224,3.496,9.216,5.832,12.424c1.376,1.888,2.944,4.04,2.96,5.152c0.016,0.968-0.824,3-1.496,4.632
			c-1.8,4.384-4.52,10.992-0.392,17.64c0.528,0.848,1.16,1.64,1.824,2.4c-0.168,0.32-0.344,0.664-0.496,0.936
			c-1.296,2.424-3.064,5.736-2.992,9.904c0.072,3.632,1.528,6.432,2.592,8.472c0.256,0.496,0.52,0.984,0.728,1.472
			c0.352,0.84,0.384,1.8,0.248,2.736l-14.28-2.376c1.128-6.768,0.064-13.88-3.304-19.96c-0.504-0.912-1.056-1.808-1.616-2.688
			c-0.488-0.768-1-1.52-1.472-2.632c0.776-0.672,1.784-1.608,2.672-2.896c3.456-4.992,2.92-11.864-1.376-17.928
			c-0.456-0.64-0.944-1.28-1.432-1.92c-0.432-0.568-0.936-1.248-1.328-1.848C172.91,35.131,173.494,34.931,174.07,34.555z
			 M245.542,112.387c0.872,0.144,1.76,0.144,2.632,0l86.688-14.448v30.552c0,2.672,1.336,5.168,3.56,6.656l44.44,29.624v51.72
			c-22.056,0-40,17.944-40,40c0,13.232-10.768,24-24,24h-16.808c-3.712-18.232-19.88-32-39.192-32h-32
			c-19.32,0-35.48,13.768-39.192,32h-16.808c-13.232,0-24-10.768-24-24c0-22.056-17.944-40-40-40v-51.72l44.44-29.624
			c2.224-1.488,3.56-3.984,3.56-6.656V97.939L245.542,112.387z M133.038,56.739c5.544-1.808,11.824-3.856,16.568-8.784
			c2.096-2.168,3.552-4.576,4.84-6.696c0.552-0.912,1.264-2.056,1.912-2.936c0.936,3.712,3,6.552,4.616,8.656l1.072,1.44
			c0.096,0.128,0.168,0.248,0.248,0.368c-0.624,0.56-1.336,1.264-2.024,2.168c-3.008,3.992-3.552,9.52-1.448,14.808
			c0.856,2.152,1.96,3.888,2.928,5.424c0.392,0.616,0.784,1.232,1.136,1.872c1.592,2.872,2.04,6.32,1.496,9.584l-12.2-2.032
			c-1.952-0.328-3.84,0.224-5.488,1.256c-2.376-1.224-4.352-3.256-5.432-5.688c-0.352-0.808-0.656-1.664-0.96-2.512
			c-1.296-3.632-3.072-8.6-7.992-11.752c-2.128-1.36-4.312-2.04-6.464-2.312C127.486,58.651,129.894,57.771,133.038,56.739z
			 M110.286,93.835c0.08-6.312,0.28-10.264,2.36-11.8c0.424-0.304,0.896-0.56,1.36-0.824c1.632-0.936,3.856-2.216,5.712-4.496
			c0.032-0.04,0.048-0.08,0.08-0.12c2.752-1.152,3.792-1.2,3.816-1.272c0.464,0.464,1.16,2.416,1.624,3.712
			c0.44,1.224,0.88,2.448,1.392,3.6c3.088,6.984,9.096,12.256,16.232,14.768v11.536c-4.488-0.448-7.952,1.648-10.032,3.016
			c-0.432,0.28-0.848,0.592-1.288,0.8c-0.368,0.16-2.592-0.552-4.344-2.832l-1.056-1.472c-1.504-2.152-3.392-4.824-6.528-6.824
			c-3.104-1.968-6.376-2.648-9.48-2.632C110.222,97.259,110.27,95.531,110.286,93.835z M105.454,118.187
			c0.128-0.688,0.344-1.432,0.584-2.184c3.608-1.224,4.76-0.992,4.992-0.848c0.456,0.288,1.36,1.576,2.016,2.512
			c0.48,0.68,0.96,1.368,1.472,2.024c5.072,6.576,14.648,11.784,23.728,7.592c0.024-0.008,0.04-0.024,0.064-0.032l-30.192,20.128
			l-2.352-19.44C105.334,124.387,104.934,121.027,105.454,118.187z M62.862,192.491c0-13.232,10.768-24,24-24h8v48h-8
			C73.63,216.491,62.862,205.723,62.862,192.491z M57.582,365.235c-1.592,3.952-2.232,7.976-2.52,11.904l-0.072,0.008
			c0.008,0.104,0.048,0.192,0.056,0.296c-0.192,2.792-0.24,5.544-0.24,8.128c-0.008,5.6-0.008,10.888-1.904,14.928
			c-1.792,3.824-5.568,7.28-9.576,10.944c-6.512,5.96-13.904,12.72-14.968,23.4c-0.168,1.712-0.144,3.472-0.096,5.216
			c0.04,1.488,0.096,3.328-0.072,3.824c-0.768,0.536-3.776,0.144-4.864-1.36c-0.232-0.32-0.288-0.76-0.464-1.12v-13.2
			c0.024-0.08,0.04-0.2,0.064-0.28c0.512-1.816,1.112-3.608,1.704-5.416c1.8-5.448,3.84-11.624,3.872-18.344
			c0.008-1.872-0.152-3.776-0.32-5.664c-0.224-2.528-0.44-4.92,0.016-6.584c0.752-2.744,3.816-5.472,7.056-8.36
			c4.6-4.104,10.336-9.2,12.008-17.072c0.632-2.952,0.544-5.656,0.472-8.04c-0.04-1.184-0.104-2.376,0.024-3.552
			c0.256-2.424,1.56-5.224,2.944-8.2c2.296-4.928,4.896-10.52,4.32-17.288c-0.232-2.744-0.968-5.144-1.608-7.248
			c-0.528-1.736-1.032-3.376-0.96-4.4c0.104-1.632,1.848-4.104,3.536-6.496c3.048-4.296,7.216-10.192,6.104-17.8
			c-0.4-2.728-1.408-4.952-2.216-6.744c-0.304-0.672-0.624-1.344-0.848-2.04c-1.664-5.08,4.192-11.672,11.336-14.92
			c4.008-1.816,10.712-4.848,12.584-12.12c0.968-3.744,0.184-7.032-0.376-9.432l-0.224-0.96c-1.096-5.096,0.16-10.632,3.136-14.904
			c0.464,0.032,0.904,0.152,1.376,0.152h8.856c0.856,8.12,2.488,15.992,4.576,23.688c-0.8,0.776-2.272,1.864-3.344,2.656
			c-3.272,2.4-7.344,5.384-9.424,10.08c-2.16,4.856-1.656,9.736-1.256,13.656c0.168,1.608,0.44,4.296,0.16,4.936
			c-0.224,0.248-1.064,0.8-1.672,1.192c-1.128,0.736-2.24,1.488-3.24,2.344c-6.736,5.744-9.04,15.688-6.32,27.28
			c0.384,1.648,0.84,3.288,1.296,4.936c1.232,4.496,2.4,8.736,1.8,12.24c-0.784,4.6-4.584,8.664-8.976,13.376
			C65.078,353.411,60.278,358.555,57.582,365.235z M89.958,419.147c-2.488,8.312-5.304,17.728-2.944,27.648l0.312,1.248
			c0.048,0.168,0.096,0.368,0.144,0.56c-0.392,0.192-0.824,0.392-1.176,0.544c-0.896,0.416-1.792,0.824-2.624,1.272
			c-6.096,3.28-10.48,9.304-11.72,16.104c-0.376,2.04-0.472,4.2-0.536,6.352c-0.04,1.472-0.112,3.928-0.304,4.4
			c0,0-0.328,0.208-1.232,0.352c-3.216,0.496-6.936-1.08-8.792-3.776c-1.856-2.696-2.024-6.72-0.4-9.552
			c1.152-2.008,3.256-4.152,5.496-6.408c5.008-5.072,11.88-12.024,9.888-22.112c-0.4-2.016-1.112-3.712-1.688-5.072
			c-0.304-0.72-0.672-1.6-0.736-1.976c-0.168-1.104,1.824-3.72,3.432-5.832c2.48-3.256,5.296-6.944,6.496-11.816
			c2.432-9.824-2.904-17.712-7.192-24.048c-2.456-3.64-4.712-7.072-5.232-10.112c0.224-2.048,0.584-3.984,1.28-5.704
			c1.576-3.912,4.984-7.56,8.592-11.432c5.368-5.752,11.464-12.272,13.056-21.584c1.2-7.024-0.576-13.488-2.152-19.192
			c-0.4-1.448-0.8-2.896-1.144-4.344c-1.248-5.312-0.808-9.808,1.136-11.464c0.488-0.424,1.04-0.752,1.584-1.112
			c1.616-1.048,3.624-2.36,5.376-4.528c4.448-5.512,3.8-11.936,3.32-16.624c-0.208-2.04-0.464-4.568-0.04-5.536
			c0.344-0.704,2.064-2.04,3.472-3.08c4.48,11.288,10.256,21.904,17.176,31.688c-9.352,5.08-16.328,14.56-17.76,25.2
			c-0.528,3.936-0.32,7.776-0.136,11.168c0.176,3.328,0.344,6.48-0.192,9.136c-0.76,3.792-3.152,7.64-5.68,11.728
			c-3.336,5.384-7.112,11.488-8.048,18.968c-0.672,5.392,0.28,10.44,1.12,14.888c0.504,2.672,0.984,5.2,1.064,7.52
			C93.366,407.755,91.71,413.283,89.958,419.147z M121.686,367.851c-0.744,1.904-2.432,3.96-4.216,6.136
			c-2.536,3.096-5.416,6.6-7.032,11.272c-3.552,10.256,0.768,20.128,4.24,28.056l0.344,0.8c3.2,7.344,3.856,12.456,1.968,15.2
			c-0.688,0.992-1.632,1.832-2.52,2.712c-2.624,2.552-6.208,6.048-7.2,11.512c-0.992,5.472,0.976,9.816,3.44,13.344
			c0.568,4.352-3,10.104-7.976,12.576c-2.088,1.04-4,0.792-4.256,0.52c-0.472-0.496-0.984-2.496-1.352-3.968
			c-0.296-1.184-0.648-2.512-1.112-3.872c2.616-1.48,5.488-3.712,6.912-7.608c1.528-4.176,0.544-7.984-0.112-10.504l-0.24-0.928
			c-1.368-5.744,0.616-12.36,2.704-19.36c2.048-6.848,4.168-13.936,3.88-21.712c-0.136-3.52-0.744-6.768-1.336-9.896
			c-0.68-3.616-1.328-7.032-0.968-9.936c0.504-4.016,3.064-8.152,5.776-12.528c3.008-4.864,6.424-10.384,7.76-16.984
			c0.936-4.656,0.696-9.168,0.48-13.168c-0.16-2.936-0.312-5.72,0.016-8.168c0.872-6.496,5.936-12.344,12.168-14.424
			c3.992,4.512,8.24,8.776,12.728,12.784c-0.376,0.24-0.864,0.496-1.44,0.688c-0.952,0.32-1.936,0.568-2.92,0.824
			c-3.232,0.832-7.264,1.88-10.832,4.736c-7.632,6.112-7.76,15.104-7.864,22.336C122.67,361.963,122.622,365.435,121.686,367.851z
			 M155.27,368.131c-9.384,5.28-14.592,16.744-12.408,27.272c0.336,1.624,0.84,3.208,1.368,4.792c0.448,1.36,0.872,2.64,0.984,3.6
			c0.248,2.192-0.84,5.016-2.104,8.288c-1.552,4.024-3.312,8.592-3.232,13.896c0.056,3.832,1.064,7.296,1.96,10.352
			c0.8,2.752,1.632,5.592,1.088,6.856c-0.264,0.624-0.696,1.16-1.08,1.712c-0.856,1.248-1.92,2.8-2.712,4.76
			c-2.624,6.448-0.736,12.384,0.776,17.152c0.752,2.376,1.464,4.616,1.376,6.184c-0.096,1.832-2.6,3.616-4.152,3.792
			c-1.84-0.064-3.904-2.232-3.88-4.064c0.008-0.648,0.112-1.288,0.2-1.936c0.216-1.592,0.488-3.584,0.264-5.856
			c-0.616-6.176-4.368-10.568-7.392-14.096c-1.176-1.376-3.152-3.68-3.304-4.416c0.2-0.576,1.664-2,2.632-2.936
			c1.456-1.424,3.096-3.024,4.52-5.08c7.92-11.464,1.616-25.928-0.456-30.696l-0.36-0.816c-2.6-5.928-5.28-12.064-3.784-16.4
			c0.68-1.968,2.432-4.096,4.28-6.352c2.392-2.904,5.096-6.2,6.768-10.504c1.984-5.096,2.056-10.424,2.12-15.12
			c0.072-5.24,0.248-8.776,1.864-10.072c0.896-0.712,2.816-1.208,4.84-1.736c1.344-0.352,2.696-0.704,4-1.144
			c3.696-1.24,6.704-3.272,8.912-5.752c2.248,1.624,4.536,3.184,6.872,4.68c-1.984,3.36-3.112,7.416-3.216,11.472l-0.024,2.584
			c0,2.144,0,5.736-0.72,6.496c-0.376,0.392-1.776,1.032-2.792,1.504C157.39,367.043,156.302,367.555,155.27,368.131z
			 M146.326,330.363c-0.008-0.064,0.008-0.104,0.008-0.168c0.056,0.048,0.112,0.104,0.168,0.152L146.326,330.363z M174.862,384.491
			h-14.36c0.728-0.96,1.568-1.816,2.592-2.392c0.664-0.368,1.36-0.68,2.056-1c2.328-1.072,5.216-2.4,7.728-5.032
			c0.792-0.832,1.424-1.712,1.984-2.616V384.491z M302.87,388.107h-0.008l-56,35.744l-56-35.744v-30.416
			c0.424,0.168,0.856,0.28,1.28,0.44c3.896,1.512,7.84,2.912,11.88,4.104c0.952,0.28,1.928,0.48,2.888,0.744
			c3.672,1,7.36,1.952,11.136,2.68c1.192,0.232,2.408,0.352,3.6,0.552c3.584,0.6,7.16,1.192,10.824,1.544
			c1.12,0.104,2.24,0.088,3.36,0.168c3.656,0.272,7.304,0.568,11.032,0.568c3.728,0,7.376-0.296,11.04-0.56
			c1.12-0.08,2.24-0.064,3.36-0.168c3.664-0.344,7.24-0.936,10.824-1.544c1.2-0.2,2.408-0.32,3.6-0.552
			c3.776-0.728,7.464-1.68,11.136-2.68c0.96-0.264,1.928-0.464,2.888-0.744c4.04-1.192,7.984-2.592,11.88-4.104
			c0.424-0.168,0.856-0.272,1.28-0.44V388.107z M306.702,338.435c-4.328,2.128-8.744,4.008-13.216,5.648
			c-0.48,0.176-0.952,0.36-1.44,0.528c-4.464,1.584-8.984,2.912-13.552,4.016c-0.4,0.096-0.792,0.216-1.192,0.304
			c-20.04,4.632-40.856,4.632-60.896,0c-0.4-0.088-0.784-0.208-1.184-0.304c-4.568-1.096-9.096-2.432-13.56-4.016
			c-0.48-0.168-0.96-0.352-1.44-0.528c-4.472-1.64-8.888-3.52-13.216-5.648c-40.432-19.928-69.584-59.256-75.112-105.832
			c12.752,0.552,22.968,11.008,22.968,23.888c0,22.056,17.944,40,40,40h24c4.416,0,8-3.576,8-8c0-13.232,10.768-24,24-24h32
			c13.232,0,24,10.768,24,24c0,4.424,3.584,8,8,8h24c22.056,0,40-17.944,40-40c0-12.88,10.216-23.336,22.96-23.896
			C376.286,279.179,347.142,318.507,306.702,338.435z M347.398,330.363l-0.176-0.016c0.056-0.048,0.112-0.104,0.168-0.152
			C347.39,330.259,347.406,330.299,347.398,330.363z M318.862,384.491v-11.04c0.568,0.904,1.2,1.784,1.992,2.624
			c2.496,2.624,5.392,3.952,7.72,5.024c0.696,0.32,1.392,0.632,2.048,1c1.024,0.576,1.864,1.432,2.592,2.392H318.862z
			 M367.382,450.859c-3.016,3.52-6.776,7.912-7.392,14.096c-0.224,2.264,0.04,4.248,0.256,5.848c0.088,0.64,0.192,1.28,0.2,1.936
			c0.048,1.816-2.024,3.984-3.872,4.048c-1.656-0.032-4.048-1.96-4.144-3.8c-0.088-1.56,0.624-3.808,1.376-6.176
			c1.512-4.768,3.4-10.704,0.784-17.144c-0.8-1.968-1.864-3.512-2.72-4.768c-0.384-0.552-0.816-1.088-1.08-1.712
			c-0.544-1.264,0.288-4.112,1.088-6.856c0.888-3.056,1.904-6.52,1.96-10.352c0.072-5.304-1.68-9.864-3.232-13.896
			c-1.264-3.264-2.344-6.096-2.104-8.296c0.112-0.96,0.536-2.24,0.984-3.6c0.52-1.576,1.032-3.16,1.368-4.784
			c2.184-10.528-3.032-21.992-12.408-27.256c-1.032-0.576-2.12-1.088-3.208-1.584c-1.016-0.472-2.416-1.112-2.776-1.496
			c-0.728-0.776-0.736-4.36-0.744-6.504l-0.024-2.584c-0.104-4.056-1.224-8.112-3.208-11.472c2.344-1.496,4.624-3.064,6.872-4.68
			c2.208,2.472,5.224,4.504,8.912,5.752c1.304,0.44,2.656,0.792,4,1.144c2.024,0.52,3.944,1.024,4.84,1.744
			c1.616,1.288,1.784,4.832,1.856,10.072c0.064,4.688,0.144,10.016,2.12,15.112c1.664,4.304,4.376,7.6,6.768,10.512
			c1.856,2.248,3.6,4.384,4.288,6.344c1.504,4.336-1.184,10.472-3.784,16.4l-0.36,0.832c-2.072,4.752-8.384,19.216-0.456,30.688
			c1.416,2.056,3.064,3.656,4.512,5.08c0.968,0.936,2.424,2.36,2.624,2.808C370.526,447.179,368.558,449.483,367.382,450.859z
			 M396.59,466.011c-0.36,1.472-0.872,3.48-1.336,3.976c-0.248,0.256-2.176,0.496-4.264-0.52c-4.976-2.472-8.544-8.232-7.992-12.584
			c2.464-3.528,4.424-7.864,3.44-13.336c-0.992-5.472-4.576-8.96-7.2-11.512c-0.888-0.872-1.832-1.72-2.52-2.712
			c-1.904-2.752-1.24-7.864,1.96-15.192l0.352-0.808c3.472-7.928,7.792-17.8,4.24-28.056c-1.616-4.672-4.496-8.176-7.04-11.272
			c-1.784-2.168-3.472-4.216-4.208-6.136c-0.936-2.416-0.992-5.88-1.04-9.552c-0.104-7.232-0.232-16.232-7.864-22.336
			c-3.568-2.856-7.592-3.904-10.832-4.744c-0.984-0.248-1.968-0.496-2.92-0.824c-0.576-0.192-1.064-0.448-1.44-0.688
			c4.488-4.016,8.744-8.272,12.728-12.784c6.224,2.08,11.296,7.92,12.168,14.416c0.328,2.456,0.176,5.224,0.016,8.168
			c-0.216,3.984-0.464,8.504,0.48,13.168c1.336,6.6,4.752,12.128,7.768,16.992c2.712,4.376,5.272,8.504,5.776,12.52
			c0.36,2.904-0.28,6.32-0.968,9.936c-0.592,3.136-1.208,6.376-1.336,9.896c-0.288,7.776,1.832,14.856,3.88,21.72
			c2.096,7,4.072,13.608,2.704,19.352l-0.24,0.936c-0.656,2.504-1.64,6.312-0.112,10.504c1.432,3.896,4.296,6.12,6.912,7.6
			C397.246,463.507,396.894,464.827,396.59,466.011z M427.55,457.891c2.232,2.256,4.336,4.4,5.488,6.4
			c1.624,2.84,1.456,6.864-0.4,9.56c-1.864,2.696-5.56,4.264-8.792,3.776c-0.696-0.104-1.064-0.256-1.104-0.24
			c-0.328-0.728-0.4-3.08-0.44-4.504c-0.064-2.152-0.16-4.312-0.536-6.352c-1.248-6.808-5.632-12.824-11.72-16.096
			c-0.832-0.456-1.728-0.856-2.632-1.272c-0.344-0.16-0.776-0.352-1.168-0.544c0.048-0.192,0.096-0.392,0.144-0.552l0.32-1.256
			c2.36-9.912-0.456-19.336-2.944-27.64c-1.752-5.864-3.408-11.408-3.216-16.536c0.08-2.32,0.56-4.848,1.064-7.52
			c0.84-4.456,1.8-9.504,1.12-14.888c-0.936-7.488-4.712-13.584-8.048-18.968c-2.528-4.08-4.92-7.936-5.68-11.728
			c-0.536-2.664-0.368-5.808-0.184-9.144c0.184-3.384,0.392-7.216-0.136-11.168c-1.432-10.632-8.408-20.104-17.76-25.192
			c6.92-9.784,12.696-20.4,17.176-31.688c1.408,1.04,3.128,2.376,3.464,3.072c0.432,0.976,0.168,3.512-0.032,5.552
			c-0.48,4.68-1.128,11.104,3.32,16.616c1.752,2.168,3.768,3.488,5.376,4.528c0.544,0.36,1.096,0.688,1.6,1.12
			c1.928,1.648,2.368,6.144,1.12,11.456c-0.336,1.456-0.744,2.904-1.144,4.368c-1.568,5.704-3.344,12.16-2.144,19.168
			c1.592,9.312,7.68,15.832,13.056,21.592c3.608,3.856,7.008,7.504,8.592,11.424c0.688,1.72,1.048,3.664,1.272,5.712
			c-0.528,3.04-2.776,6.464-5.232,10.104c-4.288,6.344-9.624,14.232-7.192,24.056c1.2,4.864,4.016,8.552,6.496,11.824
			c1.608,2.104,3.6,4.72,3.432,5.816c-0.056,0.376-0.432,1.264-0.736,1.984c-0.576,1.36-1.288,3.056-1.688,5.08
			C415.67,445.867,422.534,452.819,427.55,457.891z M470.854,441.411c-0.168,0.352-0.224,0.792-0.456,1.112
			c-1.088,1.504-4.088,1.912-4.736,1.504c-0.296-0.632-0.24-2.488-0.192-3.968c0.048-1.752,0.08-3.504-0.096-5.216
			c-1.064-10.688-8.456-17.44-14.976-23.4c-4-3.664-7.792-7.128-9.584-10.944c-1.888-4.04-1.888-9.328-1.896-14.928
			c0-2.584-0.048-5.328-0.24-8.12c0.008-0.104,0.048-0.192,0.056-0.296l-0.072-0.008c-0.288-3.92-0.928-7.952-2.52-11.904
			c-2.688-6.68-7.496-11.824-11.736-16.36c-4.4-4.712-8.192-8.776-8.984-13.376c-0.6-3.504,0.568-7.736,1.8-12.224
			c0.456-1.656,0.904-3.304,1.296-4.952c2.72-11.592,0.416-21.536-6.304-27.272c-1.008-0.864-2.128-1.616-3.256-2.352
			c-0.608-0.4-1.448-0.944-1.632-1.136c-0.328-0.704-0.048-3.392,0.112-5c0.4-3.92,0.896-8.8-1.256-13.656
			c-2.08-4.688-6.152-7.68-9.424-10.08c-1.072-0.792-2.544-1.88-3.344-2.656c2.088-7.696,3.72-15.568,4.576-23.688h8.872
			c0.472,0,0.912-0.12,1.376-0.136c2.976,4.272,4.232,9.808,3.136,14.904l-0.224,0.984c-0.56,2.392-1.336,5.672-0.368,9.408
			c1.872,7.264,8.576,10.304,13.216,12.408c6.504,2.96,12.36,9.552,10.704,14.624c-0.232,0.696-0.544,1.368-0.856,2.04
			c-0.808,1.792-1.816,4.016-2.216,6.76c-1.12,7.592,3.056,13.496,6.104,17.8c1.688,2.384,3.44,4.848,3.544,6.488
			c0.072,1.024-0.432,2.664-0.968,4.4c-0.648,2.112-1.368,4.496-1.608,7.248c-0.576,6.768,2.024,12.352,4.32,17.28
			c1.376,2.976,2.688,5.792,2.944,8.216c0.128,1.176,0.064,2.368,0.024,3.56c-0.072,2.376-0.16,5.072,0.472,8.016
			c1.672,7.872,7.408,12.976,12.016,17.088c3.24,2.88,6.304,5.608,7.048,8.352c0.456,1.664,0.248,4.056,0.016,6.592
			c-0.168,1.88-0.328,3.784-0.32,5.656c0.024,6.72,2.064,12.888,3.864,18.344c0.6,1.8,1.192,3.6,1.704,5.416
			c0.024,0.08,0.04,0.2,0.064,0.28V441.411z"/>
	</g>
</g>
<g>
</g>
<g>
</g>
<g>
</g>
<g>
</g>
<g>
</g>
<g>
</g>
<g>
</g>
<g>
</g>
<g>
</g>
<g>
</g>
<g>
</g>
<g>
</g>
<g>
</g>
<g>
</g>
<g>
</g>
</svg>
