<?xml version="1.0" encoding="iso-8859-1"?>
<!-- Generator: Adobe Illustrator 19.0.0, SVG Export Plug-In . SVG Version: 6.00 Build 0)  -->
<svg version="1.1" id="Capa_1" xmlns="http://www.w3.org/2000/svg" xmlns:xlink="http://www.w3.org/1999/xlink" x="0px" y="0px"
	 viewBox="0 0 480 480" style="enable-background:new 0 0 480 480;" xml:space="preserve">
<g>
	<g>
		<path d="M424,384H312v-34.184c43.136-23.304,73.784-66.84,79.144-117.816H400c22.056,0,40-17.944,40-40c0-22.056-17.944-40-40-40
			h-8c0-8.896-0.92-17.56-2.392-26.04c-0.008-0.032,0.008-0.064,0.008-0.096c-0.016-0.104-0.048-0.2-0.064-0.304
			c-0.688-3.904-1.56-7.744-2.536-11.544c-0.224-0.88-0.44-1.76-0.68-2.632c-0.912-3.28-1.936-6.504-3.056-9.688
			c-0.52-1.496-1.064-2.976-1.632-4.448c-1-2.568-2.04-5.112-3.168-7.616c-0.984-2.192-2.04-4.336-3.12-6.464
			c-0.912-1.776-1.8-3.56-2.776-5.304c-1.688-3.032-3.504-5.96-5.384-8.848c-0.552-0.84-1.056-1.704-1.624-2.528
			c-13.512-19.904-31.56-36.232-52.568-47.752c-0.576-0.32-1.168-0.608-1.752-0.92c-3.504-1.856-7.072-3.584-10.72-5.176
			c-1.016-0.448-2.048-0.872-3.08-1.296c-3.28-1.336-6.608-2.552-9.984-3.664c-1.328-0.44-2.656-0.88-4-1.288
			c-3.192-0.952-6.44-1.76-9.712-2.504c-1.504-0.344-3-0.72-4.52-1.024c-3.352-0.656-6.76-1.128-10.176-1.56
			c-1.44-0.184-2.856-0.44-4.312-0.576C249.88,0.28,244.968,0,240,0C156.184,0,88,68.184,88,152h-8c-22.056,0-40,17.944-40,40
			c0,22.056,17.944,40,40,40h8.856c5.36,50.976,36.008,94.512,79.144,117.816V384H56c-30.872,0-56,25.128-56,56v40h16v-40
			c0-22.056,17.944-40,40-40h117.704l62.056,38.784c2.592,1.624,5.888,1.624,8.488,0L306.296,400H424c22.056,0,40,17.944,40,40v40
			h16v-40C480,409.128,454.872,384,424,384z M392,168h8c13.232,0,24,10.768,24,24s-10.768,24-24,24h-8V168z M88,216h-8
			c-13.232,0-24-10.768-24-24s10.768-24,24-24h8V216z M104.544,140.864c0.176-2.152,0.424-4.288,0.696-6.408
			c0.304-2.328,0.64-4.632,1.056-6.92c0.384-2.088,0.824-4.16,1.296-6.216c0.52-2.248,1.088-4.472,1.72-6.672
			c0.576-2.016,1.2-4.016,1.864-6c0.728-2.16,1.512-4.288,2.344-6.392c0.76-1.936,1.56-3.856,2.408-5.744
			c0.928-2.064,1.912-4.08,2.936-6.088c0.936-1.84,1.896-3.664,2.912-5.448c1.112-1.952,2.296-3.856,3.496-5.752
			c1.104-1.728,2.208-3.456,3.392-5.128c1.288-1.832,2.648-3.608,4.024-5.376c1.248-1.608,2.504-3.216,3.824-4.768
			c1.456-1.712,2.992-3.344,4.528-4.984c1.392-1.48,2.768-2.96,4.224-4.376c1.616-1.576,3.312-3.064,5.008-4.552
			c1.512-1.328,3.008-2.68,4.576-3.944c1.776-1.432,3.632-2.76,5.472-4.096c1.624-1.176,3.216-2.384,4.888-3.488
			c1.928-1.272,3.936-2.432,5.928-3.608c1.704-1.008,3.384-2.056,5.136-2.984c2.128-1.12,4.296-2.088,6.448-3.096
			c1.76-0.824,3.496-1.704,5.296-2.448c2.272-0.944,4.616-1.728,6.944-2.544c1.784-0.624,3.528-1.328,5.344-1.88
			c2.504-0.768,5.072-1.344,7.632-1.968c1.728-0.416,3.416-0.928,5.168-1.28c2.896-0.592,5.864-0.96,8.816-1.36
			c1.488-0.2,2.936-0.504,4.44-0.656C230.848,16.24,235.4,16,240,16c4.416,0,8.776,0.248,13.08,0.664
			c1.288,0.12,2.552,0.344,3.832,0.504c3.048,0.384,6.08,0.808,9.056,1.384c1.352,0.264,2.68,0.584,4.024,0.888
			c2.936,0.664,5.84,1.392,8.696,2.24c1.176,0.352,2.344,0.72,3.512,1.104c3.096,1.016,6.152,2.128,9.144,3.352
			c0.824,0.336,1.656,0.664,2.472,1.016c3.584,1.552,7.096,3.232,10.512,5.072c0.192,0.104,0.392,0.192,0.584,0.296
			c15.192,8.288,28.624,19.392,39.616,32.6c0.344,0.416,0.672,0.848,1.008,1.264c2.192,2.696,4.272,5.496,6.256,8.352
			c0.648,0.944,1.288,1.896,1.92,2.856c1.52,2.312,2.936,4.688,4.312,7.096c0.848,1.496,1.696,2.976,2.488,4.504
			c0.936,1.784,1.776,3.616,2.624,5.448c1,2.168,2.024,4.32,2.92,6.552c0.344,0.848,0.616,1.72,0.944,2.576
			c2.512,6.68,4.6,13.592,6.064,20.776c-11.912,10.92-31.096,17.84-53.08,19.192V104h-16c0,18.056-17.592,37.4-56,39.76V104h-16
			c0,18.056-17.592,37.4-56,39.76V104h-16c0,17.992-17.464,37.256-55.584,39.728C104.456,142.776,104.464,141.808,104.544,140.864z
			 M296.008,387.568l-56,35l-56-35V357.2c0.424,0.168,0.856,0.28,1.28,0.44c3.888,1.52,7.832,2.92,11.872,4.112
			c0.952,0.28,1.928,0.48,2.888,0.744c3.672,1,7.36,1.952,11.136,2.68c1.192,0.232,2.408,0.352,3.6,0.552
			c3.584,0.6,7.16,1.192,10.824,1.544c1.12,0.104,2.24,0.088,3.36,0.168c3.656,0.264,7.304,0.56,11.032,0.56
			c3.728,0,7.376-0.296,11.04-0.56c1.12-0.08,2.24-0.064,3.36-0.168c3.664-0.344,7.24-0.936,10.824-1.544
			c1.2-0.2,2.408-0.32,3.6-0.552c3.776-0.728,7.464-1.68,11.136-2.68c0.96-0.264,1.928-0.464,2.888-0.744
			c4.04-1.192,7.984-2.592,11.88-4.104c0.424-0.168,0.856-0.272,1.28-0.44V387.568z M299.816,337.952
			c-4.312,2.12-8.704,3.992-13.16,5.632c-0.488,0.184-0.984,0.368-1.472,0.544c-4.456,1.576-8.968,2.904-13.52,4.008
			c-0.408,0.096-0.808,0.216-1.216,0.312c-20.04,4.632-40.848,4.632-60.88,0c-0.408-0.096-0.808-0.216-1.216-0.312
			c-4.552-1.096-9.064-2.424-13.52-4.008c-0.496-0.176-0.984-0.36-1.472-0.544c-4.456-1.64-8.848-3.504-13.16-5.632
			C135.144,315.768,104,269.512,104,216v-56v-0.264c25.768-1.408,44.232-9.544,56-20.664V152c0,4.424,3.576,8,8,8
			c30.016,0,51.04-8.68,64-20.928V152c0,4.424,3.576,8,8,8c30.016,0,51.04-8.68,64-20.928V152c0,4.424,3.576,8,8,8
			c24.672,0,47.256-6.328,63.528-17.264c0.208,3.08,0.472,6.136,0.472,9.264v8v56C376,269.512,344.856,315.768,299.816,337.952z"/>
	</g>
</g>
<g>
	<g>
		<path d="M350.224,202.528c-3.44-12.792-16.656-20.384-29.392-16.968l-54.096,14.496c-12.784,3.432-20.4,16.616-16.968,29.4
			c2.88,10.712,12.6,17.792,23.184,17.792c2.056,0,4.144-0.264,6.208-0.824l54.096-14.496
			C346.04,228.496,353.656,215.312,350.224,202.528z M329.12,216.488l-40.784,10.928c0.72-2.64,0.832-5.472,0.072-8.304
			c-0.76-2.832-2.28-5.232-4.216-7.152l40.784-10.936c0.688-0.184,1.392-0.272,2.088-0.272c1.384,0,2.752,0.36,3.984,1.072
			c1.848,1.072,3.168,2.8,3.728,4.856C335.92,210.944,333.376,215.336,329.12,216.488z"/>
	</g>
</g>
<g>
	<g>
		<path d="M213.248,200.064l-54.096-14.496c-12.784-3.432-25.96,4.184-29.392,16.968s4.184,25.968,16.968,29.4l54.104,14.496
			c2.072,0.552,4.16,0.824,6.2,0.824c10.592,0,20.312-7.08,23.184-17.792C233.648,216.68,226.032,203.496,213.248,200.064z
			 M191.664,227.408L150.88,216.48c-4.256-1.136-6.792-5.536-5.656-9.8c0.552-2.064,1.872-3.792,3.728-4.856
			c1.232-0.712,2.6-1.072,3.984-1.072c0.696,0,1.4,0.088,2.088,0.272l40.784,10.928c-1.936,1.928-3.456,4.328-4.216,7.152
			C190.832,221.928,190.944,224.768,191.664,227.408z"/>
	</g>
</g>
<g>
	<g>
		<path d="M274.44,274.248c-19,18.328-49.888,18.328-68.888,0l-11.104,11.512c12.56,12.12,29.056,18.176,45.552,18.176
			c16.496,0,32.992-6.064,45.552-18.176L274.44,274.248z"/>
	</g>
</g>
<g>
</g>
<g>
</g>
<g>
</g>
<g>
</g>
<g>
</g>
<g>
</g>
<g>
</g>
<g>
</g>
<g>
</g>
<g>
</g>
<g>
</g>
<g>
</g>
<g>
</g>
<g>
</g>
<g>
</g>
</svg>
