<?xml version="1.0" encoding="iso-8859-1"?>
<!-- Generator: Adobe Illustrator 19.0.0, SVG Export Plug-In . SVG Version: 6.00 Build 0)  -->
<svg version="1.1" id="Capa_1" xmlns="http://www.w3.org/2000/svg" xmlns:xlink="http://www.w3.org/1999/xlink" x="0px" y="0px"
	 viewBox="0 0 480 480" style="enable-background:new 0 0 480 480;" xml:space="preserve">
<g>
	<g>
		<circle cx="184" cy="192" r="16"/>
	</g>
</g>
<g>
	<g>
		<circle cx="296" cy="192" r="16"/>
	</g>
</g>
<g>
	<g>
		<path d="M424,384H312v-34.184c43.136-23.304,73.784-66.84,79.144-117.816H400c22.056,0,40-17.944,40-40c0-22.056-17.944-40-40-40
			h-8V89.528C406.736,81.016,416,65.24,416,48c0-26.472-21.528-48-48-48c-12.008,0-23.264,4.416-32,12.352
			C327.264,4.416,316.008,0,304,0s-23.264,4.416-32,12.352C263.264,4.416,252.008,0,240,0s-23.264,4.416-32,12.352
			C199.264,4.416,188.008,0,176,0s-23.264,4.416-32,12.352C135.264,4.416,124.008,0,112,0C85.528,0,64,21.528,64,48
			c0,17.24,9.264,33.016,24,41.528V152h-8c-22.056,0-40,17.944-40,40c0,22.056,17.944,40,40,40h8.856
			c5.36,50.976,36.008,94.512,79.144,117.816V384H56c-30.872,0-56,25.12-56,56v40h16v-40c0-22.056,17.944-40,40-40h117.704
			l62.056,38.784c1.296,0.808,2.768,1.216,4.24,1.216s2.944-0.408,4.24-1.216L306.296,400H424c22.056,0,40,17.944,40,40v40h16v-40
			C480,409.12,454.872,384,424,384z M88,184v32h-8c-13.232,0-24-10.768-24-24s10.768-24,24-24h8V184z M400,168
			c13.232,0,24,10.768,24,24s-10.768,24-24,24h-8v-32v-16H400z M99.208,77.296C87.536,72.184,80,60.688,80,48
			c0-17.648,14.352-32,32-32c10.112,0,19.432,4.736,25.584,13c3.016,4.056,9.816,4.056,12.832,0c6.152-8.264,15.472-13,25.584-13
			s19.432,4.736,25.584,13c3.016,4.056,9.816,4.056,12.832,0c6.152-8.264,15.472-13,25.584-13s19.432,4.736,25.584,13
			c3.016,4.056,9.816,4.056,12.832,0c6.152-8.264,15.472-13,25.584-13s19.432,4.736,25.584,13c3.016,4.056,9.816,4.056,12.832,0
			c6.152-8.264,15.472-13,25.584-13c17.648,0,32,14.352,32,32c0,12.688-7.536,24.184-19.208,29.296
			C377.88,78.568,376,81.448,376,84.624V160v16h-16v-72c0-4.416-3.576-8-8-8H128c-4.424,0-8,3.584-8,8v72h-16v-16V84.624
			C104,81.448,102.12,78.568,99.208,77.296z M295.992,387.56l-56,35l-56-35V357.2c0.48,0.192,0.976,0.312,1.448,0.504
			c3.848,1.488,7.728,2.872,11.704,4.04c0.984,0.288,1.984,0.496,2.968,0.768c3.648,0.992,7.32,1.944,11.072,2.664
			c1.168,0.224,2.36,0.344,3.536,0.544c3.608,0.608,7.216,1.208,10.904,1.552c0.968,0.088,1.936,0.072,2.896,0.144
			c3.8,0.288,7.608,0.584,11.48,0.584s7.68-0.296,11.48-0.584c0.968-0.072,1.936-0.056,2.896-0.144
			c3.688-0.344,7.296-0.944,10.904-1.552c1.176-0.2,2.36-0.312,3.536-0.544c3.752-0.728,7.416-1.672,11.072-2.664
			c0.984-0.272,1.984-0.472,2.968-0.768c3.976-1.168,7.856-2.552,11.688-4.04c0.48-0.184,0.976-0.312,1.448-0.504V387.56z
			 M299.672,338.024c-4.256,2.088-8.584,3.928-12.984,5.544c-0.52,0.192-1.032,0.384-1.552,0.568c-4.448,1.576-8.96,2.904-13.504,4
			c-0.392,0.096-0.784,0.216-1.184,0.304c-20.048,4.632-40.864,4.632-60.904,0c-0.4-0.088-0.784-0.208-1.184-0.304
			c-4.552-1.096-9.056-2.424-13.504-4c-0.52-0.184-1.032-0.376-1.552-0.568c-4.392-1.616-8.728-3.464-12.984-5.544
			C135.208,315.864,104,269.568,104,216v-24h24c4.424,0,8-3.584,8-8v-72h208v72c0,4.416,3.576,8,8,8h24v24
			C376,269.568,344.792,315.864,299.672,338.024z"/>
	</g>
</g>
<g>
	<g>
		<path d="M256,240h-32c-26.472,0-48,21.528-48,48c0,4.416,3.576,8,8,8h112c4.424,0,8-3.584,8-8C304,261.528,282.472,240,256,240z
			 M193.016,280c3.552-13.784,16.104-24,30.984-24h32c14.88,0,27.432,10.216,30.984,24H193.016z"/>
	</g>
</g>
<g>
</g>
<g>
</g>
<g>
</g>
<g>
</g>
<g>
</g>
<g>
</g>
<g>
</g>
<g>
</g>
<g>
</g>
<g>
</g>
<g>
</g>
<g>
</g>
<g>
</g>
<g>
</g>
<g>
</g>
</svg>
