<?xml version="1.0" encoding="iso-8859-1"?>
<!-- Generator: Adobe Illustrator 19.0.0, SVG Export Plug-In . SVG Version: 6.00 Build 0)  -->
<svg version="1.1" id="Capa_1" xmlns="http://www.w3.org/2000/svg" xmlns:xlink="http://www.w3.org/1999/xlink" x="0px" y="0px"
	 viewBox="0 0 480 480" style="enable-background:new 0 0 480 480;" xml:space="preserve">
<g>
	<g>
		<path d="M424,392H312v-24h40c30.88,0,56-25.128,56-56v-88h8c22.056,0,40-17.944,40-40c0-22.056-17.944-40-40-40h-8v-40
			c0-28.152-20.904-51.456-48-55.36V8c0-4.424-3.584-8-8-8c-30.008,0-51.04,8.68-64,20.928V8c0-4.424-3.584-8-8-8
			c-30.008,0-51.04,8.68-64,20.928V8c0-4.424-3.584-8-8-8c-50.08,0-81.744,23.544-87.104,48.504C93.368,52.008,72,75.536,72,104v40
			h-8c-22.056,0-40,17.944-40,40c0,22.056,17.944,40,40,40h8v88c0,30.872,25.12,56,56,56h40v24H56c-30.88,0-56,25.128-56,56v32h16
			v-32c0-22.056,17.944-40,40-40h112v64c0,2.904,1.576,5.584,4.12,7c2.536,1.392,5.648,1.328,8.12-0.216L240,441.44l59.76,37.344
			c1.296,0.808,2.768,1.216,4.24,1.216c1.336,0,2.664-0.336,3.88-1c2.544-1.416,4.12-4.096,4.12-7v-64h112c22.056,0,40,17.944,40,40
			v32h16v-32C480,417.128,454.88,392,424,392z M408,160h8c13.232,0,24,10.768,24,24s-10.768,24-24,24h-8V160z M72,208h-8
			c-13.232,0-24-10.768-24-24s10.768-24,24-24h8V208z M360,80V64.808C378.232,68.52,392,84.68,392,104v31.192
			c-0.008,0-0.016,0-0.024,0c-0.144-0.032-0.28-0.096-0.424-0.128c-2.296-0.496-4.52-1.2-6.656-2.072
			c-0.768-0.312-1.472-0.736-2.216-1.104c-1.456-0.704-2.888-1.432-4.24-2.304c-0.792-0.512-1.528-1.096-2.288-1.664
			c-1.184-0.888-2.344-1.816-3.424-2.832c-0.712-0.664-1.384-1.368-2.04-2.088c-0.992-1.072-1.92-2.2-2.784-3.376
			c-0.576-0.784-1.144-1.576-1.664-2.4c-0.8-1.264-1.496-2.6-2.152-3.96c-0.408-0.848-0.848-1.68-1.192-2.552
			c-0.608-1.536-1.064-3.136-1.48-4.76c-0.208-0.792-0.48-1.552-0.64-2.36C360.288,101.136,360,98.6,360,96V80z M136,56
			c0-18.096,25.384-37.392,64-39.76V56h16c0-18.056,17.592-37.4,56-39.76V56h16c0-18.056,17.592-37.4,56-39.76V56v16H136V56z
			 M122.712,132.128c0.456-0.536,0.888-1.096,1.32-1.656c0.632-0.8,1.248-1.608,1.832-2.448c0.416-0.6,0.816-1.208,1.208-1.816
			c0.544-0.84,1.064-1.696,1.56-2.568c0.368-0.648,0.72-1.288,1.064-1.952c0.464-0.888,0.896-1.792,1.312-2.712
			c0.304-0.672,0.608-1.352,0.888-2.04c0.384-0.952,0.728-1.92,1.064-2.896c0.232-0.688,0.48-1.376,0.688-2.072
			c0.304-1.032,0.56-2.08,0.808-3.136c0.16-0.68,0.344-1.344,0.48-2.032c0.232-1.176,0.392-2.376,0.544-3.576
			c0.08-0.592,0.184-1.168,0.248-1.76C135.896,99.68,136,97.848,136,96v-8h208v8c0,1.848,0.104,3.68,0.28,5.48
			c0.056,0.592,0.168,1.176,0.248,1.76c0.16,1.2,0.32,2.4,0.544,3.576c0.136,0.688,0.312,1.352,0.48,2.032
			c0.248,1.056,0.504,2.104,0.808,3.136c0.208,0.704,0.456,1.384,0.688,2.072c0.336,0.976,0.68,1.944,1.064,2.896
			c0.28,0.688,0.584,1.36,0.888,2.04c0.416,0.92,0.848,1.824,1.312,2.712c0.344,0.656,0.696,1.304,1.064,1.952
			c0.496,0.872,1.016,1.728,1.56,2.568c0.392,0.616,0.792,1.224,1.208,1.816c0.584,0.832,1.2,1.64,1.832,2.448
			c0.44,0.56,0.864,1.112,1.32,1.656c0.68,0.8,1.392,1.568,2.12,2.328c0.464,0.488,0.912,0.984,1.384,1.456
			c0.808,0.792,1.656,1.536,2.504,2.28c0.448,0.392,0.872,0.8,1.336,1.176c1.104,0.904,2.256,1.744,3.424,2.56
			c0.24,0.168,0.464,0.36,0.712,0.52c1.44,0.968,2.92,1.872,4.448,2.704c0.384,0.208,0.8,0.384,1.192,0.592
			c1.144,0.592,2.304,1.168,3.496,1.688c0.584,0.256,1.192,0.464,1.792,0.696c1.032,0.4,2.056,0.8,3.112,1.144
			c0.464,0.152,0.936,0.288,1.408,0.424L358.456,160H256h-32H121.544l-25.76-10.304c0.472-0.136,0.944-0.272,1.408-0.424
			c1.056-0.344,2.08-0.736,3.112-1.144c0.6-0.232,1.208-0.44,1.792-0.696c1.192-0.512,2.344-1.096,3.496-1.688
			c0.392-0.2,0.8-0.376,1.192-0.592c1.528-0.832,3.008-1.736,4.448-2.704c0.248-0.168,0.472-0.352,0.712-0.52
			c1.168-0.816,2.32-1.664,3.424-2.56c0.456-0.376,0.888-0.784,1.336-1.176c0.848-0.744,1.696-1.488,2.504-2.28
			c0.48-0.472,0.928-0.968,1.384-1.456C121.312,133.696,122.032,132.928,122.712,132.128z M177.264,234.152
			c0.392-0.96,0.912-1.896,1.472-2.824c3.352-5.376,9.712-10.504,18.328-14.592c0.6-0.28,1.168-0.568,1.792-0.84
			c0.968-0.424,1.984-0.832,3.008-1.232c1.8-0.688,3.632-1.36,5.56-1.96c0.2-0.064,0.392-0.136,0.592-0.2
			c2.552-0.768,5.216-1.448,7.968-2.032c0.144-0.032,0.296-0.056,0.448-0.088c2.776-0.576,5.632-1.064,8.568-1.432
			c0.008,0,0.016-0.008,0.024-0.008c4.76-0.592,9.744-0.944,14.976-0.944s10.216,0.352,14.968,0.952
			c0.008,0,0.016,0.008,0.024,0.008c2.936,0.368,5.792,0.856,8.568,1.432c0.144,0.032,0.296,0.056,0.448,0.088
			c2.752,0.584,5.416,1.264,7.968,2.032c0.208,0.064,0.392,0.136,0.592,0.2c1.936,0.592,3.76,1.264,5.56,1.96
			c1.024,0.4,2.04,0.8,3.008,1.232c0.616,0.264,1.192,0.56,1.792,0.84c8.616,4.088,14.976,9.216,18.328,14.592
			c0.56,0.928,1.088,1.864,1.472,2.824c0.832,1.944,1.272,3.904,1.272,5.84c0,15.136-26.288,32-64,32c-37.712,0-64-16.864-64-32
			C176,238.064,176.44,236.104,177.264,234.152z M174.408,212.24c-0.352,0.296-0.728,0.584-1.072,0.888
			c-0.976,0.88-1.848,1.792-2.72,2.72c-0.544,0.568-1.104,1.152-1.616,1.752c-0.712,0.832-1.368,1.672-2,2.528
			c-0.592,0.8-1.136,1.616-1.656,2.432c-0.304,0.488-0.696,0.944-0.976,1.432H128v-48h88v18.12c-3.024,0.552-5.944,1.24-8.8,1.992
			c-0.192,0.048-0.368,0.104-0.552,0.16c-2.376,0.64-4.68,1.344-6.92,2.112c-0.816,0.28-1.608,0.576-2.408,0.872
			c-1.504,0.56-2.976,1.152-4.416,1.768c-1.064,0.456-2.12,0.912-3.144,1.4c-1.008,0.48-1.976,1-2.944,1.512
			c-1.216,0.64-2.44,1.272-3.592,1.952c-0.224,0.136-0.424,0.288-0.648,0.424C179.576,208.136,176.864,210.12,174.408,212.24z
			 M232,192.232V176h16v16.232c-2.632-0.144-5.296-0.232-8-0.232C237.296,192,234.632,192.088,232,192.232z M297.416,206.288
			c-0.224-0.136-0.424-0.288-0.648-0.424c-1.144-0.68-2.368-1.312-3.592-1.952c-0.968-0.512-1.928-1.024-2.944-1.512
			c-1.024-0.488-2.08-0.944-3.144-1.4c-1.432-0.616-2.904-1.208-4.416-1.768c-0.8-0.296-1.592-0.592-2.408-0.872
			c-2.24-0.768-4.544-1.472-6.92-2.112c-0.184-0.048-0.36-0.104-0.544-0.152c-2.856-0.752-5.768-1.44-8.8-1.992V176h88v48h-36.368
			c-0.28-0.496-0.664-0.944-0.968-1.432c-0.52-0.824-1.064-1.64-1.656-2.44c-0.632-0.856-1.288-1.696-2-2.528
			c-0.52-0.6-1.072-1.184-1.632-1.768c-0.872-0.92-1.752-1.84-2.72-2.72c-0.336-0.304-0.72-0.592-1.072-0.888
			C303.128,210.112,300.408,208.12,297.416,206.288z M88,104c0-19.32,13.768-35.48,32-39.192V80v16c0,2.6-0.288,5.136-0.768,7.6
			c-0.16,0.808-0.432,1.568-0.64,2.36c-0.416,1.624-0.872,3.232-1.48,4.768c-0.352,0.88-0.784,1.704-1.192,2.552
			c-0.656,1.36-1.352,2.696-2.152,3.96c-0.52,0.824-1.088,1.616-1.664,2.4c-0.872,1.176-1.792,2.304-2.784,3.376
			c-0.664,0.72-1.328,1.424-2.04,2.088c-1.08,1.016-2.24,1.936-3.432,2.832c-0.752,0.56-1.488,1.152-2.28,1.664
			c-1.352,0.872-2.792,1.6-4.248,2.304c-0.744,0.36-1.448,0.784-2.216,1.096c-2.136,0.872-4.36,1.576-6.656,2.072
			c-0.144,0.032-0.28,0.096-0.424,0.128c-0.008,0-0.016,0-0.024,0V104z M184,457.56v-44.616l39.664,19.832L184,457.56z M296,457.56
			l-39.664-24.784L296,412.944V457.56z M296,395.056l-56,28l-56-28V368h112V395.056z M304,352H176h-48c-22.056,0-40-17.944-40-40
			v-96v-52.184l24,9.6V232c0,4.424,3.584,8,8,8h40c0,26.912,35.144,48,80,48s80-21.088,80-48h40c4.416,0,8-3.576,8-8v-58.584l24-9.6
			V216v96c0,22.056-17.944,40-40,40H304z"/>
	</g>
</g>
<g>
</g>
<g>
</g>
<g>
</g>
<g>
</g>
<g>
</g>
<g>
</g>
<g>
</g>
<g>
</g>
<g>
</g>
<g>
</g>
<g>
</g>
<g>
</g>
<g>
</g>
<g>
</g>
<g>
</g>
</svg>
