<?xml version="1.0" encoding="iso-8859-1"?>
<!-- Generator: Adobe Illustrator 19.0.0, SVG Export Plug-In . SVG Version: 6.00 Build 0)  -->
<svg version="1.1" id="Capa_1" xmlns="http://www.w3.org/2000/svg" xmlns:xlink="http://www.w3.org/1999/xlink" x="0px" y="0px"
	 viewBox="0 0 482.296 482.296" style="enable-background:new 0 0 482.296 482.296;" xml:space="preserve">
<g>
	<g>
		<circle cx="185.148" cy="184" r="16"/>
	</g>
</g>
<g>
	<g>
		<circle cx="297.148" cy="184" r="16"/>
	</g>
</g>
<g>
	<g>
		<path d="M425.148,392h-64h-48v-42.184c20.568-11.112,38.2-26.888,51.704-45.816h44.296c26.472,0,48-21.528,48-48
			c0-19.304-11.48-35.936-27.944-43.552c7.36-7.256,11.944-17.32,11.944-28.448c0-22.056-17.944-40-40-40h-8.408
			C388.54,63.912,322.26,0,241.148,0S93.756,63.912,89.556,144h-8.408c-22.056,0-40,17.944-40,40c0,22.056,17.944,40,40,40h8.408
			c2.848,54.376,34.232,101.312,79.592,125.816V392h-48h-64c-30.88,0-56,25.12-56,56v32h16v-32c0-22.056,17.944-40,40-40h58.048
			l22.288,74.296l15.328-4.592l-18.064-60.216l102.28,61.368c2.536,1.52,5.696,1.52,8.232,0l102.288-61.368l-18.064,60.216
			l15.328,4.592L367.1,408h58.048c22.056,0,40,17.944,40,40v32h16v-32C481.148,417.12,456.028,392,425.148,392z M89.148,208h-8
			c-13.232,0-24-10.768-24-24s10.768-24,24-24h8V208z M393.148,160h8c13.232,0,24,10.768,24,24s-10.768,24-24,24h-8V160z
			 M381.348,274.672c1.744-4.16,3.288-8.392,4.648-12.68c0.184-0.584,0.36-1.168,0.544-1.752c1.304-4.28,2.432-8.608,3.352-12.992
			c0.12-0.576,0.224-1.168,0.336-1.744c0.896-4.528,1.624-9.096,2.096-13.704c0.032-0.328,0.048-0.664,0.08-0.984
			c0.216-2.264,0.424-4.528,0.544-6.816h8.2h8c17.648,0,32,14.352,32,32s-14.352,32-32,32H375.02
			c2.152-3.992,4.064-8.08,5.848-12.232C381.028,275.4,381.188,275.04,381.348,274.672z M241.148,16
			c72.192,0,131.256,56.584,135.576,127.704C303.388,140.688,249.148,99.28,249.148,72h-16c0,27.28-54.24,68.688-127.576,71.704
			C109.892,72.584,168.956,16,241.148,16z M105.148,216v-56.192c54.144-2.304,114.64-27.528,136-61.808
			c21.36,34.28,81.856,59.504,136,61.808V216c0,4.2-0.256,8.336-0.632,12.432c-0.104,1.176-0.248,2.336-0.392,3.504
			c-0.376,3.168-0.848,6.296-1.44,9.392c-0.184,0.992-0.344,1.992-0.552,2.976c-0.848,4-1.848,7.952-3.048,11.824
			c-0.136,0.432-0.304,0.856-0.44,1.288c-1.112,3.456-2.36,6.856-3.736,10.184c-0.384,0.936-0.792,1.856-1.192,2.784
			c-1.336,3.056-2.784,6.048-4.336,8.976c-0.352,0.664-0.672,1.336-1.04,1.992c-13.488,24.496-34.352,44.296-59.528,56.656
			c-4.264,2.088-8.608,3.936-13.008,5.56c-0.504,0.184-1,0.376-1.512,0.552c-4.464,1.584-8.992,2.912-13.56,4.016
			c-0.384,0.088-0.752,0.208-1.136,0.296c-20.056,4.64-40.872,4.64-60.928,0c-0.384-0.088-0.752-0.2-1.136-0.296
			c-4.568-1.096-9.096-2.432-13.56-4.016c-0.504-0.176-1.008-0.368-1.512-0.552c-4.4-1.616-8.744-3.464-13.008-5.56
			C136.356,315.864,105.148,269.568,105.148,216z M241.148,462.672L150.028,408h27.12c4.416,0,8-3.584,8-8v-42.8
			c0.424,0.168,0.856,0.28,1.28,0.44c3.896,1.512,7.84,2.912,11.88,4.104c0.952,0.28,1.928,0.48,2.888,0.744
			c3.672,1,7.36,1.952,11.136,2.68c1.192,0.232,2.408,0.352,3.6,0.552c3.584,0.6,7.16,1.192,10.824,1.544
			c1.12,0.104,2.24,0.088,3.36,0.168c3.656,0.272,7.304,0.568,11.032,0.568c3.728,0,7.376-0.296,11.04-0.56
			c1.12-0.08,2.24-0.064,3.36-0.168c3.664-0.344,7.24-0.936,10.824-1.544c1.2-0.2,2.408-0.32,3.6-0.552
			c3.776-0.728,7.464-1.68,11.136-2.68c0.96-0.264,1.928-0.464,2.888-0.744c4.04-1.192,7.984-2.592,11.88-4.104
			c0.424-0.168,0.856-0.272,1.28-0.44V400c0,4.416,3.584,8,8,8h27.12L241.148,462.672z"/>
	</g>
</g>
<g>
</g>
<g>
</g>
<g>
</g>
<g>
</g>
<g>
</g>
<g>
</g>
<g>
</g>
<g>
</g>
<g>
</g>
<g>
</g>
<g>
</g>
<g>
</g>
<g>
</g>
<g>
</g>
<g>
</g>
</svg>
