<?xml version="1.0" encoding="iso-8859-1"?>
<!-- Generator: Adobe Illustrator 19.0.0, SVG Export Plug-In . SVG Version: 6.00 Build 0)  -->
<svg version="1.1" id="Capa_1" xmlns="http://www.w3.org/2000/svg" xmlns:xlink="http://www.w3.org/1999/xlink" x="0px" y="0px"
	 viewBox="0 0 480 480" style="enable-background:new 0 0 480 480;" xml:space="preserve">
<g>
	<g>
		<path d="M424,384h-96h-16v-34.184c43.136-23.304,73.784-66.84,79.144-117.816H400c22.056,0,40-17.944,40-40
			c0-22.056-17.944-40-40-40h-8C392,68.184,323.816,0,240,0c-29.104,0-57.312,8.256-81.768,23.904C150.24,23.016,144,16.224,144,8
			c0-4.416-3.576-8-8-8h-4c-19.848,0-36,16.152-36,36c0,13.112,7.136,24.872,18.008,31.168C96.96,92.32,88,121.432,88,152h-8
			c-22.056,0-40,17.944-40,40c0,22.056,17.944,40,40,40h8.856c5.36,50.976,36.008,94.512,79.144,117.816V384h-16H56
			c-30.872,0-56,25.12-56,56v40h16v-40c0-22.056,17.944-40,40-40h92.688L200,451.312V472c0,4.416,3.576,8,8,8h64
			c4.424,0,8-3.584,8-8v-20.688L331.312,400H424c22.056,0,40,17.944,40,40v40h16v-40C480,409.12,454.872,384,424,384z M392,168h8
			c13.232,0,24,10.768,24,24s-10.768,24-24,24h-8V168z M88,216h-8c-13.232,0-24-10.768-24-24s10.768-24,24-24h8V216z
			 M132.912,68.384c1.704-2.192,2.16-5.112,1.184-7.72c-0.968-2.608-3.224-4.52-5.952-5.056C118.792,53.776,112,45.528,112,36
			c0-10.032,7.432-18.36,17.072-19.784C132.72,29.888,145.264,40,160.464,40c1.576,0,3.12-0.464,4.432-1.336
			C187.208,23.832,213.184,16,240,16c74.488,0,135.112,60.208,135.928,134.504C366.672,147.168,360,138.384,360,128
			c0-26.472-21.528-48-48-48H168c-26.472,0-48,21.528-48,48c0,10.392-6.68,19.176-15.936,22.504
			C104.384,120.536,114.304,92.16,132.912,68.384z M256,160h-32h-87.208l-13.712-2.744C130.968,149.944,136,139.584,136,128
			c0-17.648,14.352-32,32-32h144c17.648,0,32,14.352,32,32c0,11.584,5.032,21.944,12.928,29.256L343.208,160H256z M336,176v12
			c0,19.848-16.152,36-36,36c-19.848,0-36-16.152-36-36v-12H336z M216,176v12c0,19.848-16.152,36-36,36c-19.848,0-36-16.152-36-36
			v-12H216z M104,216v-46.24l24,4.8V188c0,28.672,23.328,52,52,52s52-23.328,52-52v-12h16v12c0,28.672,23.328,52,52,52
			s52-23.328,52-52v-13.44l24-4.8V216c0,53.568-31.208,99.864-76.328,122.024c-4.256,2.088-8.584,3.928-12.984,5.544
			c-0.52,0.192-1.032,0.384-1.552,0.568c-4.448,1.576-8.96,2.904-13.504,4c-0.392,0.096-0.784,0.216-1.184,0.304
			c-20.048,4.632-40.864,4.632-60.904,0c-0.4-0.088-0.784-0.208-1.184-0.304c-4.552-1.096-9.056-2.424-13.504-4
			c-0.52-0.184-1.032-0.376-1.552-0.568c-4.392-1.616-8.728-3.464-12.984-5.544C135.208,315.864,104,269.568,104,216z M207.992,384
			h-24v-26.792H184c0.48,0.192,0.976,0.312,1.448,0.504c3.832,1.48,7.712,2.864,11.688,4.04c0.984,0.288,1.984,0.496,2.968,0.768
			c3.648,0.992,7.32,1.944,11.072,2.664c1.168,0.224,2.36,0.344,3.536,0.544c3.608,0.608,7.216,1.208,10.904,1.552
			c0.968,0.088,1.936,0.072,2.896,0.144C232.32,367.704,236.128,368,240,368s7.68-0.296,11.48-0.584
			c0.968-0.072,1.936-0.056,2.896-0.144c3.688-0.344,7.296-0.944,10.904-1.552c1.176-0.2,2.36-0.312,3.536-0.544
			c3.752-0.728,7.416-1.672,11.072-2.664c0.984-0.272,1.984-0.472,2.968-0.768c3.976-1.168,7.856-2.552,11.688-4.04
			c0.48-0.184,0.976-0.312,1.448-0.504V384h-24H207.992z M252.688,400L240,412.688L227.312,400H252.688z M171.312,400H176h28.688
			l23.136,23.136l-19.072,14.304L171.312,400z M264,464h-48v-12l24-18l24,18V464z M271.248,437.44l-19.072-14.304L275.312,400H304
			h4.688L271.248,437.44z"/>
	</g>
</g>
<g>
</g>
<g>
</g>
<g>
</g>
<g>
</g>
<g>
</g>
<g>
</g>
<g>
</g>
<g>
</g>
<g>
</g>
<g>
</g>
<g>
</g>
<g>
</g>
<g>
</g>
<g>
</g>
<g>
</g>
</svg>
