<?xml version="1.0" encoding="iso-8859-1"?>
<!-- Generator: Adobe Illustrator 19.0.0, SVG Export Plug-In . SVG Version: 6.00 Build 0)  -->
<svg version="1.1" id="Capa_1" xmlns="http://www.w3.org/2000/svg" xmlns:xlink="http://www.w3.org/1999/xlink" x="0px" y="0px"
	 viewBox="0 0 480 480" style="enable-background:new 0 0 480 480;" xml:space="preserve">
<g>
	<g>
		<path d="M424,384H312v-34.184c43.136-23.304,73.784-66.84,79.144-117.816H400c22.056,0,40-17.944,40-40c0-22.056-17.944-40-40-40
			h-8C392,68.184,323.816,0,240,0c-29.104,0-57.312,8.256-81.768,23.904C150.24,23.016,144,16.224,144,8c0-4.416-3.576-8-8-8h-4
			c-19.848,0-36,16.152-36,36c0,13.112,7.136,24.872,18.008,31.168C96.96,92.32,88,121.432,88,152h-8c-22.056,0-40,17.944-40,40
			c0,22.056,17.944,40,40,40h8.856c5.36,50.976,36.008,94.512,79.144,117.816V384H56c-30.872,0-56,25.12-56,56v40h16v-40
			c0-22.056,17.944-40,40-40h117.064c0.944,0.776,1.936,1.448,2.904,2.184c1.152,0.888,2.288,1.784,3.472,2.616
			c1.408,0.992,2.856,1.904,4.304,2.816c1.208,0.768,2.4,1.552,3.632,2.256c1.48,0.856,3,1.616,4.512,2.392
			c1.248,0.64,2.488,1.312,3.752,1.896c1.552,0.72,3.128,1.336,4.704,1.976c1.28,0.52,2.552,1.072,3.848,1.544
			c1.616,0.584,3.256,1.056,4.896,1.552c1.288,0.392,2.568,0.832,3.872,1.176c1.704,0.448,3.432,0.784,5.152,1.144
			c1.264,0.264,2.512,0.592,3.784,0.808c1.856,0.32,3.728,0.52,5.6,0.736c1.152,0.136,2.296,0.336,3.448,0.44
			c2.632,0.224,5.272,0.32,7.912,0.344c0.392,0.008,0.776,0.048,1.16,0.048c0.384,0,0.776-0.048,1.16-0.048
			c2.64-0.032,5.28-0.12,7.912-0.344c1.152-0.096,2.296-0.296,3.44-0.432c1.872-0.224,3.744-0.416,5.6-0.736
			c1.272-0.216,2.52-0.544,3.776-0.808c1.72-0.36,3.448-0.696,5.16-1.144c1.304-0.344,2.576-0.784,3.872-1.176
			c1.64-0.496,3.28-0.976,4.896-1.552c1.296-0.464,2.568-1.024,3.848-1.544c1.576-0.64,3.152-1.256,4.704-1.976
			c1.264-0.584,2.504-1.256,3.752-1.896c1.52-0.776,3.032-1.544,4.52-2.4c1.232-0.712,2.424-1.496,3.624-2.256
			c1.448-0.912,2.896-1.824,4.304-2.816c1.176-0.832,2.32-1.728,3.472-2.616c0.96-0.736,1.96-1.408,2.904-2.184H424
			c22.056,0,40,17.944,40,40v40h16v-40C480,409.12,454.872,384,424,384z M392,168h8c13.232,0,24,10.768,24,24s-10.768,24-24,24h-8
			V168z M88,216h-8c-13.232,0-24-10.768-24-24s10.768-24,24-24h8V216z M132.912,68.384c1.704-2.192,2.16-5.112,1.184-7.72
			c-0.968-2.608-3.224-4.52-5.952-5.056C118.792,53.776,112,45.528,112,36c0-10.032,7.432-18.36,17.072-19.784
			C132.72,29.888,145.264,40,160.464,40c1.576,0,3.12-0.464,4.432-1.336C187.208,23.832,213.184,16,240,16
			c74.488,0,135.112,60.208,135.928,134.504C366.672,147.168,360,138.384,360,128c0-26.472-21.528-48-48-48H168
			c-26.472,0-48,21.528-48,48c0,10.392-6.68,19.176-15.936,22.504C104.384,120.536,114.304,92.16,132.912,68.384z M296.008,388.16
			c-0.648,0.528-1.296,1.056-1.96,1.56c-1.008,0.768-2.024,1.536-3.056,2.256c-1.16,0.808-2.336,1.56-3.528,2.304
			c-1.04,0.656-2.088,1.312-3.152,1.92c-1.232,0.704-2.496,1.352-3.752,1.992c-1.064,0.544-2.12,1.096-3.2,1.592
			c-1.312,0.6-2.648,1.136-3.992,1.672c-1.064,0.424-2.12,0.872-3.192,1.256c-1.408,0.504-2.832,0.92-4.256,1.352
			c-1.04,0.312-2.064,0.656-3.112,0.928c-1.544,0.4-3.096,0.712-4.656,1.032c-0.952,0.192-1.896,0.432-2.848,0.6
			c-1.776,0.304-3.56,0.504-5.344,0.704c-0.76,0.08-1.512,0.216-2.264,0.28c-5.112,0.44-10.248,0.44-15.36,0
			c-0.76-0.064-1.512-0.2-2.264-0.28c-1.784-0.2-3.576-0.4-5.344-0.704c-0.96-0.168-1.904-0.4-2.848-0.6
			c-1.56-0.32-3.112-0.632-4.656-1.032c-1.048-0.272-2.072-0.616-3.112-0.928c-1.424-0.432-2.856-0.848-4.256-1.352
			c-1.072-0.384-2.128-0.832-3.192-1.256c-1.336-0.536-2.672-1.072-3.992-1.672c-1.08-0.496-2.136-1.048-3.2-1.592
			c-1.264-0.64-2.52-1.288-3.752-1.992c-1.064-0.608-2.104-1.264-3.152-1.92c-1.184-0.744-2.368-1.504-3.528-2.304
			c-1.032-0.72-2.048-1.48-3.056-2.256c-0.664-0.504-1.312-1.032-1.96-1.56V357.2c0.424,0.168,0.856,0.28,1.28,0.44
			c3.872,1.52,7.816,2.92,11.856,4.112c0.952,0.28,1.928,0.48,2.888,0.744c3.672,1,7.36,1.952,11.136,2.68
			c1.192,0.232,2.408,0.352,3.6,0.552c3.584,0.6,7.16,1.192,10.824,1.544c1.12,0.104,2.24,0.088,3.36,0.168
			c3.656,0.264,7.304,0.56,11.032,0.56c3.728,0,7.376-0.296,11.04-0.56c1.12-0.08,2.24-0.064,3.36-0.168
			c3.664-0.344,7.24-0.936,10.824-1.544c1.2-0.2,2.408-0.32,3.6-0.552c3.776-0.728,7.464-1.68,11.136-2.68
			c0.96-0.264,1.928-0.464,2.888-0.744c4.04-1.192,7.984-2.592,11.88-4.104c0.424-0.168,0.856-0.272,1.28-0.44V388.16z
			 M299.672,338.024c-4.256,2.088-8.584,3.928-12.984,5.544c-0.52,0.192-1.032,0.384-1.552,0.568c-4.448,1.576-8.96,2.904-13.504,4
			c-0.392,0.096-0.784,0.216-1.184,0.304c-20.048,4.632-40.864,4.632-60.904,0c-0.4-0.088-0.784-0.208-1.184-0.304
			c-4.552-1.096-9.056-2.424-13.504-4c-0.52-0.184-1.032-0.376-1.552-0.568c-4.392-1.616-8.728-3.464-12.984-5.544
			C135.208,315.864,104,269.568,104,216v-48.808c18.232-3.72,32-19.872,32-39.192c0-17.648,14.352-32,32-32h144
			c17.648,0,32,14.352,32,32c0,19.312,13.768,35.472,32,39.192V216C376,269.568,344.792,315.864,299.672,338.024z"/>
	</g>
</g>
<g>
	<g>
		<circle cx="184" cy="216" r="16"/>
	</g>
</g>
<g>
	<g>
		<circle cx="296" cy="216" r="16"/>
	</g>
</g>
<g>
</g>
<g>
</g>
<g>
</g>
<g>
</g>
<g>
</g>
<g>
</g>
<g>
</g>
<g>
</g>
<g>
</g>
<g>
</g>
<g>
</g>
<g>
</g>
<g>
</g>
<g>
</g>
<g>
</g>
</svg>
