<?xml version="1.0" encoding="iso-8859-1"?>
<!-- Generator: Adobe Illustrator 19.0.0, SVG Export Plug-In . SVG Version: 6.00 Build 0)  -->
<svg version="1.1" id="Capa_1" xmlns="http://www.w3.org/2000/svg" xmlns:xlink="http://www.w3.org/1999/xlink" x="0px" y="0px"
	 viewBox="0 0 480 480" style="enable-background:new 0 0 480 480;" xml:space="preserve">
<g>
	<g>
		<circle cx="184" cy="192" r="16"/>
	</g>
</g>
<g>
	<g>
		<circle cx="296" cy="192" r="16"/>
	</g>
</g>
<g>
	<g>
		<path d="M424,384H312v-34.184c43.136-23.304,73.784-66.84,79.144-117.816H400c22.056,0,40-17.944,40-40c0-22.056-17.944-40-40-40
			h-8c0-48.672-23.08-91.96-58.776-119.8c-0.104-0.088-0.168-0.216-0.272-0.296c-0.848-0.656-1.744-1.216-2.6-1.856
			c-2.392-1.776-4.784-3.552-7.28-5.192c-1.408-0.92-2.856-1.736-4.288-2.608c-2.936-1.792-5.896-3.536-8.96-5.128
			c-3.248-1.696-6.528-3.312-9.872-4.76c-1.336-0.576-2.72-1.048-4.072-1.592c-3.008-1.2-6.04-2.344-9.112-3.344
			c-1.456-0.472-2.936-0.888-4.416-1.312c-3.08-0.896-6.176-1.704-9.312-2.4c-1.512-0.336-3.032-0.664-4.56-0.952
			c-3.296-0.624-6.616-1.12-9.96-1.528c-1.4-0.168-2.776-0.384-4.184-0.52C249.584,0.28,244.816,0,240,0
			c-4.816,0-9.584,0.28-14.32,0.728c-1.408,0.136-2.784,0.344-4.184,0.52c-3.344,0.408-6.664,0.896-9.96,1.528
			c-1.528,0.288-3.048,0.616-4.56,0.952c-3.136,0.696-6.24,1.504-9.312,2.4c-1.48,0.432-2.96,0.84-4.416,1.312
			c-3.08,1-6.104,2.144-9.112,3.344c-1.352,0.536-2.736,1.016-4.072,1.592c-3.344,1.448-6.624,3.064-9.872,4.76
			c-3.064,1.592-6.024,3.336-8.96,5.128c-1.424,0.872-2.88,1.68-4.288,2.608c-2.496,1.64-4.888,3.408-7.28,5.192
			c-0.856,0.64-1.752,1.2-2.6,1.856c-0.112,0.088-0.168,0.208-0.272,0.296C111.08,60.04,88,103.328,88,152h-8
			c-22.056,0-40,17.944-40,40c0,22.056,17.944,40,40,40h8.856c5.36,50.976,36.008,94.512,79.144,117.816V384H56
			c-30.872,0-56,25.12-56,56v40h16v-40c0-22.056,17.944-40,40-40h117.704l62.056,38.784c1.296,0.808,2.768,1.216,4.24,1.216
			s2.944-0.408,4.24-1.216L306.296,400H424c22.056,0,40,17.944,40,40v40h16v-40C480,409.12,454.872,384,424,384z M392,168h8
			c13.232,0,24,10.768,24,24s-10.768,24-24,24h-8V168z M88,216h-8c-13.232,0-24-10.768-24-24s10.768-24,24-24h8V216z M162.2,40.616
			c2-1.408,4.064-2.688,6.12-3.976c1.376-0.856,2.752-1.72,4.168-2.536c1.784-1.032,3.584-2.008,5.4-2.952
			c2.016-1.04,4.064-2.024,6.136-2.96c1.424-0.648,2.832-1.328,4.28-1.928c3.624-1.496,7.312-2.88,11.088-4.064
			c0.44-0.136,0.896-0.232,1.336-0.368c3.464-1.048,6.992-1.952,10.568-2.728c1.136-0.248,2.28-0.448,3.424-0.664
			c3.032-0.576,6.088-1.04,9.184-1.408c1.176-0.136,2.344-0.296,3.52-0.408C231.576,16.256,235.76,16,240,16
			s8.424,0.256,12.568,0.64c1.184,0.112,2.352,0.264,3.52,0.408c3.096,0.368,6.16,0.832,9.184,1.408
			c1.144,0.216,2.288,0.416,3.424,0.664c3.576,0.768,7.104,1.672,10.568,2.728c0.44,0.136,0.896,0.232,1.336,0.368
			c3.776,1.184,7.464,2.568,11.088,4.064c1.44,0.6,2.856,1.28,4.28,1.928c2.072,0.944,4.12,1.92,6.136,2.96
			c1.816,0.944,3.624,1.92,5.4,2.952c1.408,0.808,2.784,1.672,4.168,2.536c2.056,1.288,4.12,2.568,6.12,3.976
			c0.064,0.04,0.12,0.088,0.176,0.128C302.872,69.648,272.92,88,240,88c-32.92,0-62.872-18.352-77.976-47.256
			C162.08,40.704,162.136,40.656,162.2,40.616z M104,160v-8c0-40.168,17.608-76.208,45.384-101.128
			C167.672,83.432,202.152,104,240,104s72.328-20.568,90.616-53.128C358.392,75.792,376,111.832,376,152v8v56
			c-22.056,0-40,17.944-40,40c0,13.232-10.768,24-24,24h-16.808c-3.72-18.232-19.872-32-39.192-32h-32
			c-19.32,0-35.48,13.768-39.192,32H168c-13.232,0-24-10.768-24-24c0-22.056-17.944-40-40-40V160z M295.992,387.56l-56,35l-56-35
			V357.2c0.48,0.192,0.976,0.312,1.448,0.504c3.848,1.488,7.728,2.872,11.704,4.04c0.984,0.288,1.984,0.496,2.968,0.768
			c3.648,0.992,7.32,1.944,11.072,2.664c1.168,0.224,2.36,0.344,3.536,0.544c3.608,0.608,7.216,1.208,10.904,1.552
			c0.968,0.088,1.936,0.072,2.896,0.144c3.8,0.288,7.608,0.584,11.48,0.584s7.68-0.296,11.48-0.584
			c0.968-0.072,1.936-0.056,2.896-0.144c3.688-0.344,7.296-0.944,10.904-1.552c1.176-0.2,2.36-0.312,3.536-0.544
			c3.752-0.728,7.416-1.672,11.072-2.664c0.984-0.272,1.984-0.472,2.968-0.768c3.976-1.168,7.856-2.552,11.688-4.04
			c0.48-0.184,0.976-0.312,1.448-0.504V387.56z M299.68,338.016c-4.256,2.088-8.584,3.928-12.984,5.544
			c-0.52,0.192-1.032,0.384-1.552,0.568c-4.448,1.576-8.96,2.904-13.504,4c-0.392,0.096-0.784,0.216-1.184,0.304
			c-20.048,4.632-40.864,4.632-60.904,0c-0.4-0.088-0.784-0.208-1.184-0.304c-4.552-1.096-9.056-2.424-13.504-4
			c-0.52-0.184-1.032-0.376-1.552-0.568c-4.392-1.616-8.728-3.464-12.984-5.544c-40.528-19.896-69.744-59.264-75.288-105.912
			C117.784,232.664,128,243.12,128,256c0,22.056,17.944,40,40,40h24c4.424,0,8-3.584,8-8c0-13.232,10.768-24,24-24h32
			c13.232,0,24,10.768,24,24c0,4.416,3.576,8,8,8h24c22.056,0,40-17.944,40-40c0-12.88,10.216-23.336,22.96-23.896
			C369.424,278.744,340.2,318.12,299.68,338.016z"/>
	</g>
</g>
<g>
</g>
<g>
</g>
<g>
</g>
<g>
</g>
<g>
</g>
<g>
</g>
<g>
</g>
<g>
</g>
<g>
</g>
<g>
</g>
<g>
</g>
<g>
</g>
<g>
</g>
<g>
</g>
<g>
</g>
</svg>
