<?xml version="1.0" encoding="iso-8859-1"?>
<!-- Generator: Adobe Illustrator 19.0.0, SVG Export Plug-In . SVG Version: 6.00 Build 0)  -->
<svg version="1.1" id="Capa_1" xmlns="http://www.w3.org/2000/svg" xmlns:xlink="http://www.w3.org/1999/xlink" x="0px" y="0px"
	 viewBox="0 0 482.296 482.296" style="enable-background:new 0 0 482.296 482.296;" xml:space="preserve">
<g>
	<g>
		<path d="M425.148,392h-64h-48v-42.128c14.888-8.016,28.4-18.584,40-31.264V360c0,2.776,1.44,5.344,3.792,6.808
			c1.288,0.792,2.744,1.192,4.208,1.192c1.224,0,2.448-0.28,3.576-0.84l48-24c2.712-1.36,4.424-4.128,4.424-7.16V176
			c0-97.048-78.952-176-176-176s-176,78.952-176,176v160c0,3.032,1.712,5.8,4.424,7.16l48,24c2.48,1.232,5.424,1.104,7.784-0.352
			c2.352-1.464,3.792-4.032,3.792-6.808v-41.392c11.6,12.68,25.112,23.248,40,31.264V392h-48h-64c-30.88,0-56,25.12-56,56v32h16v-32
			c0-22.056,17.944-40,40-40h58.048l22.288,74.296l15.328-4.592l-18.064-60.216l102.28,61.368c2.536,1.52,5.696,1.52,8.232,0
			l102.288-61.368l-18.064,60.216l15.328,4.592L367.1,408h58.048c22.056,0,40,17.944,40,40v32h16v-32
			C481.148,417.12,456.028,392,425.148,392z M121.148,168c-4.416,0-8,3.584-8,8v119.536v51.52l-32-16V176
			c0-88.224,71.776-160,160-160s160,71.776,160,160v155.056l-32,16v-51.52V176c0-4.416-3.584-8-8-8H121.148z M129.148,293.08V184
			h42.216c-1.368,2.36-2.216,5.072-2.216,8c0,8.84,7.16,16,16,16c8.84,0,16-7.16,16-16c0-2.928-0.848-5.64-2.216-8h84.44
			c-1.376,2.36-2.224,5.072-2.224,8c0,8.84,7.16,16,16,16c8.84,0,16-7.16,16-16c0-2.928-0.848-5.64-2.216-8h42.216v109.08
			c-13.224,19.184-30.84,34.28-50.984,44.416c-0.192,0.08-0.392,0.104-0.576,0.2c-38.16,18.984-82.72,18.984-120.872,0
			c-0.184-0.096-0.384-0.12-0.576-0.2C159.988,327.368,142.372,312.264,129.148,293.08z M241.148,462.672L150.028,408h27.12
			c4.416,0,8-3.584,8-8v-42.704c13.056,5.176,26.888,8.512,41.136,9.904c0.408,0.04,0.808,0.08,1.216,0.112
			c4.52,0.408,9.064,0.688,13.648,0.688s9.128-0.28,13.648-0.68c0.408-0.04,0.808-0.072,1.216-0.112
			c14.248-1.392,28.08-4.728,41.136-9.904V400c0,4.416,3.584,8,8,8h27.12L241.148,462.672z"/>
	</g>
</g>
<g>
</g>
<g>
</g>
<g>
</g>
<g>
</g>
<g>
</g>
<g>
</g>
<g>
</g>
<g>
</g>
<g>
</g>
<g>
</g>
<g>
</g>
<g>
</g>
<g>
</g>
<g>
</g>
<g>
</g>
</svg>
