<?xml version="1.0" encoding="iso-8859-1"?>
<!-- Generator: Adobe Illustrator 19.0.0, SVG Export Plug-In . SVG Version: 6.00 Build 0)  -->
<svg version="1.1" id="Capa_1" xmlns="http://www.w3.org/2000/svg" xmlns:xlink="http://www.w3.org/1999/xlink" x="0px" y="0px"
	 viewBox="0 0 480 480" style="enable-background:new 0 0 480 480;" xml:space="preserve">
<g>
	<g>
		<circle cx="184" cy="192" r="16"/>
	</g>
</g>
<g>
	<g>
		<circle cx="296" cy="192" r="16"/>
	</g>
</g>
<g>
	<g>
		<path d="M300.024,48.112l-8.032,13.84c15.768,9.136,28.92,22.304,38.064,38.064l13.84-8.024
			C333.36,73.816,318.184,58.64,300.024,48.112z"/>
	</g>
</g>
<g>
	<g>
		<path d="M265.736,34.776l-3.416,15.64c5.52,1.208,11,2.896,16.288,5.016l5.952-14.856
			C278.456,38.128,272.12,36.176,265.736,34.776z"/>
	</g>
</g>
<g>
	<g>
		<path d="M424,384H312v-34.184c43.136-23.304,73.784-66.84,79.144-117.816H400c22.056,0,40-17.944,40-40c0-22.056-17.944-40-40-40
			h-8C392,68.184,323.816,0,240,0S88,68.184,88,152h-8c-22.056,0-40,17.944-40,40c0,22.056,17.944,40,40,40h8.856
			c5.36,50.976,36.008,94.512,79.144,117.816V384H56c-30.872,0-56,25.12-56,56v40h16v-40c0-22.056,17.944-40,40-40h117.664
			l62.032,39.6c2.624,1.68,5.984,1.68,8.608,0l62.032-39.6H424c22.056,0,40,17.944,40,40v40h16v-40C480,409.12,454.872,384,424,384z
			 M392,168h8c13.232,0,24,10.768,24,24s-10.768,24-24,24h-8V168z M88,216h-8c-13.232,0-24-10.768-24-24s10.768-24,24-24h8V216z
			 M296,339.592c-2.016,0.912-4.04,1.792-6.088,2.6c-1.856,0.736-3.696,1.528-5.568,2.184c-3.136,1.088-6.32,1.96-9.504,2.816
			c-1.664,0.448-3.312,0.976-4.992,1.36c-3.624,0.824-7.288,1.392-10.96,1.904c-1.288,0.184-2.56,0.472-3.856,0.616
			c-9.992,1.12-20.072,1.12-30.072,0c-1.288-0.144-2.568-0.44-3.856-0.616c-3.664-0.52-7.328-1.088-10.96-1.904
			c-1.68-0.376-3.328-0.912-4.992-1.36c-3.184-0.848-6.368-1.728-9.504-2.816c-1.88-0.656-3.712-1.44-5.568-2.184
			c-2.048-0.816-4.072-1.688-6.088-2.6V304c0-30.88,25.128-56,56-56s56,25.12,56,56v35.592H296z M296.008,387.64L240,423.36
			l-56-35.744V357.2c0.424,0.168,0.856,0.28,1.28,0.44c0.024,0.008,0.048,0.016,0.072,0.024c2,0.784,4.016,1.52,6.04,2.216
			c1.712,0.584,3.416,1.184,5.152,1.704c0.352,0.104,0.696,0.208,1.048,0.304c0.04,0.016,0.088,0.024,0.128,0.032
			c3.264,0.96,6.56,1.776,9.88,2.504c1.192,0.256,2.384,0.504,3.584,0.736c0.2,0.04,0.4,0.088,0.6,0.12
			c3.952,0.752,7.936,1.368,11.952,1.8c0.624,0.064,1.248,0.112,1.872,0.168c0.176,0.016,0.36,0.024,0.536,0.04
			c4.584,0.44,9.2,0.712,13.856,0.712s9.272-0.272,13.864-0.688c0.176-0.016,0.36-0.024,0.536-0.04
			c0.624-0.056,1.248-0.104,1.872-0.168c4.016-0.432,7.992-1.04,11.952-1.8c0.2-0.04,0.4-0.088,0.6-0.12
			c1.2-0.232,2.392-0.48,3.584-0.736c3.312-0.728,6.608-1.552,9.88-2.504c0.04-0.016,0.088-0.024,0.128-0.032
			c0.352-0.104,0.696-0.2,1.048-0.304c1.736-0.52,3.44-1.128,5.152-1.704c2.024-0.696,4.04-1.432,6.04-2.216
			c0.024-0.008,0.048-0.016,0.072-0.024c0.424-0.168,0.856-0.272,1.28-0.44V387.64z M240,232c-39.704,0-72,32.304-72,72v27.168
			c-38.36-24.072-64-66.632-64-115.168v-56v-8c0-74.992,61.008-136,136-136s136,61.008,136,136v8v56
			c0,48.536-25.64,91.096-64,115.168V304C312,264.304,279.704,232,240,232z"/>
	</g>
</g>
<g>
	<g>
		<path d="M256.968,274.344c-9.36,9.352-24.576,9.352-33.936,0l-11.312,11.312c7.8,7.8,18.04,11.696,28.28,11.696
			s20.488-3.896,28.28-11.696L256.968,274.344z"/>
	</g>
</g>
<g>
</g>
<g>
</g>
<g>
</g>
<g>
</g>
<g>
</g>
<g>
</g>
<g>
</g>
<g>
</g>
<g>
</g>
<g>
</g>
<g>
</g>
<g>
</g>
<g>
</g>
<g>
</g>
<g>
</g>
</svg>
