<?xml version="1.0" encoding="iso-8859-1"?>
<!-- Generator: Adobe Illustrator 19.0.0, SVG Export Plug-In . SVG Version: 6.00 Build 0)  -->
<svg version="1.1" id="Capa_1" xmlns="http://www.w3.org/2000/svg" xmlns:xlink="http://www.w3.org/1999/xlink" x="0px" y="0px"
	 viewBox="0 0 480 480" style="enable-background:new 0 0 480 480;" xml:space="preserve">
<g>
	<g>
		<path d="M424,384h-80h-32v-34.184c43.136-23.304,73.784-66.84,79.144-117.816H400c22.056,0,40-17.944,40-40
			c0-22.056-17.944-40-40-40h-8c0-2.968-0.28-5.872-0.448-8.8c0-0.032,0.008-0.056,0.008-0.088c-0.008-0.08-0.024-0.152-0.024-0.232
			c-0.288-4.808-0.792-9.544-1.52-14.224c-0.032-0.232-0.072-0.464-0.104-0.704c-0.728-4.552-1.656-9.024-2.776-13.432
			c-0.104-0.4-0.2-0.792-0.304-1.192c-1.104-4.2-2.376-8.32-3.832-12.368c-0.216-0.608-0.44-1.216-0.664-1.824
			c-1.416-3.8-2.96-7.52-4.664-11.168c-0.384-0.824-0.784-1.632-1.184-2.448c-1.656-3.392-3.408-6.712-5.312-9.952
			c-0.584-1-1.192-1.976-1.8-2.96c-1.848-3-3.76-5.936-5.808-8.792c-0.8-1.12-1.648-2.208-2.48-3.312
			c-2-2.632-4.032-5.224-6.192-7.728c-1.024-1.192-2.104-2.328-3.16-3.48c-2.12-2.304-4.256-4.576-6.512-6.744
			c-1.248-1.2-2.552-2.328-3.84-3.488c-2.224-2-4.448-3.976-6.784-5.84c-1.456-1.16-2.976-2.232-4.472-3.344
			c-2.312-1.712-4.624-3.424-7.032-5.008c-1.648-1.08-3.368-2.056-5.056-3.08c-2.392-1.44-4.76-2.888-7.232-4.2
			c-1.856-0.984-3.784-1.832-5.688-2.744c-2.424-1.16-4.824-2.352-7.32-3.376c-2.096-0.864-4.272-1.576-6.416-2.352
			c-2.408-0.864-4.776-1.8-7.24-2.544c-2.416-0.736-4.912-1.28-7.376-1.904c-2.28-0.568-4.528-1.232-6.848-1.696
			c-2.96-0.592-5.992-0.96-9.008-1.376c-1.912-0.264-3.792-0.648-5.728-0.84C250.184,0.272,245.12,0,240,0
			s-10.184,0.272-15.184,0.768c-1.936,0.192-3.816,0.576-5.728,0.84c-3.016,0.416-6.048,0.784-9.008,1.376
			c-2.32,0.464-4.568,1.128-6.848,1.696c-2.464,0.616-4.96,1.168-7.376,1.904c-2.464,0.752-4.84,1.68-7.24,2.544
			c-2.144,0.776-4.304,1.48-6.4,2.344c-2.496,1.032-4.896,2.224-7.328,3.384c-1.896,0.904-3.824,1.76-5.68,2.744
			c-2.472,1.304-4.848,2.76-7.232,4.2c-1.696,1.016-3.408,1.992-5.056,3.08c-2.408,1.584-4.72,3.296-7.032,5.008
			c-1.496,1.112-3.016,2.184-4.472,3.344c-2.336,1.864-4.568,3.848-6.784,5.84c-1.288,1.16-2.592,2.288-3.84,3.488
			c-2.256,2.168-4.392,4.44-6.512,6.744c-1.064,1.152-2.136,2.288-3.16,3.48c-2.16,2.496-4.2,5.088-6.192,7.728
			c-0.832,1.104-1.672,2.184-2.48,3.312c-2.04,2.856-3.96,5.792-5.808,8.792c-0.608,0.984-1.216,1.96-1.8,2.96
			c-1.896,3.248-3.656,6.568-5.312,9.96c-0.392,0.808-0.792,1.616-1.176,2.432c-1.704,3.648-3.248,7.376-4.664,11.176
			c-0.224,0.608-0.448,1.208-0.664,1.816c-1.448,4.048-2.72,8.168-3.832,12.368c-0.104,0.392-0.208,0.792-0.304,1.192
			c-1.128,4.408-2.048,8.88-2.776,13.432c-0.04,0.232-0.072,0.464-0.104,0.704c-0.728,4.68-1.232,9.416-1.52,14.224
			c-0.008,0.08-0.024,0.152-0.024,0.232c0,0.032,0.008,0.056,0.008,0.088C88.28,146.128,88,149.032,88,152h-8
			c-22.056,0-40,17.944-40,40c0,22.056,17.944,40,40,40h8.856c5.36,50.976,36.008,94.512,79.144,117.816V384h-32H56
			c-30.872,0-56,25.12-56,56v40h16v-40c0-22.056,17.944-40,40-40h76.688l69.656,69.656C203.84,471.16,205.88,472,208,472
			c0.152,0,0.296,0,0.448-0.008c2.264-0.128,4.384-1.216,5.808-2.992L240,436.808l25.752,32.184
			c1.424,1.776,3.536,2.864,5.808,2.992C271.704,472,271.848,472,272,472c2.12,0,4.16-0.84,5.656-2.344L347.312,400H424
			c22.056,0,40,17.944,40,40v40h16v-40C480,409.12,454.872,384,424,384z M392,168h8c13.232,0,24,10.768,24,24s-10.768,24-24,24h-8
			V168z M88,216h-8c-13.232,0-24-10.768-24-24s10.768-24,24-24h8V216z M124.544,80.48c0.384-0.624,0.744-1.264,1.136-1.88
			c1.528-2.376,3.168-4.68,4.84-6.952c0.752-1.016,1.496-2.04,2.272-3.032c1.584-2.032,3.224-4.016,4.92-5.952
			c0.992-1.136,2.016-2.248,3.04-3.344c1.656-1.776,3.336-3.528,5.08-5.216c1.208-1.16,2.464-2.256,3.712-3.376
			c1.72-1.544,3.424-3.104,5.224-4.552c1.496-1.208,3.08-2.312,4.624-3.464c2.76-2.04,5.584-3.984,8.496-5.816
			c2.096-1.32,4.184-2.664,6.36-3.864c1.608-0.888,3.272-1.672,4.92-2.496c2.04-1.024,4.08-2.056,6.184-2.984
			c1.688-0.744,3.424-1.416,5.144-2.088c2.168-0.848,4.344-1.664,6.568-2.408c1.72-0.576,3.448-1.112,5.2-1.616
			c2.36-0.688,4.752-1.288,7.168-1.848c1.672-0.384,3.336-0.776,5.024-1.104c2.728-0.52,5.496-0.912,8.28-1.264
			c1.44-0.184,2.864-0.424,4.312-0.56C231.32,16.248,235.632,16,240,16s8.68,0.248,12.944,0.656c1.456,0.136,2.872,0.376,4.312,0.56
			c2.784,0.352,5.552,0.744,8.28,1.264c1.688,0.32,3.36,0.72,5.024,1.104c2.416,0.56,4.808,1.16,7.168,1.848
			c1.744,0.504,3.48,1.04,5.2,1.616c2.216,0.744,4.4,1.56,6.568,2.408c1.728,0.68,3.456,1.344,5.144,2.088
			c2.096,0.928,4.144,1.952,6.184,2.984c1.64,0.824,3.312,1.608,4.92,2.496c2.176,1.208,4.256,2.544,6.36,3.864
			c2.912,1.832,5.736,3.768,8.496,5.816c1.552,1.144,3.128,2.256,4.624,3.464c1.8,1.456,3.504,3.008,5.224,4.552
			c1.248,1.112,2.504,2.216,3.712,3.376c1.744,1.688,3.424,3.44,5.08,5.216c1.032,1.104,2.048,2.208,3.04,3.344
			c1.688,1.936,3.336,3.92,4.92,5.952c0.776,0.992,1.52,2.016,2.272,3.032c1.672,2.272,3.312,4.568,4.84,6.952
			c0.4,0.616,0.752,1.256,1.144,1.88c7.624,12.312,13.4,25.912,16.8,40.464l-6.6-6.6c-3.128-3.128-8.184-3.128-11.312,0L336,132.688
			l-18.344-18.344c-1.56-1.56-3.608-2.344-5.656-2.344c-2.048,0-4.096,0.784-5.656,2.344L288,132.688l-18.344-18.344
			c-3.128-3.128-8.184-3.128-11.312,0L240,132.688l-18.344-18.344c-3.128-3.128-8.184-3.128-11.312,0L192,132.688l-18.344-18.344
			c-3.128-3.128-8.184-3.128-11.312,0L144,132.688l-18.344-18.344c-3.128-3.128-8.184-3.128-11.312,0l-6.6,6.6
			C111.144,106.392,116.912,92.792,124.544,80.48z M104,152c0-1.664,0.192-3.288,0.248-4.944L120,131.312l18.344,18.344
			c3.128,3.128,8.184,3.128,11.312,0L168,131.312l18.344,18.344c3.128,3.128,8.184,3.128,11.312,0L216,131.312l18.344,18.344
			c3.128,3.128,8.184,3.128,11.312,0L264,131.312l18.344,18.344c3.128,3.128,8.184,3.128,11.312,0L312,131.312l18.344,18.344
			c1.56,1.56,3.608,2.344,5.656,2.344c2.048,0,4.096-0.784,5.656-2.344L360,131.312l15.752,15.744
			c0.056,1.656,0.248,3.28,0.248,4.944v3.056L350.112,168H256h-32h-94.112L104,155.056V152z M344,184v40c0,4.408-3.584,8-8,8h-64
			c-4.416,0-8-3.592-8-8v-40H344z M216,184v40c0,4.408-3.584,8-8,8h-64c-4.416,0-8-3.592-8-8v-40H216z M104,216v-43.056l16,8V224
			c0,13.232,10.768,24,24,24h64c13.232,0,24-10.768,24-24v-40h16v40c0,13.232,10.768,24,24,24h64c13.232,0,24-10.768,24-24v-43.056
			l16-8V216c0,53.568-31.208,99.864-76.328,122.024c-4.256,2.088-8.584,3.928-12.984,5.544c-0.52,0.192-1.032,0.384-1.552,0.568
			c-4.448,1.576-8.96,2.904-13.504,4c-0.392,0.096-0.784,0.216-1.184,0.304c-20.048,4.632-40.864,4.632-60.904,0
			c-0.4-0.088-0.784-0.208-1.184-0.304c-4.552-1.096-9.056-2.424-13.504-4c-0.52-0.184-1.032-0.376-1.552-0.568
			c-4.392-1.616-8.728-3.464-12.984-5.544C135.208,315.864,104,269.568,104,216z M207.336,452.024L155.312,400h18.8l53.464,26.728
			L207.336,452.024z M239.992,415.048l-56-28V357.2c0.48,0.192,0.976,0.312,1.448,0.504c3.848,1.488,7.728,2.872,11.704,4.04
			c0.984,0.288,1.984,0.496,2.968,0.768c3.648,0.992,7.32,1.944,11.072,2.664c1.168,0.224,2.36,0.344,3.536,0.544
			c3.608,0.608,7.216,1.208,10.904,1.552c0.968,0.088,1.936,0.072,2.896,0.144c3.8,0.288,7.608,0.584,11.48,0.584
			s7.68-0.296,11.48-0.584c0.968-0.072,1.936-0.056,2.896-0.144c3.688-0.344,7.296-0.944,10.904-1.552
			c1.176-0.2,2.36-0.312,3.536-0.544c3.752-0.728,7.416-1.672,11.072-2.664c0.984-0.272,1.984-0.472,2.968-0.768
			c3.976-1.168,7.856-2.552,11.688-4.04c0.48-0.184,0.976-0.312,1.448-0.504v29.848L239.992,415.048z M272.664,452.024
			l-20.232-25.296L305.888,400h18.8L272.664,452.024z"/>
	</g>
</g>
<g>
</g>
<g>
</g>
<g>
</g>
<g>
</g>
<g>
</g>
<g>
</g>
<g>
</g>
<g>
</g>
<g>
</g>
<g>
</g>
<g>
</g>
<g>
</g>
<g>
</g>
<g>
</g>
<g>
</g>
</svg>
