<?xml version="1.0" encoding="iso-8859-1"?>
<!-- Generator: Adobe Illustrator 19.0.0, SVG Export Plug-In . SVG Version: 6.00 Build 0)  -->
<svg version="1.1" id="Capa_1" xmlns="http://www.w3.org/2000/svg" xmlns:xlink="http://www.w3.org/1999/xlink" x="0px" y="0px"
	 viewBox="0 0 480.008 480.008" style="enable-background:new 0 0 480.008 480.008;" xml:space="preserve">
<g>
	<g>
		<circle cx="184.004" cy="192" r="16"/>
	</g>
</g>
<g>
	<g>
		<circle cx="296.004" cy="192" r="16"/>
	</g>
</g>
<g>
	<g>
		<path d="M438.98,386.096l-45.6-228.008c8.584-3.656,14.624-12.176,14.624-22.088c0-6.168-2.408-11.744-6.24-16
			c3.84-4.256,6.24-9.832,6.24-16c0-10.536-6.872-19.416-16.336-22.632C388.26,35.944,350.292,0,304.004,0h-128
			C129.716,0,91.748,35.944,88.34,81.368C78.876,84.584,72.004,93.464,72.004,104c0,6.168,2.408,11.744,6.24,16
			c-3.84,4.256-6.24,9.832-6.24,16c0,9.912,6.04,18.432,14.624,22.088l-45.6,228.008C17.412,392.672,0.004,414.32,0.004,440v40h16
			v-40c0-22.056,17.944-40,40-40h118.144c1.08,0.52,2.184,0.976,3.272,1.472c1.272,0.576,2.544,1.176,3.824,1.72
			c1.4,0.592,2.824,1.12,4.24,1.664c1.28,0.496,2.56,1.008,3.848,1.472c1.456,0.512,2.92,0.968,4.392,1.432
			c1.28,0.408,2.552,0.848,3.84,1.216c1.504,0.44,3.024,0.808,4.544,1.2c1.264,0.328,2.528,0.68,3.8,0.976
			c1.576,0.36,3.168,0.656,4.76,0.968c1.224,0.24,2.448,0.512,3.68,0.728c1.68,0.288,3.376,0.496,5.064,0.728
			c1.152,0.16,2.296,0.352,3.448,0.48c1.888,0.216,3.784,0.344,5.68,0.488c0.96,0.072,1.92,0.184,2.88,0.24
			c5.72,0.32,11.448,0.32,17.168,0c0.96-0.056,1.92-0.168,2.88-0.24c1.896-0.144,3.792-0.272,5.68-0.488
			c1.152-0.128,2.296-0.328,3.448-0.48c1.688-0.232,3.376-0.44,5.064-0.728c1.232-0.208,2.448-0.48,3.672-0.728
			c1.592-0.312,3.184-0.6,4.768-0.968c1.272-0.288,2.528-0.648,3.792-0.968c1.52-0.392,3.048-0.76,4.552-1.2
			c1.288-0.376,2.56-0.808,3.84-1.216c1.464-0.472,2.936-0.92,4.392-1.432c1.296-0.456,2.568-0.976,3.848-1.472
			c1.416-0.544,2.84-1.08,4.24-1.664c1.288-0.544,2.552-1.136,3.824-1.72c1.088-0.496,2.192-0.944,3.272-1.472h118.144
			c22.056,0,40,17.944,40,40v40h16v-40C480.004,414.32,462.596,392.672,438.98,386.096z M176.004,16h128
			c37,0,67.568,28.048,71.56,64h-271.12C108.436,44.048,139.004,16,176.004,16z M96.004,96h288c4.408,0,8,3.584,8,8s-3.592,8-8,8
			h-288c-4.408,0-8-3.584-8-8S91.596,96,96.004,96z M96.004,128h288c4.408,0,8,3.584,8,8s-3.592,8-8,8h-288c-4.408,0-8-3.584-8-8
			S91.596,128,96.004,128z M376.004,160v56c-22.056,0-40,17.944-40,40c0,13.232-10.768,24-24,24h-16.808
			c-3.712-18.232-19.88-32-39.192-32h-32c-19.32,0-35.48,13.768-39.192,32h-16.808c-13.232,0-24-10.768-24-24
			c0-22.056-17.944-40-40-40v-56H376.004z M168.004,384H57.764l30.92-154.608c4.576,52.088,35.456,96.728,79.32,120.424V384z
			 M296.012,386.744c-1.928,0.864-3.864,1.696-5.816,2.48c-1.976,0.792-3.936,1.632-5.944,2.32c-2.888,1-5.824,1.792-8.76,2.584
			c-1.912,0.52-3.8,1.12-5.728,1.552c-3.28,0.736-6.6,1.232-9.92,1.72c-1.632,0.24-3.24,0.6-4.88,0.776
			c-9.936,1.096-19.976,1.096-29.92,0c-1.632-0.184-3.248-0.536-4.88-0.776c-3.32-0.488-6.64-0.984-9.92-1.72
			c-1.928-0.432-3.816-1.032-5.728-1.552c-2.936-0.792-5.88-1.592-8.768-2.584c-2.008-0.688-3.968-1.536-5.944-2.32
			c-1.952-0.784-3.888-1.608-5.808-2.488V357.2c0.424,0.168,0.856,0.28,1.28,0.44c3.896,1.512,7.84,2.912,11.88,4.104
			c0.952,0.28,1.928,0.48,2.888,0.744c3.672,1,7.36,1.952,11.136,2.68c1.192,0.232,2.408,0.352,3.6,0.552
			c3.584,0.6,7.16,1.192,10.824,1.544c1.12,0.104,2.24,0.088,3.36,0.168c3.664,0.272,7.312,0.568,11.04,0.568
			c3.728,0,7.376-0.296,11.04-0.56c1.12-0.08,2.24-0.064,3.36-0.168c3.664-0.344,7.24-0.936,10.824-1.544
			c1.2-0.2,2.408-0.32,3.6-0.552c3.776-0.728,7.464-1.68,11.136-2.68c0.96-0.264,1.928-0.464,2.888-0.744
			c4.04-1.192,7.984-2.592,11.88-4.104c0.424-0.168,0.856-0.272,1.28-0.44V386.744z M299.844,337.944
			c-4.328,2.128-8.744,4.008-13.216,5.648c-0.48,0.176-0.952,0.36-1.44,0.528c-4.464,1.584-8.984,2.912-13.552,4.016
			c-0.4,0.096-0.792,0.216-1.192,0.304c-20.04,4.632-40.856,4.632-60.896,0c-0.4-0.088-0.784-0.208-1.184-0.304
			c-4.568-1.096-9.096-2.432-13.56-4.016c-0.48-0.168-0.96-0.352-1.44-0.528c-4.472-1.64-8.888-3.52-13.216-5.648
			c-40.432-19.928-69.584-59.256-75.112-105.832c12.752,0.552,22.968,11.008,22.968,23.888c0,22.056,17.944,40,40,40h24
			c4.416,0,8-3.576,8-8c0-13.232,10.768-24,24-24h32c13.232,0,24,10.768,24,24c0,4.424,3.584,8,8,8h24c22.056,0,40-17.944,40-40
			c0-12.88,10.216-23.336,22.96-23.896C369.428,278.688,340.284,318.016,299.844,337.944z M312.004,384v-34.184
			c43.864-23.696,74.744-68.336,79.32-120.424L422.244,384H312.004z"/>
	</g>
</g>
<g>
</g>
<g>
</g>
<g>
</g>
<g>
</g>
<g>
</g>
<g>
</g>
<g>
</g>
<g>
</g>
<g>
</g>
<g>
</g>
<g>
</g>
<g>
</g>
<g>
</g>
<g>
</g>
<g>
</g>
</svg>
