<?xml version="1.0" encoding="utf-8"?>
<!-- Generator: Adobe Illustrator 25.2.3, SVG Export Plug-In . SVG Version: 6.00 Build 0)  -->
<svg version="1.1" id="Layer_1" xmlns="http://www.w3.org/2000/svg" xmlns:xlink="http://www.w3.org/1999/xlink" x="0px" y="0px"
	 viewBox="0 0 128 448" style="enable-background:new 0 0 128 448;" xml:space="preserve">
<path d="M32,448h64c17.7,0,32-14.3,32-32v-64c0-17.7-14.3-32-32-32H32c-17.7,0-32,14.3-32,32v64C0,433.7,14.3,448,32,448z M32,288
	h64c17.7,0,32-14.3,32-32v-64c0-17.7-14.3-32-32-32H32c-17.7,0-32,14.3-32,32v64C0,273.7,14.3,288,32,288z M32,128h64
	c17.7,0,32-14.3,32-32V32c0-17.7-14.3-32-32-32H32C14.3,0,0,14.3,0,32v64C0,113.7,14.3,128,32,128z"/>
</svg>
